<?xml version="1.0" standalone="no"?>
<!DOCTYPE svg PUBLIC "-//W3C//DTD SVG 1.1//EN" "http://www.w3.org/Graphics/SVG/1.1/DTD/svg11.dtd" >
<svg>
<font id="College-Stencil" horiz-adv-x="33" >
<font-face units-per-em="100" ascent="80" descent="-20" />
<glyph unicode=" " horiz-adv-x="33" d="" />
<glyph unicode="!" horiz-adv-x="28.296703296703299" d="M12.29357 74.42083 L12.29357 35.8824 C12.29357 32.8326 11.04592 30.19867 8.82788 27.98064 C6.60984 25.7626 3.97592 24.65358 0.92612 24.65358 L-0.04428 24.65358 L-0.04428 74.42083 L-6.97565 74.42083 L-6.97565 80.38181 L-0.04428 80.38181 L0.51023 80.38181 L12.29357 80.38181 L12.29357 74.83671 M12.04179 2.17045 C10.69134 0.82001 8.65829 -0.02211 6.74847 -0.02211 C4.83865 -0.02211 2.80559 0.82001 1.45515 2.17045 C0.10471 3.5209 -0.73741 5.55396 -0.73741 7.46377 C-0.73741 9.37359 0.10471 11.40665 1.45515 12.75709 C2.80559 14.10753 4.83865 14.94965 6.74847 14.94965 C8.65829 14.94965 10.69134 14.10753 12.04179 12.75709 C13.39223 11.40665 14.23435 9.37359 14.23435 7.46377 C14.23435 5.55396 13.39223 3.5209 12.04179 2.17045 z" />
<glyph unicode="'" horiz-adv-x="12.774725274725256" d="M0.05706 57.7021 L-5.27385 67.41619 C-5.62924 67.29773 -5.98464 67.29773 -6.34003 67.29773 C-9.89397 67.29773 -12.73712 70.14087 -12.73712 73.69481 C-12.73712 77.24875 -10.01243 80.21036 -6.45849 80.21036 C-2.90456 80.21036 0.05706 77.36721 0.05706 73.81328 C0.05706 68.44288 0.05706 63.07249 0.05706 57.7021 z" />
<glyph unicode="(" horiz-adv-x="38.714285714285722" d="M16.38433 75.95216 C18.92454 77.85732 21.71876 79.12742 24.64 79.88948 C23.49691 79.25443 22.48082 78.49237 21.59175 77.47629 C20.70268 76.58722 19.94062 75.44412 19.30557 74.17402 C17.2734 70.49072 15.87629 65.41031 14.86021 59.1868 C13.84412 52.83629 13.33608 46.48577 13.33608 40.00825 C13.33608 33.53072 13.84412 27.18021 14.86021 20.82969 C15.74928 14.47918 17.2734 9.39876 19.30557 5.71546 C20.06763 4.44536 20.82969 3.30227 21.59175 2.28619 C22.48082 1.39711 23.49691 0.50804 24.64 0 C21.71876 0.76206 19.05155 2.15918 16.38433 3.93732 C13.84412 5.84247 11.43093 8.25567 9.14474 11.17691 C6.22351 15.11423 3.93732 19.55959 2.4132 24.38598 C0.88907 29.08536 0 34.29278 0 39.88124 C0 45.46969 0.88907 50.67711 2.28619 55.50351 C3.93732 60.3299 6.09649 64.64825 9.14474 68.58557 C11.43093 71.63381 13.71711 74.04701 16.38433 75.95216 z" />
<glyph unicode=")" horiz-adv-x="35.829670329670364" d="M8.25567 75.95216 C5.71546 77.85732 2.92124 79.12742 0 79.88948 C1.14309 79.25443 2.15918 78.49237 3.04825 77.47629 C3.93732 76.58722 4.69938 75.44412 5.33443 74.17402 C7.3666 70.49072 8.76371 65.41031 9.77979 59.1868 C10.79588 52.83629 11.30392 46.48577 11.30392 40.00825 C11.30392 33.53072 10.79588 27.18021 9.77979 20.82969 C8.89072 14.47918 7.3666 9.39876 5.33443 5.71546 C4.57237 4.44536 3.81031 3.30227 3.04825 2.28619 C2.15918 1.39711 1.14309 0.50804 0 0 C2.92124 0.76206 5.58845 2.15918 8.25567 3.93732 C10.79588 5.84247 13.20907 8.25567 15.49526 11.17691 C18.41649 15.11423 20.70268 19.55959 22.2268 24.38598 C23.75093 29.08536 24.64 34.29278 24.64 39.88124 C24.64 45.46969 23.75093 50.67711 22.35381 55.50351 C20.70268 60.3299 18.54351 64.64825 15.49526 68.58557 C13.20907 71.63381 10.92289 74.04701 8.25567 75.95216 z" />
<glyph unicode="," horiz-adv-x="16.530562347188379" d="M14.84827 -9.63797 L9.51736 0.07612 C9.16197 -0.04234 8.80657 -0.04234 8.45118 -0.04234 C4.89724 -0.04234 2.05409 2.80081 2.05409 6.35474 C2.05409 9.90868 4.77878 12.8703 8.33271 12.8703 C11.88665 12.8703 14.84827 10.02715 14.84827 6.47321 C14.84827 1.10282 14.84827 -4.26758 14.84827 -9.63797 z" />
<glyph unicode="." horiz-adv-x="22.252747252747213" d="M10.36264 2.11058 Q9.3298 1.07774 7.87762 0.47623 Q6.42544 -0.12528 4.96479 -0.12528 Q3.50415 -0.12528 2.05197 0.47623 Q0.59979 1.07774 -0.43305 2.11058 Q-1.46588 3.14341 -2.06739 4.59559 Q-2.66891 6.04777 -2.66891 7.50842 Q-2.66891 8.96906 -2.06739 10.42124 Q-1.46588 11.87343 -0.43305 12.90626 Q0.59979 13.93909 2.05197 14.5406 Q3.50415 15.14212 4.96479 15.14212 Q6.42544 15.14212 7.87762 14.5406 Q9.3298 13.93909 10.36264 12.90626 Q11.39547 11.87343 11.99698 10.42124 Q12.59849 8.96906 12.59849 7.50842 Q12.59849 6.04777 11.99698 4.59559 Q11.39547 3.14341 10.36264 2.11058 z" />
<glyph unicode="0" horiz-adv-x="62.087912087912116" d="M13.43586 76.28162 C16.5312 78.19779 19.92134 79.52436 23.31147 80.26135 C21.9849 79.52436 20.80572 78.78738 19.77394 77.7556 C18.74216 76.72382 17.71038 75.69203 16.82599 74.36546 C14.46764 70.68053 12.55147 65.66902 11.3723 59.33094 C10.19312 52.99286 9.60353 46.65477 9.60353 40.16929 C9.60353 33.68382 10.19312 27.34573 11.3723 21.00765 C12.69887 14.66957 14.46764 9.65806 16.82599 5.82573 C17.71038 4.49916 18.59476 3.31998 19.77394 2.4356 C20.80572 1.40382 21.9849 0.66683 23.31147 0.07724 C19.77394 0.81423 16.5312 2.1408 13.43586 4.05697 C10.34052 5.97313 7.53997 8.33149 4.73942 11.27943 C1.20189 15.25916 -1.59866 19.68108 -3.36743 24.54519 C-5.28359 29.40929 -6.31537 34.5682 -6.31537 40.16929 C-6.31537 45.77039 -5.28359 51.07669 -3.36743 55.9408 C-1.59866 60.65751 1.20189 65.07943 4.73942 68.91176 C7.39257 71.85971 10.34052 74.36546 13.43586 76.28162 zM55.29668 24.54519 C53.38052 19.68108 50.72736 15.25916 47.18983 11.27943 C44.53668 8.33149 41.58873 5.82573 38.49339 4.05697 C35.39805 2.1408 32.15531 0.81423 28.61778 0.07724 C29.94435 0.66683 31.12353 1.40382 32.15531 2.4356 C33.18709 3.31998 34.21887 4.49916 35.10326 5.82573 C37.46161 9.51066 39.23038 14.52217 40.40956 21.00765 C41.73613 27.34573 42.32572 33.83121 42.32572 40.16929 C42.32572 46.65477 41.73613 52.99286 40.40956 59.33094 C39.23038 65.66902 37.46161 70.68053 35.10326 74.36546 C34.21887 75.69203 33.33449 76.72382 32.15531 77.7556 C31.12353 78.78738 29.94435 79.52436 28.61778 80.26135 C32.15531 79.52436 35.39805 78.19779 38.49339 76.28162 C41.58873 74.36546 44.53668 71.85971 47.18983 68.91176 C50.72736 64.93203 53.52791 60.65751 55.29668 55.9408 C57.06545 51.07669 58.09723 45.77039 58.24463 40.16929 C58.24463 34.5682 57.21284 29.2619 55.29668 24.54519 z" />
<glyph unicode="1" horiz-adv-x="47.368131868131911" d="M10.44937 44.26649 C9.56286 43.82324 8.5286 43.67549 7.49433 43.67549 C6.60782 43.67549 5.57356 43.82324 4.53929 44.26649 C3.65278 44.562 2.91402 45.15301 2.17526 45.89177 C1.4365 46.48277 0.99325 47.36929 0.54999 48.40355 C0.10674 49.29006 -0.04102 50.32432 -0.04102 51.35859 C-0.04102 52.2451 0.10674 53.27936 0.54999 54.31363 C0.99325 55.20014 1.4365 56.08665 2.17526 56.67766 C2.91402 57.41642 3.80053 58.00742 4.68705 58.30293 C5.72131 58.74618 6.60782 58.89394 7.64208 58.89394 C8.67635 58.89394 9.56286 58.74618 10.59712 58.30293 C11.48364 57.85967 12.37015 57.26866 13.10891 56.67766 C13.69991 55.9389 14.29092 55.20014 14.73418 54.31363 C15.17743 53.27936 15.32519 52.39285 15.32519 51.35859 C15.32519 50.32432 15.17743 49.43781 14.73418 48.40355 C14.14317 47.36929 13.55216 46.48277 12.96115 45.89177 C12.2224 45.15301 11.33588 44.70975 10.44937 44.26649 zM38.07898 -0.05909 C33.94193 -0.05909 27.5886 -0.05909 19.16674 -0.05909 C19.16674 14.86386 19.16674 37.1744 19.16674 67.02029 C21.82627 69.97533 25.96333 74.55564 31.5779 80.46572 C31.5779 63.47425 31.5779 37.91316 31.5779 3.93022 C33.05542 4.07797 35.12395 4.07797 38.07898 4.07797 C38.07898 3.19146 38.07898 1.71394 38.07898 -0.05909 z" />
<glyph unicode="2" horiz-adv-x="61.791208791208817" d="M32.12504 14.00108 C36.97316 14.00108 44.17188 14.00108 53.72119 14.00108 C53.72119 10.18135 52.54589 6.94928 50.19529 4.15794 C47.84469 1.51351 45.05335 0.04439 41.82127 0.04439 C32.56578 0.04439 18.60909 0.04439 -0.04881 0.04439 C-0.04881 3.86411 1.12649 7.09619 3.47709 9.88753 C5.82769 12.53195 8.61903 14.00108 11.85111 14.00108 C16.4054 14.00108 23.16338 14.00108 32.12504 14.00108 zM14.49554 58.95633 C13.61406 58.51559 12.58567 58.36867 11.55728 58.36867 C10.67581 58.36867 9.64742 58.51559 8.61903 58.95633 C7.73756 59.39706 6.85608 59.8378 6.26843 60.57236 C5.53387 61.16001 4.94622 62.04149 4.65239 63.06988 C4.35857 63.95135 4.21166 64.97974 4.21166 66.00813 C4.21166 66.8896 4.35857 67.91799 4.65239 68.94638 C5.09313 69.82786 5.68078 70.70933 6.26843 71.29698 C6.85608 72.03154 7.73756 72.61919 8.61903 72.91302 C9.64742 73.35376 10.5289 73.50067 11.55728 73.50067 C12.58567 73.50067 13.46715 73.35376 14.49554 72.91302 C15.52392 72.61919 16.25849 72.03154 16.99305 71.29698 C17.5807 70.56242 18.16835 69.82786 18.60909 68.94638 C19.04983 67.91799 19.19674 67.03652 19.19674 66.00813 C19.19674 64.97974 19.04983 64.09827 18.60909 63.06988 C18.16835 62.1884 17.5807 61.30693 16.99305 60.57236 C16.25849 59.8378 15.52392 59.39706 14.49554 58.95633 zM29.92136 34.42193 C29.62753 34.27501 29.18679 34.1281 28.89297 34.1281 C27.57075 33.68736 26.10163 33.24663 24.48559 32.80589 C25.51398 33.24663 26.54237 33.83428 27.57075 34.27501 C28.59914 34.86266 29.77444 35.74414 31.09666 37.21327 C32.85961 39.12313 34.32873 42.06138 35.35712 45.88111 C36.38551 49.84775 36.97316 53.22674 36.97316 56.45881 C36.97316 58.6625 36.82625 61.16001 36.53242 64.24518 C36.2386 67.18343 35.50403 69.53403 34.62256 71.15007 C33.00652 73.79449 31.24357 75.70436 29.33371 77.02657 C27.57075 78.34878 25.8078 79.23026 24.04485 79.37717 C24.19177 79.37717 24.48559 79.37717 24.77942 79.52408 C25.95472 79.81791 27.13002 79.96482 28.45223 80.11174 C29.48062 80.25865 30.80283 80.25865 32.27196 80.25865 C35.35712 80.25865 38.29537 79.81791 40.79289 78.93643 C43.43731 78.05496 45.641 76.73275 47.69778 75.11671 C49.75455 73.35376 51.22368 71.29698 52.25207 69.2402 C53.28045 67.03652 53.72119 64.539 53.72119 61.74766 C53.72119 56.16499 51.95824 51.16996 48.43234 46.61567 C44.90644 42.3552 39.47067 38.53548 32.27196 35.3034 C31.53739 35.00958 30.80283 34.71575 29.92136 34.42193 z" />
<glyph unicode="3" horiz-adv-x="54.236263736263766" d="M10.48478 58.92135 C9.59 58.47396 8.5461 58.32484 7.50219 58.32484 C6.60742 58.32484 5.56352 58.47396 4.51961 58.92135 C3.62484 59.21961 2.73007 59.81613 2.13355 60.56177 C1.3879 61.15829 0.94052 62.05306 0.49313 62.94784 C0.19487 63.99174 0.04574 65.03564 0.04574 65.93042 C0.04574 66.97432 0.19487 67.86909 0.64226 68.913 C1.08965 69.9569 1.53703 70.70255 2.28268 71.44819 C2.87919 72.04471 3.77397 72.64122 4.66874 73.08861 C5.71265 73.536 6.60742 73.68513 7.65132 73.68513 C8.69523 73.68513 9.59 73.536 10.6339 73.08861 C11.67781 72.64122 12.42345 72.19384 13.1691 71.44819 C13.76561 70.70255 14.36213 69.9569 14.80952 68.913 C15.2569 68.01822 15.40603 66.97432 15.40603 65.93042 C15.40603 65.03564 15.2569 63.99174 14.80952 62.94784 C14.213 62.05306 13.76561 61.30742 13.01997 60.56177 C12.27432 59.81613 11.52868 59.21961 10.48478 58.92135 zM10.48478 2.40145 C9.59 1.95406 8.5461 1.80493 7.50219 1.80493 C6.60742 1.80493 5.56352 1.95406 4.51961 2.40145 C3.62484 2.84884 2.73007 3.44535 2.13355 4.04187 C1.3879 4.63838 0.94052 5.53316 0.49313 6.42793 C0.04574 7.47184 -0.10339 8.36661 -0.10339 9.41051 C-0.10339 10.45442 0.04574 11.34919 0.49313 12.39309 C1.08965 13.13874 1.53703 14.03351 2.28268 14.77916 C2.87919 15.37567 3.77397 15.97219 4.66874 16.41958 C5.71265 16.86696 6.60742 17.01609 7.65132 17.01609 C8.69523 17.01609 9.59 16.86696 10.6339 16.41958 C11.67781 15.97219 12.42345 15.5248 13.1691 14.77916 C13.76561 14.03351 14.36213 13.13874 14.80952 12.24396 C15.2569 11.34919 15.40603 10.30529 15.40603 9.26138 C15.40603 8.36661 15.2569 7.32271 14.80952 6.2788 C14.213 5.38403 13.76561 4.63838 13.01997 4.04187 C12.27432 3.29622 11.52868 2.69971 10.48478 2.40145 zM24.20465 44.45584 C23.01161 44.15758 21.81858 43.71019 20.47642 43.41193 C21.37119 43.85932 22.26597 44.15758 23.16074 44.60496 C24.05552 45.05235 25.09942 45.798 26.14332 46.8419 C27.63461 48.33319 28.82765 50.57013 29.72242 53.55271 C30.61719 56.53529 31.06458 59.21961 31.06458 61.60567 C31.06458 63.24609 30.91545 65.3339 30.61719 67.57084 C30.31894 69.80777 29.72242 71.59732 28.82765 72.93948 C27.48548 75.02729 25.99419 76.51858 24.35378 77.56248 C22.86248 78.60638 21.37119 79.2029 19.8799 79.35203 C20.02903 79.35203 20.17816 79.50116 20.47642 79.50116 C21.52032 79.79942 22.56423 79.94855 23.60813 79.94855 C24.80116 80.2468 25.84507 80.2468 27.18723 80.2468 C29.87155 80.2468 32.25761 79.94855 34.49455 79.2029 C36.73148 78.45725 38.67016 77.56248 40.45971 76.22032 C42.10013 74.87816 43.44229 73.38687 44.33707 71.59732 C45.23184 69.9569 45.67923 68.01822 45.67923 65.93042 C45.67923 61.7548 44.18794 57.87745 41.20536 54.44748 C37.77539 51.01751 33.15239 48.03493 27.18723 45.49974 C26.29245 45.20148 25.39768 44.75409 24.20465 44.45584 zM24.80116 1.20842 C23.60813 0.76103 22.4151 0.46277 21.22207 0.01538 C22.11684 0.46277 23.01161 0.91016 23.90639 1.35755 C24.80116 1.95406 25.69594 2.84884 26.88897 4.04187 C28.38026 5.83142 29.57329 8.51574 30.46807 12.24396 C31.36284 15.82306 31.81023 19.1039 31.81023 21.93735 C31.81023 24.02516 31.6611 26.41122 31.36284 29.24467 C31.06458 31.929 30.46807 34.16593 29.57329 35.65722 C28.23113 38.19242 26.73984 39.98196 25.09942 41.32413 C23.60813 42.66629 22.11684 43.41193 20.62555 43.56106 C20.77468 43.56106 20.92381 43.71019 21.37119 43.71019 C22.4151 44.00845 23.459 44.30671 24.5029 44.45584 C25.54681 44.45584 26.44158 44.60496 27.48548 44.60496 C27.48548 44.60496 27.63461 44.60496 27.78374 44.60496 C30.46807 44.60496 32.85413 44.15758 35.09107 43.41193 C37.17887 42.66629 39.11755 41.47325 40.9071 39.83284 C42.54752 38.19242 43.88968 36.40287 44.78445 34.16593 C45.67923 32.07813 46.12661 29.84119 46.12661 27.15687 C46.12661 21.93735 44.63532 17.16522 41.65274 13.13874 C38.3719 8.96313 33.7489 5.38403 27.78374 2.25232 C26.88897 1.95406 25.99419 1.50667 24.80116 1.20842 z" />
<glyph unicode="4" horiz-adv-x="58.10439560439562" d="M51.28538 29.42349 C51.28538 26.32923 50.25397 23.82436 48.19113 21.61418 C46.27564 19.55135 43.77077 18.37258 40.82386 18.37258 C30.36234 18.37258 14.89108 18.37258 -5.88462 18.37258 C-5.88462 21.31949 -4.8532 23.97171 -2.79036 26.18189 C-0.72753 28.39207 1.77734 29.42349 4.57691 29.42349 C15.03843 29.42349 30.50969 29.42349 51.28538 29.42349 zM42.73935 -0.04559 C38.61368 -0.04559 32.27783 -0.04559 23.87915 -0.04559 C23.87915 14.83629 23.87915 37.08544 23.87915 66.84921 C26.53136 69.79611 30.65703 74.36382 36.25616 80.25764 C36.25616 63.31292 36.25616 37.82217 36.25616 3.93274 C37.72961 4.08008 39.93979 4.08008 42.73935 4.08008 C42.73935 3.19601 42.73935 1.72256 42.73935 -0.04559 z" />
<glyph unicode="5" horiz-adv-x="59.181318681318714" d="M49.35335 80.25546 C49.35335 77.0464 48.28366 74.44858 46.14428 72.1564 C44.00491 70.01702 41.4071 68.79452 38.35085 68.79452 C37.12835 68.79452 35.44741 68.79452 33.00241 68.79452 C25.66741 68.79452 14.66491 68.79452 -0.00509 68.79452 C-0.00509 71.85077 1.0646 74.6014 3.20397 76.89358 C5.19053 79.18577 7.78835 80.25546 10.8446 80.25546 C19.4021 80.25546 32.23835 80.25546 49.35335 80.25546 zM10.69178 0.79296 C9.77491 0.33452 8.70522 0.18171 7.78835 0.18171 C6.71866 0.18171 5.80178 0.33452 4.7321 0.79296 C3.66241 1.2514 2.89835 1.86265 2.13428 2.4739 C1.37022 3.08515 0.91178 4.00202 0.45335 4.9189 C-0.00509 5.98858 -0.1579 6.90546 -0.1579 7.97515 C-0.1579 9.04483 -0.00509 9.96171 0.45335 11.0314 C0.91178 12.10108 1.37022 12.86515 2.13428 13.62921 C2.74553 14.24046 3.66241 14.85171 4.7321 15.31015 C5.64897 15.76858 6.71866 15.9214 7.78835 15.9214 C8.70522 15.9214 9.77491 15.76858 10.69178 15.31015 C11.76147 14.85171 12.52553 14.39327 13.2896 13.62921 C13.90085 12.86515 14.5121 12.10108 14.97053 11.0314 C15.42897 10.11452 15.58178 9.04483 15.58178 7.97515 C15.58178 7.05827 15.42897 5.98858 14.97053 4.9189 C14.5121 4.00202 14.05366 3.23796 13.2896 2.4739 C12.52553 1.70983 11.76147 1.09858 10.69178 0.79296 zM51.03428 10.11452 C49.20053 7.3639 46.60272 5.07171 43.24085 3.23796 C41.86553 2.4739 40.1846 1.86265 38.35085 1.2514 C36.5171 0.79296 34.37772 0.33452 31.93272 0.0289 C33.00241 0.48733 33.91928 0.94577 34.83616 1.55702 C35.75303 2.16827 36.66991 2.93233 37.43397 3.84921 C38.9621 5.53015 40.1846 7.97515 40.94866 11.33702 C41.71272 14.85171 42.01835 18.06077 42.01835 21.26983 C42.01835 25.7014 41.25428 29.67452 39.57335 33.0364 C37.89241 36.55108 35.44741 38.84327 32.08553 40.21858 C34.83616 39.91296 37.28116 39.45452 39.57335 38.69046 C41.71272 38.07921 43.69928 37.16233 45.38022 36.09265 C48.13085 34.2589 50.27022 31.96671 51.79835 29.3689 C52.86803 26.77108 53.6321 23.56202 53.6321 20.04733 C53.6321 16.22702 52.71522 12.86515 51.03428 10.11452 z" />
<glyph unicode="6" horiz-adv-x="61.791208791208817" d="M20.5519 76.12982 C23.7882 78.04218 27.3187 79.36612 30.99632 80.10164 C29.67238 79.36612 28.34844 78.6306 27.1716 77.74797 C25.99476 76.71824 24.96503 75.68851 24.0824 74.36456 C21.58163 70.68695 19.81637 65.6854 18.49243 59.3599 C17.16849 53.0344 16.58007 46.5618 16.58007 40.23631 C16.58007 33.76371 17.16849 27.43821 18.49243 21.11271 C19.81637 14.78722 21.58163 9.78566 24.0824 5.96095 C24.96503 4.637 25.99476 3.46017 27.1716 2.43044 C28.34844 1.54781 29.52527 0.66518 30.99632 0.07676 C27.3187 0.95939 23.7882 2.28333 20.5519 4.19569 C17.31559 6.10805 14.2264 8.46172 11.43141 11.40381 C7.60669 15.37564 4.81171 19.78877 2.89935 24.64322 C0.98699 29.35057 -0.04274 34.64633 -0.04274 40.23631 C-0.04274 45.82628 0.98699 50.97494 2.89935 55.82939 C4.81171 60.53674 7.60669 64.94987 11.43141 68.9217 C14.2264 71.86379 17.31559 74.36456 20.5519 76.12982 zM45.11836 62.89041 C44.08862 62.4491 43.206 62.30199 42.17627 62.30199 C41.14653 62.30199 40.26391 62.4491 39.23417 62.89041 C38.20444 63.33172 37.46892 63.92014 36.7334 64.50856 C35.99787 65.24408 35.55656 66.12671 35.11525 67.00934 C34.67393 67.89196 34.52683 68.9217 34.52683 69.95143 C34.52683 70.83406 34.67393 71.86379 35.11525 72.89352 C35.55656 73.77615 35.99787 74.65877 36.7334 75.24719 C37.32181 75.98271 38.20444 76.57113 39.23417 76.86534 C40.1168 77.30666 41.14653 77.45376 42.17627 77.45376 C43.05889 77.45376 44.08862 77.30666 45.11836 76.86534 C46.00098 76.42403 46.88361 75.83561 47.47203 75.24719 C48.20755 74.51167 48.79597 73.77615 49.09018 72.89352 C49.53149 71.86379 49.6786 70.98116 49.6786 69.95143 C49.6786 68.9217 49.53149 68.03907 49.09018 67.00934 C48.64887 66.12671 48.06045 65.24408 47.47203 64.50856 C46.73651 63.77304 46.00098 63.33172 45.11836 62.89041 zM43.206 4.04859 C44.38283 5.96095 45.26546 8.46172 46.00098 11.69802 C46.5894 14.93432 46.88361 18.02352 46.88361 21.25982 C46.88361 24.49612 46.5894 27.73242 46.00098 30.82162 C45.26546 34.05792 44.38283 36.55869 43.206 38.32395 C42.76468 38.91237 42.32337 39.50078 41.88206 39.9421 C41.29364 40.53052 40.70522 40.82473 39.9697 41.11893 C41.73495 40.67762 43.3531 40.0892 44.97125 39.20658 C46.5894 38.32395 48.06045 37.14711 49.38439 35.67607 C51.14964 33.6166 52.62069 31.41003 53.50332 28.90926 C54.38594 26.55558 54.82726 23.9077 54.82726 21.11271 C54.82726 18.31773 54.23884 15.81695 53.35621 13.31617 C52.47358 10.8154 51.00254 8.60883 49.23728 6.69647 C47.91334 5.22542 46.4423 4.04859 44.97125 3.01885 C43.3531 2.13623 41.73495 1.4007 39.9697 1.10649 " />
<glyph unicode="7" horiz-adv-x="53.686813186813197" d="M47.14983 80.22653 C47.14983 77.30516 46.12735 74.67594 44.0824 72.63098 C42.03745 70.58603 39.55429 69.41749 36.63293 69.41749 C32.68909 69.41749 26.99243 69.41749 19.25082 69.41749 C15.01485 69.41749 8.58785 69.41749 -0.03017 69.41749 C-0.03017 72.33885 0.99231 74.96807 2.89119 77.01303 C4.93615 79.20405 7.4193 80.22653 10.34067 80.22653 C18.52048 80.22653 30.7902 80.22653 47.14983 80.22653 zM22.02612 0.61941 C21.14971 0.1812 20.12723 0.03513 19.10475 0.03513 C18.22834 0.03513 17.20587 0.1812 16.18339 0.61941 C15.30698 1.05761 14.43057 1.49581 13.8463 2.22615 C13.11596 2.95649 12.53169 3.8329 12.23955 4.70931 C11.80135 5.58572 11.65528 6.6082 11.65528 7.63067 C11.65528 8.50708 11.80135 9.52956 12.23955 10.55204 C12.67776 11.42845 13.26203 12.30485 13.8463 12.88913 C14.43057 13.61947 15.30698 14.20374 16.18339 14.49588 C16.91373 14.78801 17.64407 14.93408 18.22834 14.93408 C18.52048 14.93408 18.81262 15.08015 18.95869 15.08015 C19.98116 15.08015 20.85757 14.93408 21.88005 14.49588 C22.75646 14.05767 23.63286 13.4734 24.36321 12.88913 C24.94748 12.15879 25.53175 11.42845 25.96995 10.55204 C26.40816 9.52956 26.55423 8.65315 26.55423 7.63067 C26.55423 6.6082 26.40816 5.73179 25.96995 4.70931 C25.67782 3.68684 25.09355 2.95649 24.50927 2.22615 C23.77893 1.49581 22.90252 1.05761 22.02612 0.61941 z" />
<glyph unicode="8" horiz-adv-x="61.10439560439562" d="M1.60028 25.47642 C2.62932 27.68151 4.24638 29.73958 6.15745 31.50365 C7.62751 32.8267 9.24457 33.85574 10.86163 34.73777 C12.6257 35.6198 14.38976 36.20782 16.30083 36.64884 C15.56581 36.35483 14.97778 35.91381 14.38976 35.6198 C13.80174 35.17879 13.21372 34.59076 12.7727 34.00274 C11.44965 32.38568 10.42061 30.03359 9.83259 27.09348 C9.09756 24.15337 8.80355 21.21326 8.80355 18.27315 C8.80355 15.33304 9.09756 12.39293 9.83259 9.59983 C10.42061 6.80673 11.44965 4.45464 12.7727 2.69057 C13.21372 1.95554 13.80174 1.51453 14.38976 1.07351 C14.97778 0.6325 15.71281 0.33848 16.30083 0.04447 C14.38976 0.48549 12.6257 1.07351 10.86163 1.95554 C9.09756 2.83758 7.62751 3.86662 6.15745 5.18967 C4.24638 7.10074 2.62932 9.15881 1.60028 11.3639 C0.57125 13.42197 -0.01678 15.77406 -0.01678 18.27315 C-0.01678 20.91925 0.57125 23.27134 1.60028 25.47642 zM53.49322 23.56535 C53.49322 21.36027 53.19921 19.15519 52.46419 17.09711 C51.58215 14.30401 49.96509 11.5109 47.76001 9.01181 C45.84894 6.65972 43.49685 4.89565 40.85075 3.4256 C38.20465 1.95554 35.41155 1.07351 32.47144 0.48549 L34.2355 1.36752 C35.41155 1.95554 36.58759 2.69057 37.91064 3.71961 C38.49866 4.30763 39.23369 4.89565 39.82171 5.48368 C40.40973 6.0717 40.99776 6.80673 41.29177 7.68876 C42.0268 9.30582 42.61482 11.06989 43.20284 12.68695 C43.79086 14.45101 43.93787 16.50909 43.79086 19.00818 C43.49685 21.06626 43.05583 22.97733 42.1738 24.59439 C41.43877 26.35846 40.26273 27.82851 38.93968 29.15156 C37.61663 30.47461 35.85256 31.79766 33.64748 32.9737 C31.4424 34.29675 28.6493 35.4728 25.56218 36.50184 C21.88704 37.82489 18.65292 39.29494 16.00682 40.61799 C13.36072 42.08804 11.30265 43.5581 9.68559 45.02815 C8.21553 46.49821 7.03949 48.26228 6.15745 50.17335 C5.27542 52.08442 4.6874 54.43651 4.39339 56.78859 C4.09938 59.87571 4.24638 62.66881 4.98141 65.31491 C5.56943 67.96101 6.89248 70.3131 8.65655 72.51818 C10.42061 74.72326 12.6257 76.48733 14.97778 77.81038 C17.32987 79.13343 20.12298 79.86846 23.21009 80.16247 C23.21009 80.16247 23.3571 80.16247 23.5041 80.16247 C23.5041 80.16247 23.65111 80.16247 23.79811 80.16247 L21.00501 79.13343 C19.09394 78.3984 17.03586 76.48733 15.12479 73.54722 C14.24276 72.37118 13.50773 70.90112 13.21372 69.13706 C12.7727 67.52 12.7727 65.60892 12.91971 63.55085 C13.21372 61.19876 13.80174 58.99368 14.83078 57.22961 C15.85982 55.46554 17.32987 53.99549 18.94693 52.67244 C19.82897 51.93741 21.44603 51.05538 23.5041 50.02634 C25.56218 49.14431 28.20828 48.11527 31.29539 46.79222 C34.97053 45.46917 38.05765 43.99912 40.85075 42.52906 C43.49685 41.05901 45.70193 39.44195 47.466 37.82489 C49.23006 36.20782 50.55311 34.44376 51.58215 32.53269 C52.46419 30.76862 53.05221 28.56354 53.34622 26.21145 C53.34622 25.32942 53.49322 24.44739 53.49322 23.56535 zM47.90701 59.7287 C47.17199 57.81763 46.14295 56.20057 44.67289 54.73052 C43.64386 53.55447 42.46781 52.52543 41.14476 51.79041 C39.82171 51.05538 38.49866 50.46736 37.02861 50.17335 C37.61663 50.46736 38.05765 50.76137 38.49866 51.05538 C38.93968 51.4964 39.23369 51.93741 39.67471 52.37843 C40.55674 53.70148 41.14476 55.61255 41.58578 58.11164 C42.0268 60.61074 42.1738 62.96282 42.1738 65.46192 C42.1738 67.81401 41.87979 70.16609 41.29177 72.66519 C40.70375 75.01728 39.96872 76.92835 38.93968 78.2514 C38.64567 78.69241 38.20465 79.13343 37.76364 79.42744 C37.32262 79.72145 36.7346 80.01546 36.29358 80.30947 C37.61663 80.01546 39.08669 79.57445 40.40973 78.98642 C41.73278 78.2514 42.90883 77.36936 44.08487 76.34032 C45.55493 74.87027 46.73097 73.25321 47.466 71.48914 C48.34803 69.57807 48.78905 67.667 48.93605 65.60892 C48.93605 63.40384 48.64204 61.49277 47.90701 59.7287 z" />
<glyph unicode="9" horiz-adv-x="61.10439560439562" d="M1.60818 66.86851 C2.63746 69.51523 4.2549 71.86787 6.31346 74.07347 C7.9309 75.69091 9.54834 77.01427 11.45986 78.04355 C13.37138 79.07283 15.2829 79.80803 17.34146 80.24915 C16.60626 79.95507 15.87106 79.51395 15.13586 78.92579 C14.5477 78.33763 13.95954 77.74947 13.51842 77.16131 C12.04802 75.10275 11.01874 72.30899 10.28354 68.78003 C9.54834 65.25107 9.25426 61.72211 9.25426 58.19315 C9.25426 54.66419 9.54834 51.13523 10.28354 47.60627 C10.8717 44.22435 12.04802 41.43059 13.51842 39.51907 C14.10658 38.78387 14.69474 38.19571 15.2829 37.60755 C15.87106 37.01939 16.60626 36.57827 17.34146 36.28419 C15.2829 36.72531 13.22434 37.46051 11.45986 38.48979 C9.54834 39.51907 7.9309 40.84243 6.31346 42.45987 C4.2549 44.66547 2.63746 47.01811 1.60818 49.66483 C0.5789 52.31155 -0.00926 55.10531 -0.00926 58.19315 C-0.00926 61.28099 0.5789 64.22179 1.60818 66.86851 zM16.90034 3.49427 C16.0181 3.05315 14.98882 2.90611 13.95954 2.90611 C13.0773 2.90611 12.04802 3.05315 11.01874 3.49427 C10.1365 3.93539 9.25426 4.37651 8.51906 5.11171 C7.78386 5.69987 7.34274 6.58211 6.90162 7.61139 C6.4605 8.49363 6.31346 9.52291 6.31346 10.55219 C6.31346 11.43443 6.4605 12.46371 6.90162 13.49299 C7.34274 14.37523 7.78386 15.25747 8.51906 15.84563 C9.25426 16.58083 10.1365 17.16899 11.01874 17.46307 C12.04802 17.90419 12.93026 18.05123 13.95954 18.05123 C14.98882 18.05123 15.87106 17.90419 16.90034 17.46307 C17.78258 17.02195 18.66482 16.43379 19.40002 15.84563 C19.98818 15.11043 20.57634 14.37523 21.01746 13.49299 C21.45858 12.46371 21.60562 11.58147 21.60562 10.55219 C21.60562 9.52291 21.45858 8.64067 21.01746 7.61139 C20.57634 6.58211 19.98818 5.69987 19.40002 5.11171 C18.66482 4.37651 17.78258 3.93539 16.90034 3.49427 zM35.42738 3.93539 C32.33954 2.02387 28.95762 0.70051 25.5757 -0.03469 C26.89906 0.55347 28.07538 1.43571 29.10466 2.46499 C30.13394 3.49427 31.16322 4.52355 32.04546 5.84691 C34.3981 9.52291 36.30962 14.52227 37.48594 20.84499 C38.66226 27.16771 39.25042 33.49043 39.25042 39.96019 C39.25042 46.42995 38.66226 52.75267 37.48594 59.07539 C36.16258 65.54515 34.25106 70.54451 31.89842 74.22051 C31.01618 75.54387 30.13394 76.72019 28.95762 77.60243 C27.92834 78.63171 26.75202 79.36691 25.42866 79.95507 C28.95762 79.21987 32.1925 77.89651 35.28034 75.98499 C38.51522 74.22051 41.45602 71.72083 44.10274 68.78003 C47.77874 64.80995 50.42546 60.39875 52.18994 55.54643 C54.10146 50.69411 54.9837 45.54771 55.13074 39.96019 C55.13074 34.37267 54.10146 29.07923 52.18994 24.22691 C50.42546 19.52163 47.6317 15.11043 44.10274 11.28739 C41.45602 8.34659 38.51522 5.84691 35.42738 3.93539 z" />
<glyph unicode=":" horiz-adv-x="26.157701711491541" d="M13.02362 2.13368 C11.65169 0.76175 9.58628 -0.09377 7.64608 -0.09377 C5.70587 -0.09377 3.64046 0.76175 2.26853 2.13368 C0.8966 3.50561 0.04108 5.57102 0.04108 7.51123 C0.04108 9.45143 0.8966 11.51684 2.26853 12.88878 C3.64046 14.26071 5.70587 15.11623 7.64608 15.11623 C9.58628 15.11623 11.65169 14.26071 13.02362 12.88878 C14.39556 11.51684 15.25108 9.45143 15.25108 7.51123 C15.25108 5.57102 14.39556 3.50561 13.02362 2.13368 zM13.02362 40.58118 C11.65169 39.20925 9.58628 38.35373 7.64608 38.35373 C5.70587 38.35373 3.64046 39.20925 2.26853 40.58118 C0.8966 41.95311 0.04108 44.01852 0.04108 45.95873 C0.04108 47.89893 0.8966 49.96434 2.26853 51.33628 C3.64046 52.70821 5.70587 53.56373 7.64608 53.56373 C9.58628 53.56373 11.65169 52.70821 13.02362 51.33628 C14.39556 49.96434 15.25108 47.89893 15.25108 45.95873 C15.25108 44.01852 14.39556 41.95311 13.02362 40.58118 z" />
<glyph unicode=";" horiz-adv-x="29.069682151589291" d="M12.41474 41.16037 C11.10187 39.8475 9.12537 39.02881 7.26869 39.02881 C5.41201 39.02881 3.43551 39.8475 2.12264 41.16037 C0.80977 42.47324 -0.00892 44.44974 -0.00892 46.30642 C-0.00892 48.1631 0.80977 50.1396 2.12264 51.45247 C3.43551 52.76534 5.41201 53.58404 7.26869 53.58404 C9.12537 53.58404 11.10187 52.76534 12.41474 51.45247 C13.72762 50.1396 14.54631 48.1631 14.54631 46.30642 C14.54631 44.44974 13.72762 42.47324 12.41474 41.16037 zM14.68108 -8.68 L8.6164 2.37119 C8.21209 2.23642 7.80777 2.23642 7.40346 2.23642 C3.36034 2.23642 0.12585 5.47092 0.12585 9.51404 C0.12585 13.55716 3.36034 16.79165 7.40346 16.79165 C11.31181 16.79165 14.68108 13.55716 14.68108 9.51404 C14.68108 3.44936 14.68108 -2.61532 14.68108 -8.68 z" />
<glyph unicode="&#x3c;" horiz-adv-x="56" d="M-0.09445 94.24864 L5.23645 84.53454 C5.59185 84.65301 5.94724 84.65301 6.30264 84.65301 C9.85657 84.65301 12.69972 81.80986 12.69972 78.25592 C12.69972 74.70199 9.85657 71.74037 6.30264 71.74037 C2.7487 71.74037 -0.09445 74.70199 -0.09445 78.25592 C-0.09445 83.58683 -0.09445 88.91773 -0.09445 94.24864 zM17.20138 94.24864 L22.53228 84.53454 C22.88768 84.65301 23.24307 84.65301 23.59846 84.65301 C27.1524 84.65301 29.99555 81.80986 29.99555 78.25592 C29.99555 74.70199 27.27086 71.74037 23.71693 71.74037 C20.16299 71.74037 17.20138 74.70199 17.20138 78.25592 C17.20138 83.58683 17.20138 88.91773 17.20138 94.24864 z" />
<glyph unicode="&#x3e;" horiz-adv-x="56" d="M12.83709 70.64147 L7.50618 80.35557 C7.15079 80.2371 6.79539 80.2371 6.44 80.2371 C2.88606 80.2371 0.04291 83.08025 0.04291 86.63419 C0.04291 90.18812 2.7676 93.14974 6.32153 93.14974 C9.87547 93.14974 12.83709 90.30659 12.83709 86.75265 C12.83709 81.38226 12.83709 76.01186 12.83709 70.64147 zM30.13291 70.64147 L24.80201 80.35557 C24.44661 80.2371 24.09122 80.2371 23.73583 80.2371 C20.18189 80.2371 17.33874 83.08025 17.33874 86.63419 C17.33874 90.18812 20.18189 93.14974 23.61736 93.14974 C27.28976 93.14974 30.13291 90.30659 30.13291 86.75265 C30.13291 81.38226 30.13291 76.01186 30.13291 70.64147 z" />
<glyph unicode="?" horiz-adv-x="56" d="M48.44724 49.69434 C46.64588 46.78444 44.01311 44.56738 40.41039 42.76602 C39.02473 41.93462 37.36193 41.24179 35.422 40.82609 C33.48207 40.41039 31.26501 39.99469 28.90938 39.57899 C30.01791 39.99469 30.98788 40.41039 31.95784 41.10322 C32.9278 41.79605 33.7592 42.48888 34.5906 43.45885 C36.2534 45.12165 37.36193 47.61584 38.19333 51.08 C38.88616 54.54416 39.30186 58.00832 39.30186 61.19535 C39.30186 65.76804 38.47046 69.78646 36.80766 73.25062 C34.86773 76.57621 32.23497 78.93184 28.90938 80.31751 C31.68071 80.04037 34.1749 79.48611 36.53053 78.79328 C38.74759 78.10044 40.68752 77.26904 42.35032 76.16051 C45.26021 74.35915 47.33871 72.00352 48.86294 69.2322 C50.2486 66.59943 51.08 63.41241 51.08 59.80968 C51.08 55.92982 50.2486 52.46566 48.44724 49.69434 zM13.03154 62.18051 Q11.99871 61.14768 10.54653 60.54616 Q9.09434 59.94465 7.6337 59.94465 Q6.17305 59.94465 4.72087 60.54616 Q3.26869 61.14768 2.23586 62.18051 Q1.20303 63.21334 0.60151 64.66552 Q0 66.1177 0 67.57835 Q0 69.03899 0.60151 70.49117 Q1.20303 71.94336 2.23586 72.97619 Q3.26869 74.00902 4.72087 74.61053 Q6.17305 75.21205 7.6337 75.21205 Q9.09434 75.21205 10.54653 74.61053 Q11.99871 74.00902 13.03154 72.97619 Q14.06437 71.94336 14.66589 70.49117 Q15.2674 69.03899 15.2674 67.57835 Q15.2674 66.1177 14.66589 64.66552 Q14.06437 63.21334 13.03154 62.18051 zM30.34401 2.23586 Q29.31118 1.20303 27.859 0.60151 Q26.40682 0 24.94617 0 Q23.48553 0 22.03334 0.60151 Q20.58116 1.20303 19.54833 2.23586 Q18.5155 3.26869 17.91398 4.72087 Q17.31247 6.17305 17.31247 7.6337 Q17.31247 9.09434 17.91398 10.54653 Q18.5155 11.99871 19.54833 13.03154 Q20.58116 14.06437 22.03334 14.66589 Q23.48553 15.2674 24.94617 15.2674 Q26.40682 15.2674 27.859 14.66589 Q29.31118 14.06437 30.34401 13.03154 Q31.37684 11.99871 31.97836 10.54653 Q32.57987 9.09434 32.57987 7.6337 Q32.57987 6.17305 31.97836 4.72087 Q31.37684 3.26869 30.34401 2.23586 z" />
<glyph unicode="A" horiz-adv-x="82.780219780219795" d="M35.23359 80.18077 C37.00396 80.18077 38.61338 79.537 40.06187 78.24946 C41.51035 76.96192 42.476 75.3525 43.28072 73.26025 C57.92649 33.18556 62.75476 20.31015 69.99718 0.19234 C62.9157 0.19234 57.6046 0.19234 54.06387 0.19234 C39.09621 41.23268 33.94605 54.75185 26.38175 75.19156 C25.73798 77.44475 25.09421 79.05418 24.77232 80.18077 C28.15212 80.18077 30.7272 80.18077 32.49757 80.18077 C33.78511 80.18077 34.58982 80.18077 35.23359 80.18077 zM-0.01282 9.84889 C-0.01282 10.97549 0.30906 12.26303 0.79189 13.55057 C1.27472 14.67716 1.91849 15.80376 2.88414 16.60848 C3.8498 17.41319 4.81545 18.2179 5.94205 18.70073 C7.22959 19.18356 8.51713 19.50544 9.64373 19.50544 C10.2875 19.50544 11.09221 19.50544 11.73598 19.3445 C12.37975 19.18356 12.86258 19.02261 13.34541 18.70073 C14.63295 18.2179 15.75954 17.57413 16.56426 16.60848 C17.36897 15.64282 18.17368 14.67716 18.65651 13.55057 C19.13934 12.26303 19.46122 10.97549 19.46122 9.84889 C19.46122 8.56135 19.13934 7.27381 18.65651 6.14721 C18.17368 4.85967 17.52991 3.73307 16.56426 2.92836 C15.75954 2.12365 14.63295 1.47988 13.34541 0.83611 C12.21881 0.35328 10.93127 0.03139 9.64373 0.03139 C8.51713 0.03139 7.22959 0.35328 5.94205 0.83611 C4.81545 1.47988 3.68885 2.12365 2.88414 2.92836 C1.91849 3.89402 1.27472 4.85967 0.79189 6.14721 C0.30906 7.43475 -0.01282 8.56135 -0.01282 9.84889 z" />
<glyph unicode="B" horiz-adv-x="69.346153846153868" d="M40.76717 46.41876 C38.50008 45.44714 35.90911 44.7994 32.99427 44.15166 C33.64201 44.47553 34.28976 44.96134 34.9375 45.44714 C35.4233 45.93295 35.90911 46.41876 36.39492 47.0665 C37.6904 48.52392 38.50008 50.79101 39.14782 53.54392 C39.79556 56.45876 40.11943 59.21166 40.11943 61.80263 C40.11943 65.52714 39.63363 69.08972 38.82395 72.6523 C38.01427 76.05295 36.71879 78.48198 34.9375 79.61553 C34.61363 79.77746 34.28976 79.9394 33.96588 80.10134 C33.64201 80.26327 33.31814 80.42521 32.83234 80.58714 C35.4233 80.26327 37.85234 79.77746 40.11943 79.12972 C42.22459 78.48198 44.00588 77.6723 45.4633 76.70069 C47.89234 75.08134 49.67363 73.30005 50.80717 71.03295 C52.10266 68.76585 52.58847 66.01295 52.58847 62.93617 C52.58847 60.34521 52.10266 57.91617 51.13105 55.81101 C50.15943 53.70585 48.70201 51.92456 46.75879 50.14327 C45.13943 48.68585 43.03427 47.5523 40.76717 46.41876 zM57.60847 10.63101 C55.82717 7.71617 53.07427 5.28714 49.51169 3.50585 C48.05427 2.69617 46.43492 2.04843 44.49169 1.40069 C42.54847 0.91488 40.28137 0.59101 37.85234 0.10521 C38.98588 0.59101 39.9575 1.07682 40.92911 1.56263 C41.90072 2.21037 42.7104 3.02005 43.52008 3.82972 C45.13943 5.44908 46.43492 8.20198 47.24459 11.60263 C48.05427 15.16521 48.37814 18.56585 48.37814 21.80456 C48.37814 26.33876 47.56847 30.54908 45.78717 34.11166 C44.00588 37.67424 41.41492 40.10327 38.01427 41.56069 C40.92911 41.23682 43.35814 40.75101 45.78717 40.10327 C48.05427 39.45553 50.15943 38.48392 51.77879 37.5123 C54.69363 35.56908 56.96072 33.30198 58.41814 30.54908 C59.55169 27.95811 60.36137 24.7194 60.36137 20.99488 C60.36137 16.9465 59.38976 13.54585 57.60847 10.63101 zM20.68717 0.10521 L7.89427 0.10521 L0.12137 0.10521 L0.12137 5.61101 L7.73234 5.61101 L7.73234 68.28005 C7.73234 74.9194 13.07621 80.26327 19.71556 80.26327 L20.68717 80.26327 C20.68717 53.54392 20.68717 26.82456 20.68717 0.10521 z" />
<glyph unicode="C" horiz-adv-x="67.6360768878491" d="M40.15325 71.06429 C40.15325 72.1841 40.4732 73.46389 40.95312 74.74367 C41.43304 75.86349 42.07293 76.9833 43.03277 77.78316 C43.83263 78.58303 44.95245 79.38289 46.07226 79.86281 C47.35204 80.18276 48.47185 80.50271 49.75164 80.50271 C50.39153 80.50271 51.1914 80.50271 51.83129 80.34273 C52.47118 80.18276 52.9511 80.02279 53.43102 79.70284 C54.71081 79.22292 55.83062 78.58303 56.63048 77.62319 C57.43035 76.82332 58.23022 75.70351 58.71013 74.5837 C59.19005 73.30392 59.51 72.02413 59.51 70.90432 C59.51 69.62453 59.19005 68.34475 58.71013 67.22494 C58.23022 65.94515 57.59032 64.82534 56.63048 64.02547 C55.83062 63.22561 54.71081 62.58572 53.43102 61.94582 C52.31121 61.4659 51.03142 61.14596 49.75164 61.14596 C48.63183 61.14596 47.35204 61.4659 46.07226 61.94582 C44.95245 62.58572 43.83263 63.22561 43.03277 64.02547 C42.07293 64.98531 41.43304 66.10513 40.95312 67.38491 C40.4732 68.50472 40.15325 69.78451 40.15325 71.06429 zM19.19677 75.06362 C22.23626 76.9833 25.43573 78.26308 28.79516 78.90297 C27.51538 78.26308 26.23559 77.46322 25.27575 76.50338 C24.15594 75.54354 23.35608 74.42373 22.55621 73.14394 C20.15661 69.46456 18.39691 64.50539 17.2771 58.26644 C16.15728 52.02749 15.51739 45.62857 15.51739 39.22964 C15.51739 32.83072 16.15728 26.43179 17.2771 20.19284 C18.39691 13.79392 20.15661 8.83475 22.55621 5.31534 C23.35608 4.03556 24.31591 2.91574 25.27575 1.9559 C26.39556 0.99607 27.51538 0.1962 28.79516 -0.28372 C25.43573 0.51615 22.23626 1.79593 19.19677 3.55564 C16.15728 5.47531 13.43774 7.87491 10.7182 10.75443 C7.19879 14.75375 4.63922 19.07303 2.71954 23.87222 C0.95984 28.67142 -0 33.79056 -0 39.22964 C-0 44.8287 0.95984 49.94784 2.71954 54.58706 C4.63922 59.54623 7.19879 63.8655 10.7182 67.70486 C13.27777 70.74435 16.15728 73.14394 19.19677 75.06362 z" />
<glyph unicode="D" horiz-adv-x="76.763736263736291" d="M47.2201 3.89643 C44.16032 1.96394 40.9395 0.67561 37.55763 0.03145 C38.84596 0.67561 40.13429 1.48082 41.10054 2.44706 C42.22783 3.41331 43.03303 4.5406 43.83824 5.82893 C46.25386 9.53287 48.02531 14.52515 49.1526 20.80576 C50.27988 27.08636 50.92405 33.52801 50.92405 39.96965 C50.92405 46.4113 50.27988 52.85295 49.1526 59.13355 C48.02531 65.5752 46.25386 70.56747 43.83824 74.11038 C43.03303 75.39871 42.06679 76.526 41.10054 77.49224 C39.97325 78.45849 38.84596 79.2637 37.55763 79.74682 C40.9395 78.94161 44.16032 77.65329 47.2201 75.88183 C50.27988 73.94934 53.01758 71.53372 55.75528 68.63498 C59.29819 64.60895 61.87485 60.26084 63.80734 55.42961 C65.5788 50.59837 66.54504 45.44505 66.54504 39.96965 C66.54504 34.33321 65.5788 29.1799 63.80734 24.5097 C61.87485 19.51743 59.13715 15.16931 55.75528 11.30433 C53.17863 8.24454 50.27988 5.82893 47.2201 3.89643 zM20.48727 0.51457 L7.76502 0.51457 L0.03504 0.51457 L0.03504 5.98997 L7.60398 5.98997 L7.60398 68.3129 C7.60398 74.91559 12.91834 80.22994 19.52102 80.22994 L20.48727 80.22994 C20.48727 53.65815 20.48727 27.08636 20.48727 0.51457 z" />
<glyph unicode="E" horiz-adv-x="59.398909159300388" d="M11.03541 44.25484 L18.98605 44.25484 L18.98605 38.73807 L11.03541 38.73807 L11.03541 44.25484 zM42.67573 63.88807 L29.04605 80.92516 L42.67573 80.92516 L42.67573 63.88807 zM42.67573 0.12065 L29.04605 0.12065 L42.67573 17.32 L42.67573 0.12065 zM12.9825 -0.04161 L0.16412 -0.04161 L-7.62427 -0.04161 L-7.62427 5.47516 L0.00186 5.47516 L0.00186 68.26903 C0.00186 74.92162 5.35637 80.27613 12.00895 80.27613 L12.9825 80.27613 C12.9825 53.50355 12.9825 26.73097 12.9825 -0.04161 z" />
<glyph unicode="F" horiz-adv-x="43.126373626373606" d="M-7.46963 0.04536 C-7.46963 1.65025 -7.46963 2.29221 -7.46963 5.502 C-5.70424 5.502 -3.13641 5.502 0.23387 5.502 C0.23387 21.39046 0.23387 30.0569 0.23387 61.83382 C0.23387 66.80899 1.19681 70.98172 2.96219 74.51249 C4.88807 77.88277 8.25835 79.64815 13.07303 79.64815 C13.07303 58.30305 13.07303 43.05655 13.07303 0.04536 C8.41884 0.04536 1.67828 0.04536 -7.46963 0.04536 zM13.07303 43.85899 L20.93702 43.85899 L20.93702 38.40235 L13.07303 38.40235 L13.07303 43.85899 zM38.43037 63.27822 L24.94925 80.12962 L38.43037 80.12962 L38.43037 63.27822 z" />
<glyph unicode="G" horiz-adv-x="70.699629221634154" d="M36.35845 70.95446 C36.35845 72.06625 36.6761 73.33686 37.15258 74.60748 C37.62906 75.71926 38.26437 76.83105 39.21733 77.62518 C40.01146 78.41932 41.12325 79.21345 42.23504 79.68993 C43.34682 80.00758 44.61744 80.32524 45.72922 80.32524 C46.36453 80.32524 47.15866 80.32524 47.79397 80.16641 C48.42928 80.00758 48.90576 79.84876 49.38224 79.5311 C50.65285 79.05462 51.76464 78.41932 52.55877 77.46636 C53.3529 76.67222 54.14704 75.56044 54.62352 74.44865 C55.1 73.17804 55.41765 71.90742 55.41765 70.79564 C55.41765 69.52502 55.1 68.25441 54.62352 67.14262 C54.14704 65.87201 53.51173 64.76022 52.55877 63.96609 C51.76464 63.17196 50.65285 62.53665 49.38224 61.90134 C48.27045 61.58369 46.99984 61.26604 45.72922 61.26604 C44.61744 61.26604 43.34682 61.58369 42.07621 62.06017 C40.96442 62.69548 39.85264 63.33078 39.0585 64.12492 C38.26437 64.91905 37.62906 66.03084 37.15258 67.30145 C36.6761 68.41324 36.35845 69.68385 36.35845 70.95446 zM14.91685 74.92513 C17.93456 76.83105 21.11109 78.10166 24.44645 78.73697 C23.17584 78.10166 21.90522 77.30753 20.95226 76.35457 C19.84048 75.40161 19.04634 74.28982 18.25221 73.01921 C15.86981 69.3662 14.12272 64.44257 13.01093 58.24833 C11.89914 52.05409 11.26384 45.70102 11.26384 39.34796 C11.26384 32.99489 11.89914 26.64182 13.01093 20.44758 C14.12272 14.09452 15.86981 9.17089 18.25221 5.6767 C19.04634 4.40609 19.9993 3.2943 20.95226 2.34134 C22.06405 1.38838 23.17584 0.59425 24.44645 0.11777 C21.11109 0.9119 17.93456 2.18252 14.91685 3.92961 C11.89914 5.83553 9.19909 8.21793 6.49904 11.07681 C3.00485 15.04748 0.46362 19.3358 -1.4423 24.1006 C-3.18939 28.8654 -4.14235 33.94785 -4.14235 39.34796 C-4.14235 44.90689 -3.18939 49.98934 -1.4423 54.59532 C0.46362 59.51894 3.00485 63.80726 6.49904 67.6191 C9.04026 70.63681 11.89914 73.01921 14.91685 74.92513 zM37.94672 40.61857 C41.4409 40.61857 46.68218 40.61857 53.82938 40.61857 C53.82938 38.23617 53.82938 20.76524 53.82938 15.84161 C53.82938 11.39446 52.24112 7.74145 49.06458 4.56492 C45.88805 1.54721 42.23504 -0.04106 37.94672 -0.04106 C37.94672 5.83553 37.94672 28.70657 37.94672 40.61857 z" />
<glyph unicode="H" horiz-adv-x="65.928830428830452" d="M13.05119 43.55137 L20.96378 43.55137 L20.96378 38.061 L13.05119 38.061 L13.05119 43.55137 zM13.05119 0.11285 L0.29415 0.11285 L-7.45696 0.11285 L-7.45696 5.60322 L0.13267 5.60322 L0.13267 68.09655 C0.13267 74.71729 5.46156 80.04618 12.0823 80.04618 L13.05119 80.04618 C13.05119 53.40174 13.05119 26.75729 13.05119 0.11285 zM49.22304 0.11285 L36.30452 0.11285 L36.30452 5.60322 L36.30452 68.09655 C36.30452 74.71729 41.63341 80.04618 48.25415 80.04618 L49.22304 80.04618 C49.22304 53.40174 49.22304 26.75729 49.22304 0.11285 z" />
<glyph unicode="I" horiz-adv-x="37.340659340659386" d="M20.45192 0.04357 L7.6253 0.04357 L-0.16808 0.04357 L-0.16808 5.56388 L7.46294 5.56388 L7.46294 68.39806 C7.46294 75.05491 12.82089 80.41286 19.47774 80.41286 L20.45192 80.41286 C20.45192 53.6231 20.45192 26.83333 20.45192 0.04357 z" />
<glyph unicode="J" horiz-adv-x="54.670329670329693" d="M-7.85039 9.99343 C-7.85039 11.14856 -7.52035 12.4687 -7.0253 13.78885 C-6.53024 14.94397 -5.87017 16.0991 -4.88006 16.92419 C-4.05497 17.74928 -2.89984 18.57437 -1.74472 19.06943 C-0.42457 19.56448 0.89558 19.89452 2.0507 19.89452 C2.71078 19.89452 3.53587 19.89452 4.19594 19.7295 C4.85601 19.56448 5.35107 19.39947 5.84612 19.06943 C7.16627 18.57437 8.32139 17.9143 9.14648 16.92419 C9.97158 16.0991 10.79667 14.94397 11.29172 13.78885 C11.78678 12.4687 12.11681 11.14856 12.11681 9.99343 C12.11681 8.67328 11.78678 7.35314 11.29172 6.19801 C10.79667 4.87787 10.13659 3.72274 9.14648 2.89765 C8.32139 2.07256 7.16627 1.41248 5.84612 0.75241 C4.69099 0.25736 3.37085 -0.07268 2.0507 -0.07268 C0.89558 -0.07268 -0.42457 0.25736 -1.74472 0.75241 C-2.89984 1.41248 -4.05497 2.07256 -4.88006 2.89765 C-5.87017 3.72274 -6.53024 4.87787 -7.0253 6.19801 C-7.52035 7.35314 -7.85039 8.67328 -7.85039 9.99343 zM37.52961 80.45619 C37.52961 65.93459 37.52961 43.98717 37.52961 15.10899 C37.52961 11.14856 36.20947 7.84819 33.56918 5.04288 C30.76387 2.23757 27.4635 0.75241 23.66808 0.75241 C23.50307 0.75241 23.33805 0.75241 23.00801 0.75241 C23.00801 15.27401 23.00801 37.22143 23.00801 66.09961 C23.00801 70.06005 24.32816 73.36041 26.96845 76.16572 C29.11368 78.31096 31.42394 79.6311 34.22925 80.12616 C35.05434 80.29117 35.87943 80.45619 36.86954 80.45619 C37.03456 80.45619 37.19958 80.45619 37.52961 80.45619 z" />
<glyph unicode="K" horiz-adv-x="61.126373626373606" d="M29.70559 54.95653 C29.70559 56.1073 30.03438 57.42246 30.52757 58.73763 C31.02075 59.8884 31.67834 61.03917 32.66471 61.86114 C33.48669 62.68312 34.63746 63.5051 35.78823 63.99829 C37.10339 64.49147 38.25416 64.82026 39.56932 64.82026 C40.22691 64.82026 40.88449 64.82026 41.70647 64.65587 C42.36405 64.49147 42.85724 64.32708 43.35042 63.99829 C44.66559 63.5051 45.65196 62.84752 46.63834 61.86114 C47.62471 60.87477 48.28229 59.8884 48.77548 58.73763 C49.26867 57.42246 49.59746 56.27169 49.59746 54.95653 C49.59746 53.64136 49.43306 52.49059 48.77548 51.17543 C48.28229 49.86026 47.62471 48.87389 46.63834 47.88752 C45.81636 47.06554 44.66559 46.40796 43.35042 45.75037 C42.19965 45.25719 40.88449 44.9284 39.56932 44.9284 C38.41856 44.9284 37.10339 45.09279 35.78823 45.75037 C34.63746 46.40796 33.48669 47.06554 32.66471 47.88752 C31.67834 48.87389 31.02075 50.02466 30.52757 51.33983 C30.03438 52.49059 29.70559 53.80576 29.70559 54.95653 zM-8.1054 -0.116 C-8.1054 1.52796 -8.1054 2.18554 -8.1054 5.47345 C-6.29705 5.47345 -3.83111 5.47345 -0.37881 5.47345 C-0.37881 21.58422 -0.37881 30.29719 -0.37881 62.51873 C-0.37881 67.61499 0.60757 71.88928 2.41592 75.34158 C4.38867 78.6295 7.67658 80.43785 12.77284 80.43785 C12.77284 58.73763 12.77284 43.44884 12.77284 -0.116 C8.16976 -0.116 1.26515 -0.116 -8.1054 -0.116 zM17.04713 33.09191 L26.25328 40.16092 L51.7346 0.21279 L36.939 0.21279 L17.04713 33.09191 z" />
<glyph unicode="L" horiz-adv-x="62.389303850184092" d="M-7.86124 -0.0134 C-7.86124 1.6366 -7.86124 2.2966 -7.86124 5.5966 C-6.04624 5.5966 -3.40624 5.5966 0.05876 5.5966 C0.05876 21.9316 0.05876 29.3566 0.05876 62.1916 C0.05876 67.3066 1.04876 71.5966 2.86376 75.2266 C4.84376 78.5266 8.30876 80.3416 13.25876 80.3416 C13.25876 58.3966 13.25876 44.0416 13.25876 -0.0134 C8.47376 -0.0134 1.54376 -0.0134 -7.86124 -0.0134 zM48.89876 -0.3434 L35.20376 -0.3434 L48.89876 17.1466 L48.89876 -0.3434 z" />
<glyph unicode="M" horiz-adv-x="95.582417582417293" d="M0.04396 10.13952 C0.04396 11.28801 0.3721 12.60057 0.86431 13.91313 C1.35652 15.06163 2.0128 16.21012 2.99723 17.03047 C3.81758 17.85082 4.96607 18.67117 6.11456 19.16338 C7.42712 19.65559 8.73968 19.98373 9.88818 19.98373 C10.54446 19.98373 11.36481 19.98373 12.02109 19.81966 C12.67737 19.65559 13.16958 19.49152 13.66179 19.16338 C14.97435 18.67117 16.12285 18.01489 16.9432 17.03047 C17.76355 16.21012 18.5839 15.06163 19.07611 13.91313 C19.56832 12.60057 19.89646 11.28801 19.89646 10.13952 C19.89646 8.82696 19.56832 7.51439 19.07611 6.3659 C18.5839 5.05334 17.92762 3.90485 16.9432 3.0845 C16.12285 2.26415 14.97435 1.60787 13.66179 0.95158 C12.5133 0.45937 11.20074 0.13123 9.88818 0.13123 C8.73968 0.13123 7.42712 0.45937 6.11456 0.95158 C4.96607 1.60787 3.81758 2.26415 2.99723 3.0845 C2.0128 3.90485 1.35652 5.05334 0.86431 6.3659 C0.3721 7.51439 0.04396 8.82696 0.04396 10.13952 zM36.63163 2.722 C34.17057 4.52677 32.52987 6.82376 31.54545 9.61295 C24.32636 29.46545 20.06053 41.11444 5.78642 80.4913 C7.26305 80.4913 9.39597 80.4913 12.18516 80.4913 C15.13842 80.4913 17.76355 79.67095 20.2246 78.03024 C22.68566 76.38954 24.32636 74.09256 25.31078 71.30336 C32.20173 52.59936 35.97535 42.59107 49.42911 5.34712 C49.92132 4.19863 50.41353 2.55793 51.23388 0.26095 C49.75725 0.26095 47.62433 0.26095 44.83514 0.26095 C41.88188 0.26095 39.09268 1.0813 36.63163 2.722 zM79.45396 0.09688 L66.49241 0.09688 L58.61704 0.09688 L58.61704 5.67526 L66.32834 5.67526 L66.32834 68.02196 C66.32834 74.74884 71.74266 80.16316 78.46954 80.16316 L79.45396 80.16316 C79.45396 53.4744 79.45396 26.78564 79.45396 0.09688 z" />
<glyph unicode="N" horiz-adv-x="66.89560439560438" d="M13.1405 -0.07242 L0.12238 -0.07242 L-7.78736 -0.07242 L-7.78736 5.53031 L-0.0424 5.53031 L-0.0424 68.14912 C-0.0424 74.90536 5.39555 80.34331 12.15179 80.34331 L13.1405 80.34331 C13.1405 53.53806 13.1405 26.73282 13.1405 -0.07242 zM50.05264 0.09237 L36.86973 0.09237 L36.86973 70.29134 L19.07281 70.29134 L31.10221 78.20108 C33.07965 79.68416 35.55144 80.34331 37.85845 80.34331 C44.61469 80.34331 50.05264 74.90536 50.05264 68.14912 C50.05264 45.46353 50.05264 22.77795 50.05264 0.09237 z" />
<glyph unicode="O" horiz-adv-x="73.534700018807655" d="M13.24503 75.93343 C16.32754 77.88028 19.57229 79.17818 22.97928 79.82713 C21.68138 79.17818 20.38348 78.367 19.41005 77.39357 C18.27439 76.42015 17.4632 75.28448 16.65202 73.98658 C14.21845 70.25512 12.43384 65.22576 11.29818 58.8985 C10.16252 52.57124 9.51357 46.08174 9.51357 39.59225 C9.51357 33.10275 10.16252 26.61325 11.29818 20.28599 C12.43384 13.79649 14.21845 8.76713 16.65202 5.19791 C17.4632 3.90001 18.43663 2.76435 19.41005 1.79092 C20.54571 0.8175 21.68138 0.00631 22.97928 -0.4804 C19.57229 0.33079 16.32754 1.62868 13.24503 3.4133 C10.16252 5.36015 7.40448 7.79371 4.64644 10.71398 C1.07722 14.76992 -1.51858 19.15033 -3.46543 24.01745 C-5.25004 28.88458 -6.22346 34.07617 -6.22346 39.59225 C-6.22346 45.27056 -5.25004 50.46216 -3.46543 55.16704 C-1.51858 60.1964 1.07722 64.57681 4.64644 68.47051 C7.24224 71.55302 10.16252 73.98658 13.24503 75.93343 zM45.36804 3.4133 C42.28553 1.46645 39.04078 0.16855 35.6338 -0.4804 C36.9317 0.16855 38.2296 0.97974 39.20302 1.95316 C40.33868 2.92658 41.14987 4.06225 41.96106 5.36015 C44.39462 9.09161 46.17923 14.12097 47.31489 20.44823 C48.45055 26.77549 49.0995 33.26499 49.0995 39.75448 C49.0995 46.24398 48.45055 52.73348 47.31489 59.06074 C46.17923 65.55024 44.39462 70.5796 41.96106 74.14882 C41.14987 75.44672 40.17644 76.58238 39.20302 77.55581 C38.06736 78.52923 36.9317 79.34042 35.6338 79.82713 C39.04078 79.01595 42.28553 77.71805 45.36804 75.93343 C48.45055 73.98658 51.20859 71.55302 53.96663 68.63275 C57.53585 64.57681 60.13165 60.1964 62.0785 55.32928 C63.86311 50.46216 64.83654 45.27056 64.83654 39.75448 C64.83654 34.07617 63.86311 28.88458 62.0785 24.17969 C60.13165 19.15033 57.37361 14.76992 53.96663 10.87622 C51.37083 7.79371 48.45055 5.36015 45.36804 3.4133 z" />
<glyph unicode="P" horiz-adv-x="66.071428571428555" d="M-7.85181 -0.24194 C-7.85181 1.38617 -7.85181 2.03741 -7.85181 5.29363 C-6.0609 5.29363 -3.45592 5.29363 -0.0369 5.29363 C-0.0369 21.4119 -0.0369 30.20368 -0.0369 62.44022 C-0.0369 67.48736 0.93997 71.72044 2.73089 75.30228 C4.68462 78.72131 8.10364 80.51222 12.98797 80.51222 C12.98797 58.85839 12.98797 43.39136 12.98797 -0.24194 C8.26646 -0.24194 1.4284 -0.24194 -7.85181 -0.24194 zM29.75748 18.64412 C28.61781 17.99287 27.31532 17.34163 25.85002 16.8532 C26.82689 17.50444 27.80375 18.15568 28.61781 18.80693 C29.59467 19.45817 30.57154 20.76066 31.71121 22.71439 C33.33932 25.15655 34.64181 29.06401 35.45586 34.27395 C36.43273 39.4839 36.92116 44.20541 36.92116 48.27568 C36.92116 51.20628 36.75835 54.62531 36.59554 58.53276 C36.26991 62.44022 35.61867 65.53363 34.80462 67.81298 C33.33932 71.23201 31.71121 73.83698 30.0831 75.6279 C28.455 77.58163 26.82689 78.55849 25.19878 78.88412 C25.36159 79.04693 25.5244 79.04693 25.85002 79.20974 C26.9897 79.53536 28.12937 79.86098 29.26905 80.02379 C30.40873 80.1866 31.5484 80.1866 32.85089 80.1866 C35.61867 80.1866 38.22364 79.53536 40.66581 78.39568 C42.94516 77.25601 45.0617 75.6279 46.85262 73.18574 C48.80635 70.90639 50.10883 68.30141 51.0857 65.37082 C52.06256 62.60304 52.38819 59.34682 52.38819 55.60217 C52.38819 48.11287 50.76008 41.43763 47.50386 35.57644 C44.41046 29.71525 39.36332 24.50531 32.85089 20.27222 C31.87402 19.78379 30.89716 19.29536 29.75748 18.64412 z" />
<glyph unicode="Q" horiz-adv-x="83.374083129584392" d="M15.04472 76.75768 C17.98936 78.66304 21.28043 80.04876 24.74472 80.74161 C23.359 80.04876 22.1465 79.3559 21.10722 78.31661 C20.06793 77.45054 19.02865 76.23804 18.33579 75.02554 C15.91079 71.21483 14.17865 66.19161 12.96615 59.9559 C11.75365 53.54697 11.234 47.13804 11.234 40.5559 C11.234 33.97376 11.75365 27.56483 12.96615 21.1559 C14.17865 14.74697 15.91079 9.72376 18.33579 5.91304 C19.20186 4.70054 20.06793 3.48804 21.10722 2.44876 C22.1465 1.58268 23.359 0.71661 24.74472 0.02376 C21.28043 0.88983 17.98936 2.10233 14.8715 4.00768 C11.75365 5.91304 8.98222 8.33804 6.21079 11.28268 C2.7465 15.26661 -0.02493 19.77018 -1.93028 24.62018 C-3.66243 29.47018 -4.70171 34.66661 -4.70171 40.38268 C-4.5285 46.09876 -3.48921 51.29518 -1.75707 56.14518 C0.14829 60.99518 2.91972 65.32554 6.384 69.30947 C8.98222 72.42733 11.92686 74.85233 15.04472 76.75768 zM53.32507 4.1809 C50.20722 2.27554 46.91615 0.88983 43.45186 0.19697 C44.83757 0.88983 46.05007 1.58268 47.08936 2.62197 C48.12865 3.48804 49.16793 4.70054 49.86079 5.91304 C52.28579 9.72376 54.01793 14.74697 55.23043 20.98268 C56.44293 27.39161 56.96257 33.80054 56.96257 40.38268 C56.96257 46.96483 56.44293 53.37376 55.23043 59.78268 C54.01793 66.19161 52.28579 71.21483 49.86079 75.02554 C48.99472 76.23804 48.12865 77.45054 47.08936 78.48983 C46.05007 79.3559 44.83757 80.22197 43.45186 80.91483 C46.91615 80.04876 50.20722 78.83626 53.32507 76.9309 C56.44293 75.02554 59.21436 72.60054 61.98579 69.6559 C65.45007 65.67197 68.2215 61.1684 70.12686 56.3184 C71.859 51.4684 72.89829 46.27197 72.89829 40.5559 C72.89829 34.83983 71.859 29.6434 70.12686 24.7934 C68.2215 19.9434 65.45007 15.43983 61.98579 11.62911 C59.38757 8.51126 56.44293 6.08626 53.32507 4.1809 zM55.92329 -3.96017 C60.08043 -3.96017 63.71793 -5.5191 66.66257 -8.46374 C69.60722 -11.40839 70.99293 -15.04589 71.16615 -19.20303 C60.60007 -19.20303 63.3715 -19.20303 42.23936 -19.20303 C38.08222 -19.20303 34.44472 -17.6441 31.50007 -14.69946 C28.38222 -11.75482 26.9965 -8.11732 26.9965 -3.96017 C37.56257 -3.96017 34.79115 -3.96017 55.92329 -3.96017 z" />
<glyph unicode="R" horiz-adv-x="68.621295574840815" d="M13.23998 -1.13253 C8.40264 -1.13253 1.39683 -1.13253 -7.94424 -1.13253 C-7.94424 0.53551 -7.94424 1.03593 -7.94424 4.37203 C-6.10938 4.37203 -3.44051 4.37203 0.0624 4.37203 C0.0624 23.55459 0.0624 36.39856 0.0624 74.76369 C-1.77246 74.76369 -4.44134 74.76369 -7.94424 74.76369 C-7.94424 76.43173 -7.94424 76.93215 -7.94424 80.26825 C-3.2737 80.10144 3.7321 80.10144 13.23998 80.10144 C13.23998 57.74959 13.23998 43.57117 13.23998 -1.13253 zM29.25325 36.39856 C28.08562 35.89815 26.75118 35.39773 25.24993 35.06412 C26.25076 35.56454 27.25159 35.89815 28.25242 36.39856 C29.25325 36.89898 30.25408 37.89981 31.42171 39.23425 C33.08976 41.0691 34.4242 43.73798 35.42503 47.57449 C36.42586 51.2442 36.92627 54.7471 36.92627 57.58278 C36.92627 59.75125 36.75947 62.25332 36.59266 64.9222 C36.25905 67.75788 35.59183 69.92634 34.75781 71.59439 C33.25657 74.09647 31.58852 75.93132 29.92047 77.26576 C28.25242 78.6002 26.58437 79.43422 24.91632 79.60103 C25.08313 79.60103 25.24993 79.76783 25.58354 79.93464 C26.75118 80.26825 27.91881 80.43505 29.08644 80.60186 C29.92047 80.60186 31.25491 80.60186 32.42254 80.60186 C35.42503 80.60186 38.09391 80.10144 40.42918 79.26742 C42.93125 78.6002 44.93291 77.26576 46.93457 75.59771 C48.93623 73.92966 50.27066 72.09481 51.27149 69.92634 C52.27232 67.75788 52.60593 65.42261 52.60593 62.75373 C52.60593 57.41598 50.93788 52.57864 47.60179 48.40851 C44.26569 44.23839 39.09474 40.56869 32.42254 37.5662 C31.42171 37.23259 30.42088 36.89898 29.25325 36.39856 zM49.10303 -0.46531 C45.60013 0.53551 42.76444 2.87078 40.92959 6.04008 C36.42586 13.37949 34.92462 16.04837 26.08396 30.894 C30.58769 31.06081 34.75781 31.22761 37.59349 30.56039 C41.0964 29.72637 43.09805 27.72471 44.93291 24.72222 C49.10303 17.71642 51.4383 13.87991 60.44576 -0.96573 C55.77523 -0.79892 52.60593 -1.29934 49.10303 -0.46531 z" />
<glyph unicode="S" horiz-adv-x="63.79597748584473" d="M29.97054 70.40338 C29.97054 71.55785 30.30039 72.87725 30.79516 74.19665 C31.28994 75.35113 31.94964 76.34068 32.93919 77.33022 C33.76381 78.15485 34.91829 78.97947 36.07276 79.47425 C37.39216 79.96902 38.71156 80.29887 39.86603 80.29887 C40.52573 80.29887 41.35036 80.29887 42.01006 80.13395 C42.66976 79.96902 43.16453 79.8041 43.65931 79.47425 C44.97871 78.97947 46.13318 78.31977 46.95781 77.33022 C47.78243 76.5056 48.60706 75.35113 49.10183 74.19665 C49.59661 72.87725 49.92646 71.55785 49.92646 70.40338 C49.92646 69.08398 49.59661 67.76458 49.10183 66.6101 C48.60706 65.29071 47.94736 64.13623 46.95781 63.31161 C46.13318 62.48698 44.97871 61.82728 43.65931 61.16758 C42.50483 60.67281 41.18543 60.34296 39.86603 60.34296 C38.71156 60.34296 37.39216 60.67281 36.07276 61.16758 C34.91829 61.82728 33.76381 62.48698 32.93919 63.31161 C31.94964 64.13623 31.28994 65.29071 30.79516 66.6101 C30.30039 67.76458 29.97054 69.08398 29.97054 70.40338 zM-0.0458 10.04086 C-0.0458 11.19533 0.28405 12.51473 0.77883 13.83413 C1.2736 14.9886 1.9333 16.14308 2.92285 16.9677 C3.9124 17.79233 4.90195 18.61695 6.05643 19.11173 C7.37582 19.6065 8.69522 19.93635 9.8497 19.93635 C10.5094 19.93635 11.33402 19.93635 11.99372 19.77143 C12.65342 19.6065 13.1482 19.44158 13.64297 19.11173 C14.96237 18.61695 16.11685 17.95725 16.94147 16.9677 C17.76609 15.97815 18.59072 14.9886 19.08549 13.83413 C19.58027 12.51473 19.91012 11.19533 19.91012 10.04086 C19.91012 8.72146 19.58027 7.40206 19.08549 6.24758 C18.59072 4.92818 17.93102 3.77371 16.94147 2.94908 C16.11685 2.12446 14.96237 1.46476 13.64297 0.80506 C12.4885 0.31028 11.1691 -0.01956 9.8497 -0.01956 C8.69522 -0.01956 7.37582 0.31028 6.05643 0.80506 C4.90195 1.46476 3.74748 2.12446 2.92285 2.94908 C1.9333 3.93863 1.2736 4.92818 0.77883 6.24758 C0.28405 7.56698 -0.0458 8.72146 -0.0458 10.04086 zM48.11228 27.35797 L48.77198 26.53335 C48.60706 26.8632 48.44213 27.02812 48.11228 27.35797 zM49.10183 4.43341 C46.46303 2.12446 43.32946 0.64013 40.03096 0.14536 C42.17498 2.78416 43.32946 6.24758 42.83468 9.87593 C42.50483 12.01995 41.68021 13.99905 40.52573 15.81323 C40.19588 16.308 39.76075 16.58831 39.59582 16.91816 L38.87649 17.62511 L38.71156 17.79233 L6.38627 52.26164 C6.00145 52.70144 5.61663 53.14124 5.2318 53.58104 C-1.03535 60.50788 -0.21072 70.89815 6.71612 77.00038 C9.35492 79.30932 12.4885 80.79365 15.787 81.28842 C13.64297 78.64962 12.65342 75.1862 13.1482 71.55785 C13.47805 69.41383 14.30267 67.43473 15.45715 65.62056 C15.62207 65.29071 15.787 64.96086 16.11685 64.79593 L16.11685 64.63101 L49.76153 28.8423 L50.2563 28.34752 C50.42123 28.1826 50.58615 28.01767 50.916 27.68782 C53.38988 24.55425 54.70928 20.76098 54.70928 16.9677 C54.70928 12.3498 52.73018 7.89683 49.10183 4.43341 zM42.66976 10.04086 C42.33991 12.18488 41.51528 14.16398 40.36081 15.97815 C39.30985 17.55459 39.00161 17.95725 38.54664 17.95725 L6.38627 52.26164 C6.00145 52.70144 5.61663 53.14124 5.2318 53.58104 C-1.03535 60.50788 -0.21072 70.89815 6.71612 77.00038 C9.35492 79.30932 12.4885 80.79365 15.787 81.28842 C13.64297 78.64962 12.65342 75.1862 13.1482 71.55785 C13.47805 69.41383 14.30267 67.43473 15.45715 65.62056 C15.62207 65.29071 15.787 64.96086 16.11685 64.79593 L16.11685 64.63101 L49.76153 28.8423 L50.2563 28.34752 C50.42123 28.1826 50.58615 28.01767 50.916 27.68782 C53.5548 24.55425 54.8742 20.76098 54.8742 16.9677 C54.8742 12.3498 52.8951 7.89683 49.26676 4.43341 C46.46303 2.28938 43.32946 0.80506 39.86603 0.31028 C42.01006 2.94908 43.16453 6.41251 42.66976 10.04086 z" />
<glyph unicode="T" horiz-adv-x="74.364303178484192" d="M38.44063 45.30913 C38.44063 35.33861 38.44063 19.90039 38.44063 -0.04065 C33.777 -0.04065 27.02278 -0.04065 18.01715 -0.04065 C18.01715 1.40669 18.01715 2.69321 18.01715 5.42706 C19.78611 5.42706 22.35915 5.42706 25.73626 5.42706 C25.73626 21.83017 25.73626 47.23891 25.73626 80.20595 L28.47011 80.20595 C30.07826 80.20595 33.45537 80.20595 38.44063 80.20595 C38.44063 72.32602 38.44063 60.90817 38.44063 45.30913 zM16.89145 80.20595 L0.00589 66.6975 L0.00589 80.20595 L16.89145 80.20595 zM65.13589 80.20595 L65.13589 66.6975 L48.08952 80.20595 L65.13589 80.20595 z" />
<glyph unicode="U" horiz-adv-x="67.5855745721272" d="M0.17999 80.40499 C2.92766 80.40499 7.29161 80.40499 12.94859 80.40499 C12.94859 68.44453 12.94859 50.3422 12.94859 26.42127 C12.94859 17.04685 12.94859 18.66313 12.94859 -0.08571 C8.09975 -0.08571 4.70557 1.53057 2.92766 4.92476 C1.14975 8.48057 0.17999 12.6829 0.17999 17.53174 C0.17999 34.98755 0.17999 45.49336 0.17999 80.40499 zM35.25324 26.42127 C35.25324 38.38174 35.25324 56.32243 35.25324 80.40499 C39.94045 80.40499 46.72882 80.40499 55.77999 80.40499 C55.77999 78.78871 55.77999 76.52592 55.77999 73.29336 C54.00208 73.29336 51.41603 73.29336 48.02185 73.29336 C48.02185 57.45383 48.02185 49.37243 48.02185 17.53174 C48.02185 12.6829 47.21371 8.48057 45.4358 5.08639 C43.65789 1.6922 40.26371 -0.08571 35.25324 -0.08571 C35.25324 9.28871 35.25324 7.67243 35.25324 26.42127 z" />
<glyph unicode="V" horiz-adv-x="79.584056530266821" d="M52.10505 70.65757 C52.10505 71.79189 52.42914 73.08825 52.91528 74.38461 C53.40141 75.51893 54.0496 76.65325 55.02187 77.46348 C55.8321 78.2737 56.96641 79.08393 58.10073 79.57007 C59.3971 79.89416 60.53141 80.21825 61.82778 80.21825 C62.47596 80.21825 63.28619 80.21825 63.93437 80.0562 C64.58255 79.89416 65.06869 79.73211 65.55482 79.40802 C66.85119 78.92189 67.98551 78.2737 68.79573 77.30143 C69.60596 76.4912 70.41619 75.35689 70.90232 74.22257 C71.38846 72.9262 71.71255 71.62984 71.71255 70.49552 C71.71255 69.19916 71.38846 67.9028 70.90232 66.76848 C70.41619 65.47211 69.76801 64.3378 68.79573 63.52757 C67.98551 62.71734 66.85119 62.06916 65.55482 61.42098 C64.42051 60.93484 63.12414 60.61075 61.82778 60.61075 C60.69346 60.61075 59.3971 60.93484 58.10073 61.42098 C56.96641 62.06916 55.8321 62.71734 55.02187 63.52757 C54.0496 64.49984 53.40141 65.63416 52.91528 66.93052 C52.42914 68.06484 52.10505 69.3612 52.10505 70.65757 zM37.52096 0.05985 C28.44641 16.58849 15.64482 39.92303 -1.04586 69.90144 C-2.66631 72.98031 -4.93495 77.19349 -6.71745 80.27235 C-5.25904 80.27235 -3.31449 80.27235 -0.55972 80.27235 C2.3571 80.27235 5.76005 80.11031 8.51482 78.81394 C11.10755 77.51758 13.21414 75.57303 14.51051 72.98031 C16.77914 68.92917 20.1821 62.93349 24.55732 54.83122 C26.66391 50.94212 29.0946 46.5669 31.84937 41.54349 C36.06255 34.41349 40.76187 25.82508 46.27141 15.94031 C44.32687 12.37531 40.76187 5.73144 37.52096 0.05985 z" />
<glyph unicode="W" horiz-adv-x="119.64883660681039" d="M89.20567 70.70423 C89.2017 71.84221 89.52229 73.1439 90.00546 74.44615 C90.48919 75.58583 91.13549 76.72608 92.10807 77.54233 C92.91807 78.358 94.05321 79.17482 95.18949 79.6665 C96.4889 79.99617 97.78832 80.32585 98.9263 80.32982 C99.57657 80.33209 100.38941 80.33493 101.04025 80.17463 C101.6911 80.01433 102.17937 79.85347 102.66821 79.53003 C103.97046 79.04687 105.11071 78.40057 105.92696 77.42799 C106.7432 76.45542 107.55945 75.48284 108.05113 74.34657 C108.54337 73.04772 108.87305 71.74831 108.87702 70.61033 C108.88156 69.30978 108.56096 68.0081 108.07723 66.86842 C107.59407 65.56617 106.94776 64.42592 105.97519 63.60967 C105.16519 62.79399 104.02948 62.13974 102.7312 61.48493 C101.59492 60.99325 100.29551 60.66358 98.99496 60.65904 C97.85698 60.65506 96.5553 60.97566 95.25305 61.45883 C94.1128 62.10513 92.97255 62.75143 92.15687 63.56144 C91.34062 64.53401 90.52381 65.66915 90.03156 66.968 C89.53988 68.10427 89.21021 69.40369 89.20567 70.70423 zM37.19462 0.05631 C28.0329 16.60652 15.10827 39.97155 -1.74126 69.98827 C-3.37773 73.0714 -5.66844 77.29023 -7.46748 80.37279 C-6.00436 80.3779 -4.05354 80.38471 -1.28987 80.39435 C1.63636 80.40457 5.05086 80.25392 7.81907 78.96302 C10.4247 77.67155 12.5449 75.7281 13.85453 73.13155 C16.14468 69.07528 19.57961 63.07216 23.99733 54.95906 C26.12434 51.0648 28.57819 46.68396 31.35945 41.65398 C35.6112 34.51572 40.35576 25.91605 45.9177 16.01867 C43.97937 12.43535 40.42613 5.75756 37.19462 0.05631 zM78.97472 0.20215 C69.813 16.75236 56.88837 40.11739 40.03884 70.13411 C38.40294 73.05467 35.94909 77.43551 34.31262 80.51863 C35.77574 80.52374 37.72656 80.53055 40.49023 80.5402 C43.41646 80.55041 46.83096 80.39976 49.59917 79.10886 C52.2048 77.81739 54.325 75.87394 55.63463 73.27739 C57.92478 69.22112 61.35971 63.218 65.77743 55.1049 C67.90444 51.21064 70.35829 46.8298 73.13955 41.79982 C77.3913 34.66156 82.13586 26.06189 87.6978 16.16451 C85.75947 12.58119 82.20623 5.9034 78.97472 0.20215 z" />
<glyph unicode="X" horiz-adv-x="70.582417582417634" d="M44.31599 -0.013 C35.24807 16.66549 22.45583 39.98299 5.77734 69.9395 C4.15807 72.85418 1.89109 77.22621 0.10989 80.30283 C1.56724 80.30283 3.51036 80.30283 6.26312 80.30283 C9.17781 80.30283 12.57828 80.1409 15.33104 78.84549 C17.92187 77.55007 20.02692 75.60694 21.32234 73.01611 C23.58932 68.96793 26.98979 62.97663 31.36182 54.88028 C33.46687 50.99403 35.89578 46.622 38.64854 41.60226 C42.85864 34.47746 56.9463 9.86455 62.28989 -0.013 C54.35547 -0.17493 54.35547 -0.17493 44.31599 -0.013 zM42.53479 80.30283 L62.28989 80.30283 L52.41234 62.167 L42.53479 80.30283 zM19.865 -0.013 L0.10989 -0.013 L9.98744 18.12283 L19.865 -0.013 z" />
<glyph unicode="Y" horiz-adv-x="78.431701550283378" d="M48.26783 70.63885 C48.26783 71.77295 48.59185 73.06905 49.07789 74.36516 C49.56393 75.49925 50.21198 76.63334 51.18406 77.4434 C51.99413 78.25347 53.12822 79.06354 54.26231 79.54958 C55.55842 79.8736 56.85452 80.19763 57.98861 80.19763 C58.63667 80.19763 59.44673 80.19763 60.09478 80.03562 C60.74284 79.8736 61.22888 79.71159 61.71492 79.38756 C63.01102 78.90152 64.14511 78.25347 64.95518 77.28139 C65.76524 76.47133 66.57531 75.33723 67.06135 74.20314 C67.54739 72.90704 67.87141 71.61093 67.87141 70.47684 C67.87141 69.18074 67.54739 67.88463 67.06135 66.75054 C66.57531 65.45443 65.92726 64.32034 64.95518 63.51028 C64.14511 62.70021 63.01102 62.05216 61.71492 61.40411 C60.58082 60.91807 59.28472 60.59404 57.98861 60.59404 C56.85452 60.59404 55.55842 60.91807 54.26231 61.40411 C53.12822 62.05216 51.99413 62.70021 51.18406 63.51028 C50.374 64.48235 49.56393 65.61645 49.07789 66.91255 C48.59185 68.04664 48.26783 69.34275 48.26783 70.63885 zM12.94896 -9.46333 C12.94896 -8.32924 13.27299 -7.03313 13.75903 -5.73703 C14.24507 -4.60293 14.89312 -3.46884 15.8652 -2.65878 C16.83728 -1.84871 17.80936 -1.03864 18.94345 -0.5526 C20.23955 -0.06657 21.53566 0.25746 22.66975 0.25746 C23.3178 0.25746 24.12787 0.25746 24.77592 0.09545 C25.42397 -0.06657 25.91001 -0.22858 26.39605 -0.5526 C27.69216 -1.03864 28.82625 -1.6867 29.63632 -2.65878 C30.44638 -3.46884 31.25645 -4.60293 31.74249 -5.73703 C32.22853 -7.03313 32.55255 -8.32924 32.55255 -9.46333 C32.55255 -10.75943 32.22853 -12.05554 31.74249 -13.18963 C31.25645 -14.48573 30.6084 -15.61983 29.63632 -16.42989 C28.82625 -17.23996 27.69216 -17.88801 26.39605 -18.53606 C25.26196 -19.0221 23.96586 -19.34613 22.66975 -19.34613 C21.53566 -19.34613 20.23955 -19.0221 18.94345 -18.53606 C17.80936 -17.88801 16.67527 -17.23996 15.8652 -16.42989 C14.89312 -15.61983 14.24507 -14.48573 13.75903 -13.18963 C13.27299 -12.05554 12.94896 -10.75943 12.94896 -9.46333 zM38.061 -0.06657 C28.98826 16.45877 16.18923 39.78866 -0.49813 69.76109 C-2.11826 72.83934 -4.38644 77.05168 -6.16859 80.12993 C-4.71047 80.12993 -2.76631 80.12993 -0.01209 80.12993 C2.90415 80.12993 6.30643 79.96792 9.06065 78.67182 C11.65286 77.37571 13.75903 75.43155 15.05513 72.83934 C17.32332 68.78901 20.72559 62.79453 25.09995 54.69387 C27.20612 50.80556 29.63632 46.4312 32.39054 41.4088 C36.60288 34.28022 41.30126 25.69352 46.80971 15.81072 C44.86555 12.24643 41.30126 5.60389 38.061 -0.06657 z" />
<glyph unicode="Z" horiz-adv-x="72.368131868131854" d="M-0.06961 0.07885 C5.24288 9.8989 19.24853 34.20755 23.43412 41.45185 C26.17086 46.44237 28.58562 50.78895 30.67842 54.65258 C35.025 62.7018 38.40568 68.65823 40.65946 72.68284 C41.94733 75.25859 44.04013 77.1904 46.61588 78.47828 C49.35262 79.76615 52.73329 79.92714 55.63101 79.92714 C58.36775 79.92714 60.29956 79.92714 61.74842 79.92714 C60.13858 76.86843 57.72381 72.52185 56.11397 69.62413 C39.69355 39.68102 26.8148 16.49926 17.79967 0.07885 C7.81863 -0.08214 7.81863 -0.08214 -0.06961 0.07885 zM62.07039 0.06412 L48.5477 0.06412 L62.07039 23.08489 L62.07039 0.06412 zM0.05455 80.25647 L13.57724 80.25647 L0.05455 57.2357 L0.05455 80.25647 z" />
<glyph unicode="a" horiz-adv-x="57.17359413202928" d="M39.21208 42.35013 L39.21208 6.00008 L46.18146 6.00008 L46.18146 -0.01271 L26.9132 -0.01271 L26.9132 53.55578 L27.86978 53.55578 C30.87617 53.55578 33.60926 52.46255 35.79573 50.27608 C38.11885 48.08961 39.21208 45.35653 39.21208 42.35013 zM14.62971 43.27599 C13.54501 42.19129 11.91202 41.51488 10.37802 41.51488 C8.84403 41.51488 7.21104 42.19129 6.12634 43.27599 C5.04164 44.36069 4.36523 45.99368 4.36523 47.52767 C4.36523 49.06167 5.04164 50.69466 6.12634 51.77936 C7.21104 52.86406 8.84403 53.54046 10.37802 53.54046 C11.91202 53.54046 13.54501 52.86406 14.62971 51.77936 C15.71441 50.69466 16.39081 49.06167 16.39081 47.52767 C16.39081 45.99368 15.71441 44.36069 14.62971 43.27599 zM8.19409 0.97016 C4.09446 2.47336 0.6781 5.75306 -0.00517 10.26265 C-0.55179 14.22563 0.54145 18.32526 3.00122 21.60496 C7.23751 27.07113 14.20688 29.80422 20.49298 31.30742 C18.16985 30.21418 15.71008 29.12095 14.07022 27.07113 C11.88376 24.33805 11.06383 19.96511 10.92718 16.54875 C10.65387 12.99574 10.79052 9.03276 12.70368 5.88971 C14.20688 3.42994 16.39335 1.92674 18.85313 0.56019 C18.16985 0.42354 17.34993 0.28689 16.66666 0.15023 C15.71008 0.01358 14.61684 0.01358 13.66026 0.01358 C11.7471 0.15023 9.97059 0.28689 8.19409 0.97016 z" />
<glyph unicode="b" horiz-adv-x="57.835942966749883" d="M12.0131 80.1672 L12.0131 0.18103 L-6.99216 0.18103 L-6.99216 6.06035 L-0.01901 6.06035 L-0.01901 69.22892 C-0.01901 72.10022 1.21155 74.69806 3.26247 76.88572 C5.3134 79.07337 8.04797 80.1672 11.19273 80.1672 C11.46618 80.1672 11.73964 80.1672 12.0131 80.1672 zM25.0023 53.50514 C38.81188 52.13786 49.33998 40.51593 49.33998 26.56963 C49.33998 12.62332 38.81188 1.0014 25.0023 -0.36589 L23.90848 -0.50262 L24.86558 0.0443 C30.47144 3.59924 34.43657 14.53752 34.43657 26.56963 C34.43657 38.73846 30.47144 49.54002 24.86558 53.09496 L23.90848 53.64187 C24.27309 53.59629 24.6377 53.55072 25.0023 53.50514 z" />
<glyph unicode="c" horiz-adv-x="44.508557457212646" d="M30.64619 41.8269 C29.57752 40.75823 27.96866 40.09182 26.45734 40.09182 C24.94601 40.09182 23.33715 40.75823 22.26848 41.8269 C21.19981 42.89557 20.5334 44.50443 20.5334 46.01576 C20.5334 47.52708 21.19981 49.13594 22.26848 50.20461 C23.33715 51.27328 24.94601 51.93969 26.45734 51.93969 C27.96866 51.93969 29.57752 51.27328 30.64619 50.20461 C31.71486 49.13594 32.38127 47.52708 32.38127 46.01576 C32.38127 44.50443 31.71486 42.89557 30.64619 41.8269 zM17.91585 0.55299 L18.88021 -0.13584 L17.77808 0.00193 C4.00148 1.51735 -6.46873 12.95193 -6.46873 26.86629 C-6.46873 40.78065 4.00148 52.35299 17.64031 53.73065 L18.74244 53.86841 L17.91585 53.45512 C12.26744 49.8732 8.40999 38.98969 8.40999 27.00405 C8.40999 14.88065 12.26744 3.99714 17.91585 0.55299 z" />
<glyph unicode="d" horiz-adv-x="62.602689486552549" d="M24.17902 53.617 L23.21787 53.06777 C17.5883 49.4978 13.6064 38.65057 13.6064 26.43027 C13.6064 14.34728 17.5883 3.36275 23.21787 -0.20723 L24.17902 -0.75645 L23.08056 -0.61915 C9.07528 0.89123 -1.36003 12.42499 -1.36003 26.43027 C-1.36003 40.43556 9.07528 52.10662 23.08056 53.47969 C23.44671 53.52546 23.81287 53.57123 24.17902 53.617 zM36.94854 80.2545 C39.96929 80.2545 42.71542 79.15604 44.91233 76.95914 C47.10924 74.76223 48.20769 72.1534 48.20769 69.26996 L48.20769 5.83427 L55.21033 5.83427 L55.21033 -0.06992 L36.1247 -0.06992 L36.1247 80.2545 C36.39931 80.2545 36.67393 80.2545 36.94854 80.2545 z" />
<glyph unicode="e" horiz-adv-x="48.76528117359419" d="M38.56089 42.0114 L38.56089 39.81508 C38.56089 36.52061 37.46273 33.77521 35.12915 31.44163 C32.93283 29.24531 30.05017 28.14715 26.89296 28.14715 L26.61843 28.14715 L26.61843 28.42169 C26.61843 33.91248 26.61843 42.14866 26.75569 52.8557 L26.75569 53.13024 L27.57931 53.13024 C30.59925 53.13024 33.20737 52.03209 35.26642 49.83577 C37.46273 47.63945 38.56089 45.03133 38.56089 42.0114 zM22.08852 0.00686 L20.99037 0.14413 C7.26339 1.51682 -3.16911 13.04748 -3.16911 26.91172 C-3.16911 40.77597 7.26339 52.30663 20.99037 53.67932 L22.08852 53.81659 L21.12764 53.26751 C15.49958 49.83577 11.65602 38.99146 11.65602 26.91172 C11.65602 14.83199 15.49958 3.98768 21.12764 0.55593 C21.44793 0.37291 21.76823 0.18988 22.08852 0.00686 z" />
<glyph unicode="f" horiz-adv-x="36.305388851843645" d="M0.14963 6.3426 L0.14963 38.67093 L0.14963 44.51176 L0.14963 69.23343 C0.14963 72.22176 1.2363 74.8026 3.40963 76.97593 C5.58296 79.14926 8.1638 80.23593 11.28796 80.23593 L12.10296 80.23593 L12.10296 44.37593 L22.29046 44.37593 L22.29046 38.5351 L12.10296 38.5351 L12.10296 0.36593 L0.14963 0.36593 L0.14963 5.66343 M26.14889 70.40084 C25.09521 69.34716 23.50892 68.6901 22.0188 68.6901 C20.52867 68.6901 18.94238 69.34716 17.8887 70.40084 C16.83503 71.45451 16.17796 73.0408 16.17796 74.53093 C16.17796 76.02106 16.83503 77.60734 17.8887 78.66102 C18.94238 79.7147 20.52867 80.37176 22.0188 80.37176 C23.50892 80.37176 25.09521 79.7147 26.14889 78.66102 C27.20257 77.60734 27.85963 76.02106 27.85963 74.53093 C27.85963 73.0408 27.20257 71.45451 26.14889 70.40084 z" />
<glyph unicode="g" horiz-adv-x="65.938875305623469" d="M35.73906 -16.57599 C38.82555 -17.55805 40.92997 -19.52218 42.47322 -22.32808 C43.87617 -24.99369 44.01647 -27.93988 43.1747 -30.88608 L43.0344 -31.16667 L42.75381 -31.02638 C35.59876 -28.78165 24.79605 -25.27428 9.78448 -20.50425 C6.83828 -19.52218 4.59356 -17.55805 3.19061 -14.89245 C1.78766 -12.08655 1.64736 -9.14035 2.34884 -6.19415 L2.48913 -5.91356 L2.76972 -6.05386 C10.06507 -8.43887 21.14837 -11.94625 35.73906 -16.57599 zM36.95941 -44.03151 C35.89643 -45.09449 34.29614 -45.75735 32.79286 -45.75735 C31.28958 -45.75735 29.68929 -45.09449 28.62631 -44.03151 C27.56333 -42.96853 26.90047 -41.36824 26.90047 -39.86496 C26.90047 -38.36168 27.56333 -36.76139 28.62631 -35.69841 C29.68929 -34.63543 31.28958 -33.97257 32.79286 -33.97257 C34.29614 -33.97257 35.89643 -34.63543 36.95941 -35.69841 C38.02239 -36.76139 38.68525 -38.36168 38.68525 -39.86496 C38.68525 -41.36824 38.02239 -42.96853 36.95941 -44.03151 zM57.0216 43.65289 C55.95862 42.58991 54.35833 41.92704 52.85505 41.92704 C51.35177 41.92704 49.75148 42.58991 48.6885 43.65289 C47.62552 44.71587 46.96266 46.31616 46.96266 47.81944 C46.96266 49.32272 47.62552 50.92301 48.6885 51.98599 C49.75148 53.04897 51.35177 53.71183 52.85505 53.71183 C54.35833 53.71183 55.95862 53.04897 57.0216 51.98599 C58.08458 50.92301 58.74744 49.32272 58.74744 47.81944 C58.74744 46.31616 58.08458 44.71587 57.0216 43.65289 zM19.60513 -0.16147 C5.71592 1.24148 -4.66591 12.88597 -4.66591 26.77518 C-4.66591 40.80468 5.71592 52.30888 19.60513 53.71183 L20.72749 53.85212 L19.74542 53.29094 C14.13362 49.78357 10.20536 38.84055 10.20536 26.77518 C10.20536 14.70981 14.13362 3.76679 19.74542 0.25942 L20.72749 -0.30176 C20.35337 -0.255 19.97925 -0.20823 19.60513 -0.16147 zM25.77811 53.71183 C39.52702 52.30888 50.04915 40.80468 50.04915 26.77518 C50.04915 12.88597 39.66732 1.24148 25.77811 -0.16147 L24.65575 -0.30176 L25.63782 0.25942 C31.24962 3.76679 35.17788 14.70981 35.17788 26.77518 C35.17788 38.84055 31.24962 49.78357 25.63782 53.29094 L24.65575 53.85212 C25.02987 53.80536 25.40399 53.75859 25.77811 53.71183 z" />
<glyph unicode="h" horiz-adv-x="54.300733496332555" d="M27.8914 53.45682 C30.94357 53.45682 33.57953 52.34694 35.79929 50.12718 C38.01905 47.90742 39.12893 45.27146 39.12893 42.21929 L39.12893 0.04388 L38.85146 0.04388 C36.35423 -0.09486 32.46965 -0.09486 27.19773 -0.09486 L26.92026 -0.09486 L26.92026 53.45682 C27.24397 53.45682 27.56769 53.45682 27.8914 53.45682 zM12.21436 0.04388 L12.21436 -0.23359 L-6.93106 -0.23359 L-6.93106 5.73201 L0.00569 5.73201 C0.00569 13.91737 0.00569 19.32803 0.00569 25.84857 C0.00569 35.14381 0.00569 46.2426 0.00569 69.82753 C0.00569 72.8797 1.11556 75.51566 3.33532 77.73542 C5.55508 79.95518 8.19104 81.06506 11.38195 81.06506 L12.21436 81.06506 L12.21436 80.92633 C12.21436 71.07615 12.21436 63.7232 12.21436 54.9829 C12.21436 42.63549 12.21436 27.92959 12.21436 0.04388 z" />
<glyph unicode="i" horiz-adv-x="31.119804400977955" d="M19.23469 6.00598 L19.23469 -0.01047 L-0.04531 -0.01047 L0.04515 36.14957 C0.04515 39.43127 1.13905 42.30276 3.46359 44.6273 C5.37792 46.40489 7.56572 47.63553 10.16373 48.04574 C10.71068 48.18248 11.39437 48.18248 12.07806 48.18248 L12.35153 48.18248 L12.26107 6.00598 C14.58561 6.00598 16.91015 6.00598 19.23469 6.00598 zM10.67774 55.35284 C9.59238 54.26748 7.9584 53.59066 6.42346 53.59066 C4.88853 53.59066 3.25455 54.26748 2.16919 55.35284 C1.08383 56.4382 0.40701 58.07218 0.40701 59.60711 C0.40701 61.14205 1.08383 62.77603 2.16919 63.86139 C3.25455 64.94675 4.88853 65.62357 6.42346 65.62357 C7.9584 65.62357 9.59238 64.94675 10.67774 63.86139 C11.7631 62.77603 12.43992 61.14205 12.43992 59.60711 C12.43992 58.07218 11.7631 56.4382 10.67774 55.35284 z" />
<glyph unicode="j" horiz-adv-x="37.9951100244499" d="M20.28924 -0.3176 C20.28924 -3.47897 19.18964 -6.22799 16.99042 -8.70211 C14.5163 -11.03878 11.76728 -12.13838 8.60591 -12.13838 L8.33101 -12.13838 L8.33101 37.06343 C8.33101 40.08735 9.43062 42.69892 11.62983 44.89813 C13.41669 46.685 15.47846 47.78461 17.81513 48.05951 C18.36493 48.19696 18.91473 48.19696 19.46454 48.19696 L20.28924 48.19696 C20.28924 33.35225 20.28924 14.52711 20.28924 -0.3176 zM18.51787 55.33456 C17.42685 54.24353 15.78434 53.56318 14.2414 53.56318 C12.69846 53.56318 11.05595 54.24353 9.96493 55.33456 C8.87391 56.42558 8.19356 58.06809 8.19356 59.61103 C8.19356 61.15397 8.87391 62.79648 9.96493 63.8875 C11.05595 64.97852 12.69846 65.65887 14.2414 65.65887 C15.78434 65.65887 17.42685 64.97852 18.51787 63.8875 C19.60889 62.79648 20.28924 61.15397 20.28924 59.61103 C20.28924 58.06809 19.60889 56.42558 18.51787 55.33456 zM2.57356 -10.36701 C1.48253 -11.45803 -0.15997 -12.13838 -1.70291 -12.13838 C-3.24585 -12.13838 -4.88836 -11.45803 -5.97938 -10.36701 C-7.07041 -9.27599 -7.75076 -7.63348 -7.75076 -6.09054 C-7.75076 -4.5476 -7.07041 -2.90509 -5.97938 -1.81407 C-4.88836 -0.72305 -3.24585 -0.0427 -1.70291 -0.0427 C-0.15997 -0.0427 1.48253 -0.72305 2.57356 -1.81407 C3.66458 -2.90509 4.34493 -4.5476 4.34493 -6.09054 C4.34493 -7.63348 3.66458 -9.27599 2.57356 -10.36701 z" />
<glyph unicode="k" horiz-adv-x="55.456913456913469" d="M12.22162 80.33577 L12.22162 0.20021 L-6.89079 0.20021 L-6.89079 6.07044 L0.07159 6.07044 L0.07159 69.27789 C0.07159 72.28126 1.16373 74.87509 3.48452 77.05936 C5.66879 79.24364 8.26262 80.33577 11.40251 80.33577 C11.67555 80.33577 11.94858 80.33577 12.22162 80.33577 zM35.03537 43.32424 C33.95175 42.24063 32.32041 41.5649 30.78795 41.5649 C29.25549 41.5649 27.62414 42.24063 26.54053 43.32424 C25.45692 44.40785 24.78119 46.0392 24.78119 47.57166 C24.78119 49.10412 25.45692 50.73546 26.54053 51.81908 C27.62414 52.90269 29.25549 53.57841 30.78795 53.57841 C32.32041 53.57841 33.95175 52.90269 35.03537 51.81908 C36.11898 50.73546 36.7947 49.10412 36.7947 47.57166 C36.7947 46.0392 36.11898 44.40785 35.03537 43.32424 zM23.82557 27.2306 L44.84921 0.06369 L29.55929 0.06369 L29.42278 0.06369 L29.42278 0.20021 L13.99634 19.99519 L14.26937 20.13171 L23.55254 27.50364 L23.82557 27.2306 z" />
<glyph unicode="l" horiz-adv-x="36.541564792176018" d="M4.98221 69.38494 C4.98221 72.41429 6.08379 75.03055 8.42465 77.23372 C10.62782 79.43688 13.24408 80.53846 16.27343 80.53846 L17.23731 80.53846 L17.23731 5.76854 L24.12221 5.76854 L24.12221 -0.15247 L17.23731 -0.15247 L16.68652 -0.15247 L4.98221 -0.15247 L4.98221 5.35544 L4.98221 5.76854 C4.98221 26.974 4.98221 48.17947 4.98221 69.38494 z" />
<glyph unicode="m" horiz-adv-x="81.779951100244489" d="M12.38194 53.54896 L12.38194 0.20901 L-6.85318 0.20901 L-6.85318 6.21146 L0.10421 6.21146 L0.10421 41.54406 C0.10421 44.81812 1.33198 47.68293 3.65111 50.00206 C5.83382 52.32118 8.69862 53.54896 12.10911 53.54896 C12.20005 53.54896 12.291 53.54896 12.38194 53.54896 zM39.52938 47.27367 L39.52938 0.07259 L27.52449 0.07259 L27.52449 47.27367 C27.52449 48.9107 28.07016 50.41131 29.29794 51.63909 C30.52571 52.86686 31.8899 53.41254 33.66335 53.41254 C35.16397 53.41254 36.52816 52.86686 37.75593 51.63909 C38.98371 50.41131 39.52938 49.04712 39.52938 47.27367 zM63.12992 50.00206 C65.44905 47.68293 66.67682 44.81812 66.67682 41.54406 L66.67682 0.07259 L54.53551 0.07259 L54.53551 53.54896 L54.80834 53.54896 C58.08241 53.54896 60.81079 52.32118 63.12992 50.00206 z" />
<glyph unicode="n" horiz-adv-x="57.973105134474395" d="M13.65046 53.5617 L13.65046 0.1477 L-5.61137 0.1477 L-5.61137 6.15849 L1.49229 6.15849 L1.49229 41.54014 C1.49229 44.81875 2.58516 47.68753 4.9075 50.00988 C7.22985 52.33223 10.09863 53.5617 13.37724 53.5617 C13.46832 53.5617 13.55939 53.5617 13.65046 53.5617 zM30.13121 44.3481 L17.3389 44.3481 L29.69511 52.3433 C29.84048 52.48867 29.98584 52.48867 30.13121 52.63403 C30.13121 52.63403 30.27658 52.63403 30.27658 52.63403 C35.0737 55.25064 41.17912 52.92477 42.63279 47.54618 C42.77816 46.81934 42.92353 46.09251 42.92353 45.36567 C42.92353 45.2203 42.92353 45.07494 42.92353 44.92957 C42.92353 44.7842 42.92353 44.49347 42.92353 44.3481 L43.0689 0.0111 L30.13121 0.0111 C30.13121 14.7901 30.13121 29.5691 30.13121 44.3481 z" />
<glyph unicode="o" horiz-adv-x="63.234718826405924" d="M12.20487 26.77333 C12.20487 14.88114 16.03224 4.08247 21.63661 0.52848 L22.59345 -0.01828 L21.49992 0.11841 C7.83072 1.48533 -2.55786 12.96745 -2.55786 26.77333 C-2.55786 40.57922 7.83072 52.06134 21.49992 53.42826 L22.59345 53.56495 L21.63661 53.01818 C16.03224 49.46419 12.20487 38.80222 12.20487 26.77333 zM27.51436 53.42826 C41.18355 52.06134 51.57214 40.57922 51.57214 26.77333 C51.57214 12.96745 41.18355 1.48533 27.51436 0.11841 L26.42083 -0.01828 L27.37767 0.52848 C32.98204 4.08247 36.80941 14.74444 36.80941 26.77333 C36.80941 38.80222 32.98204 49.46419 27.37767 53.01818 L26.42083 53.56495 C26.78534 53.51938 27.14985 53.47382 27.51436 53.42826 z" />
<glyph unicode="p" horiz-adv-x="60.836038045084535" d="M-7.78912 47.54519 L-7.78912 53.61284 L11.93076 53.61284 L11.93076 -28.99 L11.10335 -28.99 C7.93162 -28.99 5.1736 -27.88679 2.96718 -25.68037 C0.76076 -23.47395 -0.34245 -20.71593 -0.34245 -17.6821 L-0.34245 47.54519 C-2.82468 47.54519 -5.3069 47.54519 -7.78912 47.54519 zM23.92816 53.06123 C37.71829 51.68222 48.06088 40.23642 48.06088 26.5842 C48.06088 12.65617 37.58039 1.21037 23.92816 -0.16864 L22.82495 -0.30654 L23.79026 0.24506 C29.44421 3.69259 33.30545 14.44889 33.30545 26.4463 C33.30545 38.4437 29.30631 49.2 23.79026 52.64753 L22.82495 53.19914 C23.19269 53.15317 23.56043 53.1072 23.92816 53.06123 z" />
<glyph unicode="q" horiz-adv-x="63.639364303178468" d="M45.13602 47.64826 L45.13602 -17.55817 C45.13602 -20.59103 44.03317 -23.34817 41.82745 -25.55389 C39.62174 -27.7596 36.86459 -28.86246 33.69388 -28.86246 L32.86674 -28.86246 L32.86674 53.71397 L52.71817 53.71397 L52.71817 47.64826 L52.58031 47.64826 C50.09888 47.64826 47.61745 47.64826 45.13602 47.64826 zM21.97602 53.3004 L21.01102 52.74897 C15.49674 49.30254 11.49888 38.54968 11.49888 26.55611 C11.49888 14.56254 15.35888 3.80968 21.01102 0.36326 L21.97602 -0.18817 L20.87317 -0.05032 C7.08745 1.1904 -3.25183 12.63254 -3.25183 26.55611 C-3.25183 40.34183 7.08745 51.78397 20.87317 53.16254 C21.24079 53.20849 21.6084 53.25445 21.97602 53.3004 z" />
<glyph unicode="r" horiz-adv-x="40.851581181654524" d="M3.52659 50.01964 C5.85161 52.34466 8.58693 53.43879 11.86931 53.43879 L12.14284 53.43879 L12.14284 -0.0367 L-0.02933 -0.0367 L-0.02933 41.54015 C-0.02933 44.82253 1.20157 47.69462 3.52659 50.01964 zM30.30807 42.52215 C29.19781 41.4119 27.52635 40.71955 25.95621 40.71955 C24.38606 40.71955 22.7146 41.4119 21.60434 42.52215 C20.49408 43.63241 19.80174 45.30388 19.80174 46.87402 C19.80174 48.44416 20.49408 50.11563 21.60434 51.22589 C22.7146 52.33614 24.38606 53.02849 25.95621 53.02849 C27.52635 53.02849 29.19781 52.33614 30.30807 51.22589 C31.41833 50.11563 32.11067 48.44416 32.11067 46.87402 C32.11067 45.30388 31.41833 43.63241 30.30807 42.52215 z" />
<glyph unicode="s" horiz-adv-x="47.304767153012108" d="M12.28852 41.64659 C12.28852 41.64659 32.01152 20.00608 32.14848 20.14304 C36.12048 15.34926 35.57261 8.22706 30.91579 3.98114 C28.72435 1.92666 25.84808 0.83094 22.97181 0.83094 C22.42395 0.83094 21.73912 0.83094 21.05429 0.9679 L20.2325 1.10487 L20.91733 1.51577 C23.51967 2.74845 25.02629 5.48776 24.61539 8.22706 C24.47843 9.32279 24.06753 10.28154 23.51967 11.10334 C23.3827 11.10334 23.3827 11.10334 23.3827 11.2403 C23.3827 11.37727 23.24574 11.51423 23.10877 11.6512 C16.30616 19.09298 9.50356 26.53476 2.70095 33.97654 C-1.40801 38.77032 -0.86015 45.89252 3.79667 50.27541 C6.53597 52.74078 10.09707 53.69954 13.65817 53.15168 L14.47996 53.01471 L13.79513 52.60382 C11.19279 51.37113 9.68618 48.63182 10.09707 45.89252 C10.23404 44.93376 10.64493 43.83804 11.19279 43.01625 C11.32976 43.01625 11.32976 43.01625 11.32976 42.87928 C11.60369 42.46838 11.87762 42.19445 12.15155 41.78356 C12.19721 41.7379 12.24286 41.69225 12.28852 41.64659 zM29.52146 43.04093 C28.40959 41.92905 26.73568 41.2357 25.16325 41.2357 C23.59082 41.2357 21.91692 41.92905 20.80504 43.04093 C19.69317 44.1528 18.99982 45.8267 18.99982 47.39914 C18.99982 48.97157 19.69317 50.64547 20.80504 51.75734 C21.91692 52.86922 23.59082 53.56257 25.16325 53.56257 C26.73568 53.56257 28.40959 52.86922 29.52146 51.75734 C30.63334 50.64547 31.32669 48.97157 31.32669 47.39914 C31.32669 45.8267 30.63334 44.1528 29.52146 43.04093 zM13.08563 1.81438 C11.97375 0.7025 10.29985 0.00915 8.72742 0.00915 C7.15499 0.00915 5.48109 0.7025 4.36921 1.81438 C3.25733 2.92625 2.56398 4.60016 2.56398 6.17259 C2.56398 7.74502 3.25733 9.41892 4.36921 10.53079 C5.48109 11.64267 7.15499 12.33602 8.72742 12.33602 C10.29985 12.33602 11.97375 11.64267 13.08563 10.53079 C14.1975 9.41892 14.89086 7.74502 14.89086 6.17259 C14.89086 4.60016 14.1975 2.92625 13.08563 1.81438 z" />
<glyph unicode="t" horiz-adv-x="34.645476772616121" d="M12.0249 80.3405 L12.1616 80.3405 L12.1616 53.54913 L18.99613 53.54913 L18.99613 47.67143 L12.1616 47.67143 L12.1616 5.8441 L18.99613 5.8441 L18.99613 -0.0336 L-0.00387 -0.0336 L-0.00387 2.56352 C-0.00387 10.2182 -0.00387 35.50597 -0.00387 69.26856 C-0.00387 72.54913 1.22634 75.28294 3.82347 77.60669 C5.73714 79.38366 8.47095 80.3405 11.20476 80.3405 C11.47814 80.3405 11.75152 80.3405 12.0249 80.3405 z" />
<glyph unicode="u" horiz-adv-x="58.801955990219994" d="M0.01118 11.96272 L0.01118 53.50938 L12.17451 53.50938 L12.17451 0.07272 L11.90118 0.07272 C8.62118 0.07272 5.75118 1.16605 3.42784 3.48938 C1.10451 5.81272 0.01118 8.68272 0.01118 11.96272 zM27.89118 -0.06395 L27.89118 53.50938 L47.16118 53.50938 L47.16118 47.35938 L40.05451 47.35938 L40.05451 11.82605 C40.05451 8.54605 38.96118 5.67605 36.63784 3.35272 C34.31451 1.02938 31.44451 -0.06395 28.16451 -0.06395 C28.0734 -0.06395 27.98229 -0.06395 27.89118 -0.06395 z" />
<glyph unicode="v" horiz-adv-x="53.096153846153811" d="M1.33558 53.16772 C4.53566 52.19378 6.90094 50.24591 8.57055 47.3241 L27.35362 12.95803 L27.35362 12.8189 L20.39692 0.01858 L20.11866 0.43598 C17.75338 4.74913 14.5533 10.59276 10.79669 17.54945 C5.5096 27.28882 -1.16882 39.39347 -7.84725 51.63724 L-7.98638 51.91551 L-7.70812 52.05465 C-4.92544 53.58512 -1.72536 54.00252 1.33558 53.16772 zM41.32614 40.8824 C39.98498 39.54125 37.96591 38.70492 36.06923 38.70492 C34.17255 38.70492 32.15348 39.54125 30.81233 40.8824 C29.47117 42.22355 28.63485 44.24263 28.63485 46.13931 C28.63485 48.03598 29.47117 50.05506 30.81233 51.39621 C32.15348 52.73736 34.17255 53.57369 36.06923 53.57369 C37.96591 53.57369 39.98498 52.73736 41.32614 51.39621 C42.66729 50.05506 43.50362 48.03598 43.50362 46.13931 C43.50362 44.24263 42.66729 42.22355 41.32614 40.8824 z" />
<glyph unicode="w" horiz-adv-x="82.390121221122911" d="M3.04811 53.15406 C6.24737 52.18037 8.61203 50.233 10.28121 47.31194 L29.19854 12.95473 L29.19854 12.81563 L22.24364 0.01861 L21.96545 0.4359 C19.60078 4.74794 16.26243 10.72916 12.50678 17.68406 C7.22105 27.42092 0.54435 39.52245 -6.13236 51.62398 L-6.27146 51.90218 L-5.99326 52.04127 C-3.2113 53.57135 -0.01205 53.98865 3.04811 53.15406 zM30.90415 53.34821 C34.1151 52.37097 36.48841 50.41648 38.16368 47.48475 L56.87092 13.00199 L56.87092 12.86239 L49.89061 0.01861 L49.6114 0.43743 C47.23809 4.76522 44.02715 10.62869 40.25778 17.609 C34.95274 27.38144 28.25163 39.52719 21.55053 51.81254 L21.41092 52.09176 L21.69014 52.23136 C24.62187 53.90664 27.69321 54.18585 30.90415 53.34821 zM70.19028 40.89712 C68.84864 39.55548 66.82884 38.71885 64.93149 38.71885 C63.03413 38.71885 61.01433 39.55548 59.67269 40.89712 C58.33106 42.23875 57.49443 44.25855 57.49443 46.15591 C57.49443 48.05327 58.33106 50.07307 59.67269 51.4147 C61.01433 52.75634 63.03413 53.59297 64.93149 53.59297 C66.82884 53.59297 68.84864 52.75634 70.19028 51.4147 C71.53191 50.07307 72.36854 48.05327 72.36854 46.15591 C72.36854 44.25855 71.53191 42.23875 70.19028 40.89712 z" />
<glyph unicode="x" horiz-adv-x="51.469437652811735" d="M19.48932 31.13471 C24.62579 21.69471 31.01168 10.03353 36.28697 0.59353 L36.56462 0.17706 L22.54344 0.17706 L22.40462 0.31588 C20.04462 4.61941 16.71285 10.58882 12.96462 17.53 C7.68932 27.24765 1.02579 39.32529 -5.63774 51.54176 L-5.77656 51.81941 L-5.63774 51.95824 C-2.72244 53.48529 0.33168 53.90176 3.52462 53.06882 C6.71756 52.09706 9.21638 50.01471 10.74344 47.09941 C12.54815 43.76765 15.74109 37.93706 19.48932 31.13471 zM3.24697 16.69706 L12.2705 0.03824 L-5.91538 0.03824 L-5.63774 0.45471 L3.24697 16.69706 zM27.40226 36.82647 L18.23991 53.48529 L36.42579 53.48529 L36.28697 53.06882 L27.40226 36.82647 z" />
<glyph unicode="y" horiz-adv-x="54.967032967032935" d="M3.3889 53.06421 C6.55096 52.10184 9.02561 50.03963 10.53789 47.15254 L29.51022 12.78238 L29.51022 12.6449 L22.49871 -0.14079 L22.22375 0.27165 C19.7491 4.53355 16.44956 10.58269 12.6001 17.73169 C7.37584 27.49281 0.77677 39.45362 -5.8223 51.55192 L-5.95978 51.82688 L-5.68482 51.96436 C-2.79773 53.47665 0.22685 53.88909 3.3889 53.06421 zM43.6385 40.87676 C42.28241 39.52067 40.24086 38.67504 38.32307 38.67504 C36.40528 38.67504 34.36373 39.52067 33.00764 40.87676 C31.65156 42.23284 30.80592 44.27439 30.80592 46.19219 C30.80592 48.10998 31.65156 50.15153 33.00764 51.50761 C34.36373 52.8637 36.40528 53.70934 38.32307 53.70934 C40.24086 53.70934 42.28241 52.8637 43.6385 51.50761 C44.99458 50.15153 45.84022 48.10998 45.84022 46.19219 C45.84022 44.27439 44.99458 42.23284 43.6385 40.87676 zM12.74013 -15.28714 C11.63061 -16.39667 9.96025 -17.08855 8.39114 -17.08855 C6.82204 -17.08855 5.15168 -16.39667 4.04216 -15.28714 C2.93263 -14.17762 2.24075 -12.50726 2.24075 -10.93816 C2.24075 -9.36905 2.93263 -7.69869 4.04216 -6.58917 C5.15168 -5.47965 6.82204 -4.78776 8.39114 -4.78776 C9.96025 -4.78776 11.63061 -5.47965 12.74013 -6.58917 C13.84965 -7.69869 14.54154 -9.36905 14.54154 -10.93816 C14.54154 -12.50726 13.84965 -14.17762 12.74013 -15.28714 z" />
<glyph unicode="z" horiz-adv-x="56.277506112469382" d="M32.91067 53.15214 C36.21552 53.97835 39.24497 53.56525 42.27442 52.05052 L42.54983 51.91282 L42.41212 51.63741 C35.66471 39.38191 29.055 27.26411 23.68461 17.48725 C19.82895 10.46444 16.5241 4.40554 14.18316 0.13677 L14.04546 -0.00093 L-0.00017 -0.00093 L0.27523 0.41217 C5.50792 10.05133 11.97992 21.89373 17.07491 31.39518 C20.79287 38.14259 23.96002 43.92609 25.75015 47.23094 C27.26487 50.26039 29.74351 52.18822 32.91067 53.15214 zM0.10596 34.99153 L0.10596 53.68182 L10.48945 53.68182 L0.10596 34.99153 zM32.64091 0.10299 L42.33217 17.54726 L42.33217 0.10299 L32.64091 0.10299 z" />
<glyph unicode="" horiz-adv-x="56" d="M-0.77521 30.70892 C1.02615 33.61881 3.65891 35.83587 7.26164 37.63723 C8.6473 38.46863 10.3101 39.16146 12.25003 39.57716 C14.18996 39.99286 16.40702 40.40856 18.76265 40.82426 C17.65412 40.40856 16.68415 39.99286 15.71419 39.30003 C14.74422 38.6072 13.91283 37.91437 13.08143 36.9444 C11.41863 35.28161 10.3101 32.78741 9.4787 29.32325 C8.78587 25.85909 8.37017 22.39493 8.37017 19.20791 C8.37017 14.63522 9.20157 10.61679 10.86437 7.15263 C12.8043 3.82704 15.43706 1.47141 18.76265 0.08575 C15.99132 0.36288 13.49713 0.91714 11.1415 1.60998 C8.92444 2.30281 6.98451 3.13421 5.32171 4.24274 C2.41182 6.0441 0.33332 8.39973 -1.19091 11.17106 C-2.57657 13.80382 -3.40797 16.99084 -3.40797 20.59357 C-3.40797 24.47343 -2.57657 27.93759 -0.77521 30.70892 zM34.64049 18.22274 Q35.67332 19.25558 37.1255 19.85709 Q38.57768 20.4586 40.03833 20.4586 Q41.49897 20.4586 42.95116 19.85709 Q44.40334 19.25558 45.43617 18.22274 Q46.469 17.18991 47.07052 15.73773 Q47.67203 14.28555 47.67203 12.8249 Q47.67203 11.36426 47.07052 9.91208 Q46.469 8.45989 45.43617 7.42706 Q44.40334 6.39423 42.95116 5.79272 Q41.49897 5.1912 40.03833 5.1912 Q38.57768 5.1912 37.1255 5.79272 Q35.67332 6.39423 34.64049 7.42706 Q33.60766 8.45989 33.00614 9.91208 Q32.40463 11.36426 32.40463 12.8249 Q32.40463 14.28555 33.00614 15.73773 Q33.60766 17.18991 34.64049 18.22274 zM17.32802 78.16739 Q18.36085 79.20022 19.81303 79.80174 Q21.26521 80.40325 22.72586 80.40325 Q24.1865 80.40325 25.63869 79.80174 Q27.09087 79.20022 28.1237 78.16739 Q29.15653 77.13456 29.75805 75.68238 Q30.35956 74.2302 30.35956 72.76955 Q30.35956 71.30891 29.75805 69.85672 Q29.15653 68.40454 28.1237 67.37171 Q27.09087 66.33888 25.63869 65.73737 Q24.1865 65.13585 22.72586 65.13585 Q21.26521 65.13585 19.81303 65.73737 Q18.36085 66.33888 17.32802 67.37171 Q16.29519 68.40454 15.69367 69.85672 Q15.09216 71.30891 15.09216 72.76955 Q15.09216 74.2302 15.69367 75.68238 Q16.29519 77.13456 17.32802 78.16739 z" />
<glyph unicode="" horiz-adv-x="74.943765281173683" d="M34.86519 79.97837 C36.62797 79.97837 38.2305 79.33736 39.67277 78.05534 C41.11505 76.77332 42.07656 75.17079 42.87783 73.0875 C57.46084 33.18453 62.26843 20.3643 69.47981 0.3327 C62.42868 0.3327 57.14033 0.3327 53.61477 0.3327 C38.71125 41.19718 33.58316 54.65842 26.05128 75.17079 C25.25001 77.25408 24.76925 78.8566 24.2885 80.13863 C27.81406 79.97837 30.3781 79.97837 32.14089 79.97837 C33.42291 79.97837 34.22417 79.97837 34.86519 79.97837 zM-0.23019 9.94787 C-0.23019 11.06964 0.09031 12.35166 0.57107 13.63368 C1.05183 14.75545 1.69284 15.87722 2.65436 16.67849 C3.61587 17.47975 4.57739 18.28102 5.69916 18.76178 C6.98119 19.24253 8.26321 19.56304 9.38498 19.56304 C10.02599 19.56304 10.82725 19.56304 11.46827 19.40279 C12.10928 19.24253 12.59004 19.08228 13.07079 18.76178 C14.35282 18.28102 15.47459 17.64001 16.27585 16.67849 C17.07712 15.71697 17.87838 14.75545 18.35914 13.63368 C18.8399 12.35166 19.1604 11.06964 19.1604 9.94787 C19.1604 8.66585 18.8399 7.38382 18.35914 6.26205 C17.87838 4.98003 17.23737 3.85826 16.27585 3.05699 C15.47459 2.25573 14.35282 1.61472 13.07079 0.97371 C11.94902 0.49295 10.667 0.17244 9.38498 0.17244 C8.26321 0.17244 6.98119 0.49295 5.69916 0.97371 C4.57739 1.61472 3.45562 2.25573 2.65436 3.05699 C1.69284 4.01851 1.05183 5.14028 0.57107 6.4223 C0.09031 7.54408 -0.23019 8.66585 -0.23019 9.94787 zM26.21153 86.70899 C22.36546 86.70899 19.00015 88.15127 16.27585 90.87557 C13.71181 93.59987 12.26953 96.96518 12.26953 100.81125 C22.04496 100.81125 5.05815 100.81125 24.609 100.81125 C28.45507 100.81125 31.82038 99.36897 34.54468 96.64467 C37.26898 93.76012 38.551 90.55506 38.551 86.70899 C28.77558 86.70899 45.76238 86.70899 26.21153 86.70899 z" />
<glyph unicode="" horiz-adv-x="75.92176039119812" d="M35.25666 80.18047 C37.02678 80.18047 38.63597 79.5368 40.08425 78.24944 C41.53252 76.96208 42.49804 75.35289 43.30264 73.26093 C57.94632 33.19197 62.7739 20.3184 70.01528 0.20346 C62.93482 0.20346 57.62448 0.20346 54.08425 0.20346 C39.11873 41.23795 33.9693 54.75519 26.40609 75.35289 C25.60149 77.44484 25.11873 79.05404 24.63597 80.34139 C28.1762 80.18047 30.75091 80.18047 32.52103 80.18047 C33.80838 80.18047 34.61298 80.18047 35.25666 80.18047 zM0.01528 9.85863 C0.01528 10.98507 0.33712 12.27243 0.81988 13.55978 C1.30264 14.68622 1.94632 15.81266 2.91183 16.61726 C3.87735 17.42185 4.84287 18.22645 5.9693 18.70921 C7.25666 19.19197 8.54402 19.51381 9.67045 19.51381 C10.31413 19.51381 11.11873 19.51381 11.76241 19.35289 C12.40609 19.19197 12.88884 19.03105 13.3716 18.70921 C14.65896 18.22645 15.7854 17.58277 16.58999 16.61726 C17.39459 15.65174 18.19919 14.68622 18.68195 13.55978 C19.16471 12.27243 19.48655 10.98507 19.48655 9.85863 C19.48655 8.57128 19.16471 7.28392 18.68195 6.15749 C18.19919 4.87013 17.55551 3.74369 16.58999 2.93909 C15.7854 2.1345 14.65896 1.49082 13.3716 0.84714 C12.24517 0.36438 10.95781 0.04254 9.67045 0.04254 C8.54402 0.04254 7.25666 0.36438 5.9693 0.84714 C4.84287 1.49082 3.71643 2.1345 2.91183 2.93909 C1.94632 3.90461 1.30264 5.03105 0.81988 6.3184 C0.33712 7.44484 0.01528 8.57128 0.01528 9.85863 zM13.69344 86.93909 C13.69344 90.80116 14.9808 94.01955 17.71643 96.91611 C20.45206 99.65174 23.83137 101.10001 27.69344 101.10001 C47.32563 101.10001 30.26815 101.10001 40.08425 101.10001 C40.08425 97.23795 38.63597 93.85863 36.06126 91.123 C33.32563 88.38737 29.94632 86.93909 26.08425 86.93909 C6.45206 86.93909 23.50953 86.93909 13.69344 86.93909 z" />
<glyph unicode="" horiz-adv-x="75.310513447432811" d="M35.09917 80.08909 C36.86751 80.08909 38.4751 79.44605 39.92193 78.15999 C41.36876 76.87392 42.33331 75.26633 43.1371 73.17647 C57.76614 33.14757 62.58889 20.12612 69.82303 0.19205 C62.74965 0.19205 57.44462 0.19205 53.90793 0.19205 C38.95738 41.1855 33.8131 54.68923 26.25745 75.26633 C25.45365 77.35619 24.97138 78.96378 24.4891 80.24985 C28.02579 80.08909 30.59793 80.08909 32.36627 80.08909 C33.65234 80.08909 34.45614 80.08909 35.09917 80.08909 zM-0.10697 9.83757 C-0.10697 10.96288 0.21455 12.24895 0.69682 13.53502 C1.1791 14.66033 1.82214 15.78564 2.78669 16.58943 C3.59048 17.39323 4.71579 18.19702 5.8411 18.6793 C7.12717 19.16157 8.41324 19.48309 9.53855 19.48309 C10.18158 19.48309 10.98538 19.48309 11.62841 19.32233 C12.27145 19.16157 12.75372 19.00081 13.236 18.6793 C14.52207 18.19702 15.64738 17.55399 16.45117 16.58943 C17.25496 15.78564 18.05876 14.66033 18.54103 13.53502 C19.02331 12.24895 19.34482 10.96288 19.34482 9.83757 C19.34482 8.5515 19.02331 7.26543 18.54103 6.14012 C18.05876 4.85405 17.41572 3.72874 16.45117 2.92495 C15.64738 2.12116 14.52207 1.47812 13.236 0.83509 C12.11069 0.35281 10.82462 0.0313 9.53855 0.0313 C8.41324 0.0313 7.12717 0.35281 5.8411 0.83509 C4.71579 1.47812 3.59048 2.12116 2.78669 2.92495 C1.82214 3.8895 1.1791 4.85405 0.69682 6.14012 C0.21455 7.26543 -0.10697 8.5515 -0.10697 9.83757 zM25.13214 99.05861 L35.09917 88.6093 L14.03979 88.6093 L25.13214 99.05861 z" />
<glyph unicode="" horiz-adv-x="76.41075794621031" d="M35.20993 80.29095 C36.98384 80.29095 38.59648 79.64589 40.04786 78.35578 C41.49924 77.06566 42.46682 75.45302 43.27315 73.35658 C57.9482 33.20176 62.78614 20.13934 70.04303 0.14256 C62.9474 0.14256 57.62568 0.14256 54.07786 0.14256 C39.08027 41.10371 33.91981 54.81118 26.34039 75.29176 C25.53407 77.38819 25.05027 79.00084 24.56648 80.29095 C28.1143 80.29095 30.69453 80.29095 32.46843 80.29095 C33.75855 80.29095 34.56487 80.29095 35.20993 80.29095 zM-0.10697 9.81842 C-0.10697 10.94727 0.21556 12.23739 0.69935 13.5275 C1.18315 14.65635 1.8282 15.7852 2.79579 16.59153 C3.60211 17.39785 4.73096 18.20417 5.85981 18.68796 C7.14993 19.17176 8.44004 19.49428 9.56889 19.49428 C10.21395 19.49428 11.02027 19.49428 11.66533 19.33302 C12.31039 19.17176 12.79418 19.01049 13.27797 18.68796 C14.56809 18.20417 15.69694 17.55911 16.50326 16.59153 C17.30958 15.7852 18.11591 14.65635 18.5997 13.5275 C19.08349 12.23739 19.40602 10.94727 19.40602 9.81842 C19.40602 8.52831 19.08349 7.23819 18.5997 6.10934 C18.11591 4.81923 17.47085 3.69038 16.50326 2.88405 C15.69694 2.07773 14.56809 1.43268 13.27797 0.78762 C12.14912 0.30382 10.85901 -0.0187 9.56889 -0.0187 C8.44004 -0.0187 7.14993 0.30382 5.85981 0.78762 C4.73096 1.43268 3.60211 2.07773 2.79579 2.88405 C1.8282 3.85164 1.18315 4.81923 0.69935 6.10934 C0.21556 7.23819 -0.10697 8.52831 -0.10697 9.81842 zM19.94376 90.39666 C18.98373 89.43663 17.53842 88.83796 16.18073 88.83796 C14.82304 88.83796 13.37774 89.43663 12.41771 90.39666 C11.45767 91.35669 10.85901 92.802 10.85901 94.15969 C10.85901 95.51738 11.45767 96.96268 12.41771 97.92271 C13.37774 98.88275 14.82304 99.48141 16.18073 99.48141 C17.53842 99.48141 18.98373 98.88275 19.94376 97.92271 C20.90379 96.96268 21.50246 95.51738 21.50246 94.15969 C21.50246 92.802 20.90379 91.35669 19.94376 90.39666 zM34.78008 90.39666 C33.82005 89.43663 32.37475 88.83796 31.01705 88.83796 C29.65936 88.83796 28.21406 89.43663 27.25403 90.39666 C26.294 91.35669 25.69533 92.802 25.69533 94.15969 C25.69533 95.51738 26.294 96.96268 27.25403 97.92271 C28.21406 98.88275 29.65936 99.48141 31.01705 99.48141 C32.37475 99.48141 33.82005 98.88275 34.78008 97.92271 C35.74011 96.96268 36.33878 95.51738 36.33878 94.15969 C36.33878 92.802 35.74011 91.35669 34.78008 90.39666 z" />
<glyph unicode="" horiz-adv-x="64.552567237163885" d="M38.09701 -19.74084 C38.09701 -23.6002 36.64976 -26.97713 33.91605 -29.71084 C31.18234 -32.44455 27.8054 -33.731 23.94605 -33.89181 C23.94605 -24.08262 23.94605 -41.1281 23.94605 -21.50971 C23.94605 -17.65036 25.3933 -14.27342 28.12701 -11.53971 C31.02153 -8.6452 34.39847 -7.35874 38.09701 -7.35874 C38.09701 -17.16794 38.09701 -0.12245 38.09701 -19.74084 zM37.29298 71.59722 C37.29298 72.72287 37.61459 74.00932 38.09701 75.29577 C38.57943 76.42142 39.22266 77.54706 40.1875 78.35109 C40.99153 79.15513 42.11718 79.95916 43.24282 80.44158 C44.52927 80.76319 45.65492 81.0848 46.94137 81.0848 C47.58459 81.0848 48.38863 81.0848 49.03185 80.924 C49.67508 80.76319 50.1575 80.60238 50.63992 80.28077 C51.92637 79.79835 53.05201 79.15513 53.85605 78.19029 C54.66008 77.38626 55.46411 76.26061 55.94653 75.13496 C56.42895 73.84851 56.75056 72.56206 56.75056 71.43642 C56.75056 70.14996 56.42895 68.86351 55.94653 67.73787 C55.46411 66.45142 54.82088 65.32577 53.85605 64.52174 C53.05201 63.71771 51.92637 63.07448 50.63992 62.43126 C49.51427 61.94884 48.22782 61.62722 46.94137 61.62722 C45.81572 61.62722 44.52927 61.94884 43.24282 62.43126 C42.11718 63.07448 40.99153 63.71771 40.1875 64.52174 C39.22266 65.48658 38.57943 66.61222 38.09701 67.89867 C37.61459 69.02432 37.29298 70.31077 37.29298 71.59722 zM16.22734 75.61738 C19.28266 77.54706 22.49879 78.83351 25.87572 79.47674 C24.58927 78.83351 23.30282 78.02948 22.33798 77.06464 C21.21234 76.0998 20.4083 74.97416 19.60427 73.68771 C17.19218 69.98916 15.4233 65.00416 14.29766 58.73271 C13.17201 52.46126 12.52879 46.029 12.52879 39.59674 C12.52879 33.16448 13.17201 26.73222 14.29766 20.46077 C15.4233 14.02851 17.19218 9.04351 19.60427 5.50577 C20.4083 4.21932 21.37314 3.09367 22.33798 2.12884 C23.46363 1.164 24.58927 0.35996 25.87572 -0.12245 C22.49879 0.68158 19.28266 1.96803 16.22734 3.7369 C13.17201 5.66658 10.4383 8.07867 7.70459 10.97319 C4.16685 14.99335 1.59395 19.33513 -0.33573 24.15932 C-2.1046 28.98351 -3.06944 34.12932 -3.06944 39.59674 C-3.06944 45.22496 -2.1046 50.37077 -0.33573 55.03416 C1.59395 60.01916 4.16685 64.36093 7.70459 68.22029 C10.2775 71.27561 13.17201 73.68771 16.22734 75.61738 z" />
<glyph unicode="" horiz-adv-x="50.705378973105212" d="M11.01062 44.02897 L18.91858 44.02897 L18.91858 38.54181 L11.01062 38.54181 L11.01062 44.02897 zM42.4811 63.55681 L28.92458 80.50245 L42.4811 80.50245 L42.4811 63.55681 zM42.4811 0.13168 L28.92458 0.13168 L42.4811 17.23871 L42.4811 0.13168 zM12.94726 -0.02971 L0.19768 -0.02971 L-7.5489 -0.02971 L-7.5489 5.45745 L0.03629 5.45745 L0.03629 67.91426 C0.03629 74.53113 5.36207 79.85691 11.97894 79.85691 L12.94726 79.85691 C12.94726 53.22804 12.94726 26.59916 12.94726 -0.02971 zM21.178 86.95794 C17.30471 86.95794 13.91558 88.41042 11.172 91.154 C8.42842 93.89758 7.13733 97.28671 6.97594 101.16 C16.82055 101.16 -0.28648 101.16 19.40275 101.16 C23.27604 101.16 26.66516 99.70752 29.40875 96.96394 C32.15233 94.05897 33.60481 90.83123 33.60481 86.95794 C23.7602 86.95794 40.86723 86.95794 21.178 86.95794 z" />
<glyph unicode="" horiz-adv-x="52.17237163814184" d="M10.94384 43.9927 L18.82336 43.9927 L18.82336 38.52528 L10.94384 38.52528 L10.94384 43.9927 zM42.3011 63.45028 L28.79336 80.33496 L42.3011 80.33496 L42.3011 63.45028 zM42.3011 0.25335 L28.79336 0.25335 L42.3011 17.29883 L42.3011 0.25335 zM12.87352 0.09254 L0.16981 0.09254 L-7.5489 0.09254 L-7.5489 5.55996 L0.009 5.55996 L0.009 67.79206 C0.009 74.38512 5.31562 79.69174 11.90868 79.69174 L12.87352 79.69174 C12.87352 53.15867 12.87352 26.62561 12.87352 0.09254 zM10.62223 86.76722 C10.62223 90.62658 11.90868 93.8427 14.8032 96.73722 C17.53691 99.47093 20.91384 100.91819 24.7732 100.91819 C44.39158 100.91819 27.3461 100.91819 37.15529 100.91819 C36.99449 97.05883 35.70804 93.6819 32.97433 90.94819 C30.24062 88.21448 26.86368 86.76722 23.00433 86.76722 C3.38594 86.76722 20.43142 86.76722 10.62223 86.76722 z" />
<glyph unicode="" horiz-adv-x="52.805623471882654" d="M10.92529 43.93742 L18.79691 43.93742 L18.79691 38.47549 L10.92529 38.47549 L10.92529 43.93742 zM42.2511 63.37549 L28.75691 80.24323 L42.2511 80.24323 L42.2511 63.37549 zM42.2511 0.24194 L28.75691 0.24194 L42.2511 17.27033 L42.2511 0.24194 zM12.85304 0.0813 L0.16207 0.0813 L-7.5489 0.0813 L-7.5489 5.54323 L0.00142 5.54323 L0.00142 67.71291 C0.00142 74.29936 5.30271 79.60065 11.88916 79.60065 L12.85304 79.60065 C12.85304 53.0942 12.85304 26.58775 12.85304 0.0813 zM22.17046 98.87807 L32.13046 88.43613 L11.24658 88.43613 L22.17046 98.87807 z" />
<glyph unicode="" horiz-adv-x="52.572127139364397" d="M11.04338 43.86101 L18.91025 43.86101 L18.91025 38.40236 L11.04338 38.40236 L11.04338 43.86101 zM42.35032 63.28736 L28.86425 80.14494 L42.35032 80.14494 L42.35032 63.28736 zM42.35032 0.19184 L28.86425 0.19184 L42.35032 17.20997 L42.35032 0.19184 zM12.96996 0.0313 L0.28664 0.0313 L-7.41968 0.0313 L-7.41968 5.48994 L0.12609 5.48994 L0.12609 67.62217 C0.12609 74.20465 5.42419 79.50275 12.00667 79.50275 L12.96996 79.50275 C12.96996 53.01226 12.96996 26.52178 12.96996 0.0313 zM19.12451 89.88469 C18.16874 88.92892 16.72985 88.33291 15.37819 88.33291 C14.02653 88.33291 12.58764 88.92892 11.63187 89.88469 C10.6761 90.84046 10.08009 92.27934 10.08009 93.63101 C10.08009 94.98267 10.6761 96.42156 11.63187 97.37733 C12.58764 98.3331 14.02653 98.9291 15.37819 98.9291 C16.72985 98.9291 18.16874 98.3331 19.12451 97.37733 C20.08028 96.42156 20.67629 94.98267 20.67629 93.63101 C20.67629 92.27934 20.08028 90.84046 19.12451 89.88469 zM33.89496 89.88469 C32.93919 88.92892 31.5003 88.33291 30.14864 88.33291 C28.79698 88.33291 27.35809 88.92892 26.40232 89.88469 C25.44655 90.84046 24.85054 92.27934 24.85054 93.63101 C24.85054 94.98267 25.44655 96.42156 26.40232 97.37733 C27.35809 98.3331 28.79698 98.9291 30.14864 98.9291 C31.5003 98.9291 32.93919 98.3331 33.89496 97.37733 C34.85073 96.42156 35.44674 94.98267 35.44674 93.63101 C35.44674 92.27934 34.85073 90.84046 33.89496 89.88469 z" />
<glyph unicode="" horiz-adv-x="26.288508557457249" d="M13.00925 -0.20366 L0.17657 -0.20366 L-7.6205 -0.20366 L-7.6205 5.31927 L0.01413 5.31927 L0.01413 68.18317 C0.01413 74.84317 5.37462 80.20366 12.03462 80.20366 L13.00925 80.20366 C13.00925 53.40122 13.00925 26.59878 13.00925 -0.20366 zM6.13993 87.76107 C2.26664 87.76107 -1.12249 89.21355 -3.86607 91.95713 C-6.60965 94.70071 -7.90075 98.08984 -8.06213 101.96313 C1.78248 101.96313 -15.32455 101.96313 4.36467 101.96313 C8.23796 101.96313 11.62709 100.51065 14.37067 97.76707 C17.11425 94.8621 18.56674 91.63436 18.56674 87.76107 C8.72212 87.76107 25.82916 87.76107 6.13993 87.76107 z" />
<glyph unicode="" horiz-adv-x="23.965770171149188" d="M13.00925 -0.08141 L0.17657 -0.08141 L-7.6205 -0.08141 L-7.6205 5.44152 L0.01413 5.44152 L0.01413 68.30542 C0.01413 74.96542 5.37462 80.32591 12.03462 80.32591 L13.00925 80.32591 C13.00925 53.52347 13.00925 26.72103 13.00925 -0.08141 zM19.79854 102.79668 C19.79854 98.92339 18.34606 95.69565 15.60248 92.79068 C12.8589 90.0471 9.46977 88.59462 5.59648 88.59462 C-14.09275 88.59462 3.01428 88.59462 -6.83033 88.59462 C-6.66894 92.46791 -5.37784 95.85704 -2.63426 98.60062 C0.10932 101.3442 3.49845 102.79668 7.37174 102.79668 C27.06096 102.79668 9.95393 102.79668 19.79854 102.79668 z" />
<glyph unicode="" horiz-adv-x="23.599022004890003" d="M13.00925 0.04084 L0.17657 0.04084 L-7.6205 0.04084 L-7.6205 5.56377 L0.01413 5.56377 L0.01413 68.42767 C0.01413 75.08767 5.37462 80.44816 12.03462 80.44816 L13.00925 80.44816 C13.00925 53.64572 13.00925 26.84328 13.00925 0.04084 zM7.45504 96.68796 L17.41504 86.24602 L-3.46883 86.24602 L7.45504 96.68796 z" />
<glyph unicode="" horiz-adv-x="24.821515892420621" d="M13.04589 -0.1687 L0.21321 -0.1687 L-7.58386 -0.1687 L-7.58386 5.35422 L0.05077 5.35422 L0.05077 68.21813 C0.05077 74.87813 5.41126 80.23861 12.07126 80.23861 L13.04589 80.23861 C13.04589 53.43617 13.04589 26.63373 13.04589 -0.1687 zM2.5417 91.39257 C1.57467 90.42554 0.11884 89.82252 -1.24874 89.82252 C-2.61632 89.82252 -4.07215 90.42554 -5.03918 91.39257 C-6.0062 92.35959 -6.60923 93.81542 -6.60923 95.183 C-6.60923 96.55058 -6.0062 98.00642 -5.03918 98.97344 C-4.07215 99.94047 -2.61632 100.54349 -1.24874 100.54349 C0.11884 100.54349 1.57467 99.94047 2.5417 98.97344 C3.50872 98.00642 4.11175 96.55058 4.11175 95.183 C4.11175 93.81542 3.50872 92.35959 2.5417 91.39257 zM17.48609 91.39257 C16.51906 90.42554 15.06323 89.82252 13.69565 89.82252 C12.32807 89.82252 10.87224 90.42554 9.90521 91.39257 C8.93819 92.35959 8.33516 93.81542 8.33516 95.183 C8.33516 96.55058 8.93819 98.00642 9.90521 98.97344 C10.87224 99.94047 12.32807 100.54349 13.69565 100.54349 C15.06323 100.54349 16.51906 99.94047 17.48609 98.97344 C18.45311 98.00642 19.05614 96.55058 19.05614 95.183 C19.05614 93.81542 18.45311 92.35959 17.48609 91.39257 z" />
<glyph unicode="" horiz-adv-x="58.806845965770208" d="M13.25963 -0.15196 L0.25726 -0.15196 L-7.64291 -0.15196 L-7.64291 5.444 L0.09267 5.444 L0.09267 67.98702 C0.09267 74.73508 5.52404 80.16645 12.2721 80.16645 L13.25963 80.16645 C13.25963 53.39365 13.25963 26.62085 13.25963 -0.15196 zM50.12709 0.01263 L36.96014 0.01263 L36.96014 70.12665 L19.18475 70.12665 L31.1996 78.02682 C33.17464 79.34351 35.64344 80.00186 37.94766 80.00186 C44.69572 80.16645 50.12709 74.73508 50.12709 67.98702 C50.12709 45.32889 50.12709 22.67076 50.12709 0.01263 zM24.28695 88.56038 C20.33686 88.56038 16.88054 90.04166 14.08256 92.83964 C11.28458 95.63762 9.96789 99.09394 9.8033 103.04403 C19.8431 103.04403 2.39689 103.04403 22.47649 103.04403 C26.42658 103.04403 29.8829 101.56274 32.68088 98.76477 C35.47886 95.8022 36.96014 92.51047 36.96014 88.56038 C26.92034 88.56038 44.36655 88.56038 24.28695 88.56038 z" />
<glyph unicode="" horiz-adv-x="76.533007334963372" d="M16.93262 76.53968 C20.02207 78.49091 23.27413 79.79173 26.68879 80.44215 C25.38796 79.79173 24.08714 78.97872 23.11153 78.0031 C21.97331 77.02749 21.16029 75.88927 20.34728 74.58845 C17.90824 70.84858 16.11961 65.8079 14.98139 59.46639 C13.84317 53.12489 13.19276 46.62078 13.19276 40.11667 C13.19276 33.61256 13.84317 27.10845 14.98139 20.76694 C16.11961 14.26283 17.90824 9.22215 20.34728 5.64489 C21.16029 4.34406 22.13591 3.20584 23.11153 2.23023 C24.24975 1.25461 25.38796 0.4416 26.68879 -0.04621 C23.27413 0.7668 20.02207 2.06763 16.93262 3.85626 C13.84317 5.80749 11.07892 8.24653 8.31468 11.17338 C4.73742 15.23845 2.13577 19.62872 0.18454 24.5068 C-1.60409 29.38489 -2.57971 34.58817 -2.57971 40.11667 C-2.57971 45.80776 -1.60409 51.01105 0.18454 55.72653 C2.13577 60.76721 4.73742 65.15749 8.31468 69.05995 C10.91632 72.14941 13.84317 74.58845 16.93262 76.53968 zM49.12796 3.85626 C46.03851 1.90502 42.78646 0.6042 39.3718 -0.04621 C40.67262 0.6042 41.97344 1.41721 42.94906 2.39283 C44.08728 3.36845 44.90029 4.50667 45.71331 5.80749 C48.15235 9.54735 49.94098 14.58804 51.0792 20.92954 C52.21742 27.27105 52.86783 33.77516 52.86783 40.27927 C52.86783 46.78338 52.21742 53.28749 51.0792 59.629 C49.94098 66.1331 48.15235 71.17379 45.71331 74.75105 C44.90029 76.05187 43.92468 77.19009 42.94906 78.16571 C41.81084 79.14132 40.67262 79.95434 39.3718 80.44215 C42.78646 79.62913 46.03851 78.32831 49.12796 76.53968 C52.21742 74.58845 54.98166 72.14941 57.74591 69.22256 C61.32317 65.15749 63.92481 60.76721 65.87605 55.88913 C67.66468 51.01105 68.64029 45.80776 68.64029 40.27927 C68.64029 34.58817 67.66468 29.38489 65.87605 24.66941 C63.92481 19.62872 61.16057 15.40105 57.74591 11.33598 C55.14427 8.24653 52.21742 5.80749 49.12796 3.85626 zM29.94084 90.03571 C26.03838 90.03571 22.62372 91.49913 19.85947 94.26338 C17.09522 97.02763 15.7944 100.44228 15.6318 104.34475 C25.55057 104.34475 8.31468 104.34475 28.15221 104.34475 C32.05468 104.34475 35.46933 102.88132 38.23358 100.11708 C40.99783 97.19023 42.46125 93.93817 42.46125 90.03571 C32.54249 90.03571 49.77838 90.03571 29.94084 90.03571 z" />
<glyph unicode="" horiz-adv-x="76.288508557457249" d="M17.61132 76.44686 C20.6921 78.39261 23.93502 79.68978 27.34009 80.33837 C26.04292 79.68978 24.74575 78.87905 23.77288 77.90618 C22.63785 76.9333 21.82712 75.79828 21.01639 74.50111 C18.5842 70.77175 16.80059 65.74522 15.66557 59.42152 C14.53055 53.09782 13.88196 46.61198 13.88196 40.12613 C13.88196 33.64029 14.53055 27.15444 15.66557 20.83074 C16.80059 14.3449 18.5842 9.31837 21.01639 5.75115 C21.82712 4.45398 22.8 3.31896 23.77288 2.34608 C24.9079 1.37321 26.04292 0.56248 27.34009 0.07604 C23.93502 0.88677 20.6921 2.18394 17.61132 3.96755 C14.53055 5.9133 11.77406 8.34549 9.01758 11.26412 C5.45037 15.31777 2.85603 19.69572 0.91027 24.5601 C-0.87333 29.42449 -1.84621 34.61316 -1.84621 40.12613 C-1.84621 45.80124 -0.87333 50.98992 0.91027 55.69216 C2.85603 60.71869 5.45037 65.09663 9.01758 68.98814 C11.61192 72.06892 14.53055 74.50111 17.61132 76.44686 zM49.71626 3.96755 C46.63548 2.02179 43.39256 0.72462 39.98749 0.07604 C41.28466 0.72462 42.58183 1.53535 43.5547 2.50823 C44.68973 3.48111 45.50046 4.61613 46.31119 5.9133 C48.74338 9.64266 50.52699 14.66919 51.66201 20.99289 C52.79703 27.31659 53.44562 33.80243 53.44562 40.28828 C53.44562 46.77412 52.79703 53.25997 51.66201 59.58366 C50.52699 66.06951 48.74338 71.09604 46.31119 74.66325 C45.50046 75.96042 44.52758 77.09545 43.5547 78.06832 C42.41968 79.0412 41.28466 79.85193 39.98749 80.33837 C43.39256 79.52764 46.63548 78.23047 49.71626 76.44686 C52.79703 74.50111 55.55352 72.06892 58.31 69.15029 C61.87721 65.09663 64.47155 60.71869 66.41731 55.8543 C68.20091 50.98992 69.17379 45.80124 69.17379 40.28828 C69.17379 34.61316 68.20091 29.42449 66.41731 24.72225 C64.47155 19.69572 61.71507 15.47992 58.31 11.42627 C55.71566 8.34549 52.79703 5.9133 49.71626 3.96755 zM23.61073 89.90499 C23.61073 93.7965 25.07005 97.03942 27.82653 99.95805 C30.58301 102.71453 33.98808 104.17385 37.87959 104.17385 C57.66142 104.17385 40.47393 104.17385 50.36484 104.17385 C50.20269 100.28234 48.90552 96.87727 46.14904 94.12079 C43.39256 91.3643 39.98749 89.90499 36.09598 89.90499 C16.31416 89.90499 33.50164 89.90499 23.61073 89.90499 z" />
<glyph unicode="" horiz-adv-x="75.040228680155167" d="M16.97649 76.44472 C20.06638 78.39622 23.31889 79.69723 26.73403 80.34773 C25.43302 79.69723 24.13202 78.8841 23.15627 77.90835 C22.01789 76.93259 21.20476 75.79421 20.39163 74.49321 C17.95225 70.75282 16.16337 65.71143 15.02499 59.36903 C13.88661 53.02663 13.23611 46.52161 13.23611 40.01659 C13.23611 33.51156 13.88661 27.00654 15.02499 20.66414 C16.16337 14.15912 17.95225 9.11773 20.39163 5.53997 C21.20476 4.23896 22.18051 3.10058 23.15627 2.12483 C24.29464 1.14908 25.43302 0.33595 26.73403 -0.15193 C23.31889 0.6612 20.06638 1.9622 16.97649 3.75108 C13.88661 5.70259 11.12197 8.14198 8.35734 11.06924 C4.77958 15.13487 2.17757 19.52577 0.22606 24.40453 C-1.56282 29.2833 -2.53857 34.48732 -2.53857 40.01659 C-2.53857 45.70848 -1.56282 50.9125 0.22606 55.62864 C2.17757 60.67003 4.77958 65.06093 8.35734 68.96394 C10.95935 72.05382 13.88661 74.49321 16.97649 76.44472 zM49.17636 3.75108 C46.08647 1.79958 42.83396 0.49857 39.41882 -0.15193 C40.71983 0.49857 42.02083 1.3117 42.99659 2.28745 C44.13496 3.26321 44.94809 4.40159 45.76122 5.70259 C48.2006 9.44298 49.98948 14.48437 51.12786 20.82677 C52.26624 27.16917 52.91674 33.67419 52.91674 40.17921 C52.91674 46.68424 52.26624 53.18926 51.12786 59.53166 C49.98948 66.03668 48.2006 71.07807 45.76122 74.65583 C44.94809 75.95684 43.97234 77.09522 42.99659 78.07097 C41.85821 79.04672 40.71983 79.85985 39.41882 80.34773 C42.83396 79.5346 46.08647 78.2336 49.17636 76.44472 C52.26624 74.49321 55.03088 72.05382 57.79551 69.12656 C61.37327 65.06093 63.97528 60.67003 65.92679 55.79127 C67.71567 50.9125 68.69143 45.70848 68.69143 40.17921 C68.69143 34.48732 67.71567 29.2833 65.92679 24.56716 C63.97528 19.52577 61.21065 15.13487 57.79551 11.23186 C55.1935 8.14198 52.26624 5.70259 49.17636 3.75108 zM33.5643 102.30218 L43.64709 91.73152 L22.34314 91.73152 L33.5643 102.30218 z" />
<glyph unicode="" horiz-adv-x="73.843520782396126" d="M16.45732 76.65445 C19.54894 78.60705 22.80328 79.90879 26.22034 80.55966 C24.9186 79.90879 23.61687 79.0952 22.64057 78.1189 C21.50155 77.1426 20.68796 76.00358 19.87438 74.70185 C17.43362 70.95936 15.64374 65.91513 14.50472 59.56918 C13.3657 53.22322 12.71483 46.71454 12.71483 40.20587 C12.71483 33.69719 13.3657 27.18851 14.50472 20.84255 C15.64374 14.33388 17.43362 9.28966 19.87438 5.70988 C20.68796 4.40815 21.66426 3.26913 22.64057 2.29283 C23.77958 1.31653 24.9186 0.50294 26.22034 0.01479 C22.80328 0.82838 19.54894 2.13011 16.45732 3.92 C13.3657 5.8726 10.59952 8.31335 7.83333 11.24226 C4.25356 15.31018 1.65009 19.70354 -0.30252 24.58504 C-2.0924 29.46655 -3.0687 34.67349 -3.0687 40.36858 C-3.0687 46.06367 -2.0924 51.27061 -0.30252 55.9894 C1.65009 60.87091 4.25356 65.26427 7.83333 69.16947 C10.4368 72.26109 13.3657 74.70185 16.45732 76.65445 zM48.67527 3.92 C45.58365 1.96739 42.32931 0.66566 38.91225 0.01479 C40.21399 0.66566 41.51573 1.47924 42.49203 2.45555 C43.63104 3.43185 44.44463 4.57087 45.25821 5.8726 C47.69897 9.61509 49.48885 14.65931 50.62787 21.00527 C51.76689 27.35123 52.41776 33.85991 52.41776 40.36858 C52.41776 46.87726 51.76689 53.38593 50.62787 59.73189 C49.48885 66.24057 47.69897 71.28479 45.25821 74.86456 C44.44463 76.1663 43.46833 77.30532 42.49203 78.28162 C41.35301 79.25792 40.21399 80.0715 38.91225 80.55966 C42.32931 79.74607 45.58365 78.44434 48.67527 76.65445 C51.76689 74.70185 54.53308 72.26109 57.29926 69.33219 C60.87904 65.26427 63.48251 60.87091 65.43511 55.9894 C67.22499 51.1079 68.2013 45.90096 68.2013 40.36858 C68.2013 34.67349 67.22499 29.46655 65.43511 24.74776 C63.48251 19.70354 60.71632 15.31018 57.29926 11.40497 C54.69579 8.31335 51.76689 5.8726 48.67527 3.92 zM29.36639 93.52257 C28.39771 92.55389 26.93939 91.94984 25.56947 91.94984 C24.19955 91.94984 22.74123 92.55389 21.77255 93.52257 C20.80387 94.49125 20.19981 95.94958 20.19981 97.3195 C20.19981 98.68941 20.80387 100.14774 21.77255 101.11642 C22.74123 102.0851 24.19955 102.68915 25.56947 102.68915 C26.93939 102.68915 28.39771 102.0851 29.36639 101.11642 C30.33507 100.14774 30.93913 98.68941 30.93913 97.3195 C30.93913 95.94958 30.33507 94.49125 29.36639 93.52257 zM44.17363 93.52257 C43.20495 92.55389 41.74663 91.94984 40.37671 91.94984 C39.00679 91.94984 37.54846 92.55389 36.57979 93.52257 C35.61111 94.49125 35.00705 95.94958 35.00705 97.3195 C35.00705 98.68941 35.61111 100.14774 36.57979 101.11642 C37.54846 102.0851 39.00679 102.68915 40.37671 102.68915 C41.74663 102.68915 43.20495 102.0851 44.17363 101.11642 C45.14231 100.14774 45.74636 98.68941 45.74636 97.3195 C45.74636 95.94958 45.14231 94.49125 44.17363 93.52257 z" />
<glyph unicode="" horiz-adv-x="61.25183374083133" d="M0.04205 80.23834 C2.78232 80.23834 7.1345 80.23834 12.77621 80.23834 C12.77621 68.31014 12.77621 50.25665 12.77621 26.40026 C12.77621 17.05113 12.77621 18.66305 12.77621 -0.03521 C7.94045 -0.03521 4.55543 1.57671 2.78232 4.96174 C1.0092 8.50796 0.04205 12.69895 0.04205 17.5347 C0.04205 34.94343 0.04205 45.4209 0.04205 80.23834 zM35.02069 26.40026 C35.02069 38.32845 35.02069 56.22075 35.02069 80.23834 C39.69525 80.23834 46.46531 80.23834 55.49205 80.23834 C55.49205 78.62642 55.49205 76.36973 55.49205 73.1459 C53.71894 73.1459 51.13987 73.1459 47.75484 73.1459 C47.75484 57.34909 47.75484 49.2895 47.75484 17.5347 C47.75484 12.69895 46.94889 8.50796 45.17577 5.12293 C43.40266 1.57671 40.01764 -0.03521 35.02069 -0.03521 C35.02069 9.31392 35.02069 7.702 35.02069 26.40026 zM25.99394 87.65316 C22.12534 87.65316 18.74031 89.10389 16.00005 91.84415 C13.42098 94.58441 11.97025 97.96944 11.97025 101.83805 C21.80295 101.83805 4.71662 101.83805 24.38202 101.83805 C28.25063 101.83805 31.63566 100.38732 34.37592 97.64706 C37.11618 94.74561 38.40572 91.52177 38.40572 87.65316 C28.57301 87.65316 45.65935 87.65316 25.99394 87.65316 z" />
<glyph unicode="" horiz-adv-x="60.029339853300826" d="M0.04205 80.38954 C2.7833 80.38954 7.13705 80.38954 12.7808 80.38954 C12.7808 68.45704 12.7808 50.39704 12.7808 26.53204 C12.7808 17.17954 12.7808 18.79204 12.7808 0.08704 C7.9433 0.08704 4.55705 1.69954 2.7833 5.08579 C1.00955 8.63329 0.04205 12.82579 0.04205 17.66329 C0.04205 35.07829 0.04205 45.55954 0.04205 80.38954 zM35.0333 26.53204 C35.0333 38.46454 35.0333 56.36329 35.0333 80.38954 C39.70955 80.38954 46.48205 80.38954 55.51205 80.38954 C55.51205 78.77704 55.51205 76.51954 55.51205 73.29454 C53.7383 73.29454 51.1583 73.29454 47.77205 73.29454 C47.77205 57.49204 47.77205 49.42954 47.77205 17.66329 C47.77205 12.82579 46.9658 8.63329 45.19205 5.24704 C43.4183 1.69954 40.03205 0.08704 35.0333 0.08704 C35.0333 9.43954 35.0333 7.82704 35.0333 26.53204 zM19.39205 87.80704 C19.39205 91.67704 20.68205 94.90204 23.58455 97.80454 C26.3258 100.54579 29.71205 101.99704 33.58205 101.99704 C53.25455 101.99704 36.16205 101.99704 45.9983 101.99704 C45.83705 98.12704 44.54705 94.74079 41.8058 91.99954 C39.06455 89.25829 35.6783 87.80704 31.8083 87.80704 C12.1358 87.80704 29.2283 87.80704 19.39205 87.80704 z" />
<glyph unicode="" horiz-adv-x="61.496332518337454" d="M0.04205 80.4185 C2.78429 80.4185 7.13961 80.4185 12.7854 80.4185 C12.7854 68.48169 12.7854 50.41518 12.7854 26.54158 C12.7854 17.1857 12.7854 18.79879 12.7854 0.08704 C7.94615 0.08704 4.55868 1.70012 2.78429 5.08759 C1.0099 8.63637 0.04205 12.83038 0.04205 17.66963 C0.04205 35.09091 0.04205 45.57594 0.04205 80.4185 zM35.04592 26.54158 C35.04592 38.47838 35.04592 56.38358 35.04592 80.4185 C39.72386 80.4185 46.4988 80.4185 55.53205 80.4185 C55.53205 78.80541 55.53205 76.5471 55.53205 73.32094 C53.75766 73.32094 51.17673 73.32094 47.78926 73.32094 C47.78926 57.51274 47.78926 49.44733 47.78926 17.66963 C47.78926 12.83038 46.98272 8.63637 45.20833 5.2489 C43.43394 1.70012 40.04647 0.08704 35.04592 0.08704 C35.04592 9.44291 35.04592 7.82983 35.04592 26.54158 zM19.39903 87.83867 C19.39903 91.71006 20.6895 94.93623 23.59304 97.83977 C26.33528 100.58201 29.72275 102.03379 33.59415 102.03379 C53.27374 102.03379 36.17508 102.03379 46.01487 102.03379 C45.85357 98.16239 44.5631 94.77492 41.82086 92.03268 C39.07862 89.29044 35.69115 87.83867 31.81976 87.83867 C12.14016 87.83867 29.23883 87.83867 19.39903 87.83867 z" />
<glyph unicode="" horiz-adv-x="61.374083129584392" d="M0.04205 80.40054 C2.7833 80.40054 7.13705 80.40054 12.7808 80.40054 C12.7808 68.46804 12.7808 50.40804 12.7808 26.54304 C12.7808 17.19054 12.7808 18.80304 12.7808 0.09804 C7.9433 0.09804 4.55705 1.71054 2.7833 5.09679 C1.00955 8.64429 0.04205 12.83679 0.04205 17.83554 C0.04205 35.25054 0.04205 45.57054 0.04205 80.40054 zM35.0333 26.70429 C35.0333 38.63679 35.0333 56.53554 35.0333 80.56179 C39.70955 80.56179 46.48205 80.56179 55.51205 80.56179 C55.51205 78.94929 55.51205 76.69179 55.51205 73.46679 C53.7383 73.46679 51.1583 73.46679 47.77205 73.46679 C47.77205 57.66429 47.77205 49.60179 47.77205 17.83554 C47.77205 12.99804 46.9658 8.80554 45.19205 5.41929 C43.4183 1.87179 40.03205 0.25929 35.0333 0.25929 C35.0333 9.61179 35.0333 7.99929 35.0333 26.70429 zM21.21975 91.3116 C20.2598 90.35166 18.81462 89.75304 17.45705 89.75304 C16.09948 89.75304 14.65431 90.35166 13.69436 91.3116 C12.73442 92.27155 12.1358 93.71672 12.1358 95.07429 C12.1358 96.43186 12.73442 97.87704 13.69436 98.83699 C14.65431 99.79693 16.09948 100.39554 17.45705 100.39554 C18.81462 100.39554 20.2598 99.79693 21.21975 98.83699 C22.17969 97.87704 22.7783 96.43186 22.7783 95.07429 C22.7783 93.71672 22.17969 92.27155 21.21975 91.3116 zM35.8935 91.3116 C34.93355 90.35166 33.48837 89.75304 32.1308 89.75304 C30.77323 89.75304 29.32806 90.35166 28.36811 91.3116 C27.40817 92.27155 26.80955 93.71672 26.80955 95.07429 C26.80955 96.43186 27.40817 97.87704 28.36811 98.83699 C29.32806 99.79693 30.77323 100.39554 32.1308 100.39554 C33.48837 100.39554 34.93355 99.79693 35.8935 98.83699 C36.85344 97.87704 37.45205 96.43186 37.45205 95.07429 C37.45205 93.71672 36.85344 92.27155 35.8935 91.3116 z" />
<glyph unicode="" horiz-adv-x="52.515892420537853" d="M38.96577 42.36 L38.96577 6.24538 L45.89 6.24538 L45.89 0.27154 L26.74654 0.27154 L26.74654 53.49308 L27.69692 53.49308 C30.68385 53.49308 33.39923 52.40692 35.57154 50.23462 C37.87962 48.06231 38.96577 45.34692 38.96577 42.36 zM8.28192 0.95038 C6.65269 1.49346 5.15923 2.44385 3.80154 3.39423 C2.57962 4.61615 1.62923 5.97385 0.95038 7.33154 C0.27154 8.825 0 10.45423 0 12.08346 C0 15.74923 1.08615 19.00769 3.12269 21.85885 C5.43077 24.71 8.825 27.15385 13.30538 29.05462 C13.98423 29.32615 14.66308 29.59769 15.47769 29.86923 C16.29231 30.14077 17.24269 30.41231 18.19308 30.68385 L20.50115 31.22692 L18.46462 30.14077 C17.78577 29.86923 17.10692 29.46192 16.56385 29.19038 C15.885 28.78308 15.20615 28.24 14.39154 27.42538 C13.30538 26.33923 12.49077 24.57423 11.81192 22.13038 C11.13308 19.68654 10.86154 17.51423 10.86154 15.61346 C10.86154 14.25577 10.99731 12.62654 11.13308 10.72577 C11.40462 8.825 11.81192 7.46731 12.49077 6.51692 C13.44115 4.75192 14.52731 3.53 15.61346 2.71538 C16.69962 1.90077 17.78577 1.35769 18.87192 1.22192 L18.87192 0.67885 C18.87192 0.67885 18.73615 0.67885 18.60038 0.54308 C17.78577 0.40731 16.97115 0.27154 16.15654 0.13577 C15.34192 0 14.52731 0 13.71269 0 C11.67615 0 9.91115 0.40731 8.28192 0.95038 zM14.54261 41.12278 C13.46493 40.0451 11.84252 39.37308 10.31846 39.37308 C8.7944 39.37308 7.17199 40.0451 6.09431 41.12278 C5.01664 42.20045 4.34462 43.82286 4.34462 45.34692 C4.34462 46.87098 5.01664 48.4934 6.09431 49.57107 C7.17199 50.64874 8.7944 51.32077 10.31846 51.32077 C11.84252 51.32077 13.46493 50.64874 14.54261 49.57107 C15.62028 48.4934 16.29231 46.87098 16.29231 45.34692 C16.29231 43.82286 15.62028 42.20045 14.54261 41.12278 zM22.945 57.70192 C19.68654 57.70192 16.83538 58.92385 14.52731 61.23192 C12.355 63.54 11.13308 66.39115 11.13308 69.64962 C19.415 69.64962 5.02346 69.64962 21.58731 69.64962 C24.84577 69.64962 27.69692 68.42769 30.005 66.11962 C32.31308 63.67577 33.39923 60.96038 33.39923 57.70192 C25.11731 57.70192 39.50885 57.70192 22.945 57.70192 z" />
<glyph unicode="" horiz-adv-x="56" d="M39.22271 42.39368 L39.22271 6.01937 L46.19673 6.01937 L46.19673 0.00256 L26.91561 0.00256 L26.91561 53.60682 L27.87283 53.60682 C30.88123 53.60682 33.61614 52.51286 35.80407 50.32493 C38.12874 48.137 39.22271 45.40209 39.22271 42.39368 zM8.31821 0.68629 C6.67726 1.23327 5.17306 2.19049 3.80561 3.14771 C2.5749 4.37842 1.61768 5.74587 0.93395 7.11333 C0.25022 8.61753 -0.02327 10.25848 -0.02327 11.89942 C-0.02327 15.59155 1.0707 18.87345 3.12188 21.7451 C5.44655 24.61676 8.86519 27.07818 13.3778 28.99262 C14.06152 29.26611 14.74525 29.5396 15.56572 29.81309 C16.3862 30.08658 17.34342 30.36008 18.30064 30.63357 L20.62531 31.18055 L18.57413 30.08658 C17.8904 29.81309 17.20667 29.40286 16.65969 29.12937 C15.97596 28.71913 15.29223 28.17215 14.47176 27.35167 C13.3778 26.25771 12.55732 24.48002 11.87359 22.0186 C11.18987 19.55718 10.91638 17.36925 10.91638 15.45481 C10.91638 14.08735 11.05312 12.44641 11.18987 10.53197 C11.46336 8.61753 11.87359 7.25008 12.55732 6.29286 C13.51454 4.51516 14.60851 3.28445 15.70247 2.46398 C16.79643 1.64351 17.8904 1.09653 18.98436 0.95978 L18.98436 0.4128 C18.98436 0.4128 18.84762 0.4128 18.71087 0.27605 C17.8904 0.13931 17.06993 0.00256 16.24945 -0.13419 C15.42898 -0.27093 14.60851 -0.27093 13.78803 -0.27093 C11.73685 -0.27093 9.95916 0.13931 8.31821 0.68629 zM14.62392 41.14756 C13.53849 40.06214 11.90441 39.38528 10.36939 39.38528 C8.83437 39.38528 7.20029 40.06214 6.11487 41.14756 C5.02945 42.23299 4.35259 43.86707 4.35259 45.40209 C4.35259 46.93711 5.02945 48.57119 6.11487 49.65661 C7.20029 50.74203 8.83437 51.41889 10.36939 51.41889 C11.90441 51.41889 13.53849 50.74203 14.62392 49.65661 C15.70934 48.57119 16.3862 46.93711 16.3862 45.40209 C16.3862 43.86707 15.70934 42.23299 14.62392 41.14756 zM11.18987 57.84593 C11.18987 61.12783 12.42058 63.86274 14.74525 66.32416 C17.06993 68.64883 19.94158 69.87954 23.22348 69.87954 C39.90643 69.87954 25.41141 69.87954 33.75288 69.87954 C33.61614 66.59765 32.52217 63.72599 30.1975 61.40132 C27.87283 59.07664 25.00117 57.84593 21.71928 57.84593 C5.03632 57.84593 19.53135 57.84593 11.18987 57.84593 z" />
<glyph unicode="" horiz-adv-x="54.144254278728567" d="M39.21201 42.49363 L39.21201 6.15079 L46.18 6.15079 L46.18 0.13919 L26.91556 0.13919 L26.91556 53.69706 L27.87195 53.69706 C30.87775 53.69706 33.6103 52.60405 35.79633 50.41801 C38.11899 48.23198 39.21201 45.49943 39.21201 42.49363 zM8.33426 0.95896 C6.69473 1.50547 5.19183 2.32523 3.82556 3.41825 C2.59592 4.64789 1.63953 6.01416 0.95639 7.38044 C0.27325 8.88334 0 10.52286 0 12.16239 C0 15.7147 1.09302 18.99375 3.14243 21.99955 C5.46509 24.86872 8.88077 27.32801 13.38947 29.24079 C14.0726 29.51405 14.75574 29.7873 15.5755 30.06056 C16.39527 30.33381 17.35166 30.60706 18.30805 30.88032 L20.63071 31.42683 L18.5813 30.33381 C17.89817 30.06056 17.21503 29.65067 16.66852 29.37742 C15.98538 28.96754 15.30225 28.42103 14.48249 27.60127 C13.38947 26.50825 12.5697 24.73209 11.88657 22.2728 C11.20343 19.81351 10.93018 17.62748 10.93018 15.7147 C10.93018 14.34843 11.0668 12.7089 11.20343 10.79612 C11.47669 8.88334 11.88657 7.51706 12.5697 6.56067 C13.52609 4.78452 14.61911 3.55487 15.71213 2.73511 C16.80515 1.91535 17.89817 1.36884 18.99118 1.23221 L18.99118 0.6857 C18.99118 0.6857 18.85456 0.6857 18.71793 0.54908 C17.89817 0.41245 17.0784 0.27582 16.25864 0.13919 C15.43888 0.00257 14.61911 0.00257 13.79935 0.00257 C11.74994 0.00257 9.97379 0.41245 8.33426 0.95896 zM14.63451 41.38522 C13.55003 40.30073 11.91736 39.62446 10.38367 39.62446 C8.84998 39.62446 7.21731 40.30073 6.13283 41.38522 C5.04834 42.4697 4.37207 44.10237 4.37207 45.63606 C4.37207 47.16975 5.04834 48.80242 6.13283 49.8869 C7.21731 50.97138 8.84998 51.64766 10.38367 51.64766 C11.91736 51.64766 13.55003 50.97138 14.63451 49.8869 C15.71899 48.80242 16.39527 47.16975 16.39527 45.63606 C16.39527 44.10237 15.71899 42.4697 14.63451 41.38522 zM21.17722 69.81908 L29.64811 60.93831 L11.88657 60.93831 L21.17722 69.81908 z" />
<glyph unicode="" horiz-adv-x="56" d="M39.16246 42.39362 L39.16246 6.10587 L46.11988 6.10587 L46.11988 0.10338 L26.88465 0.10338 L26.88465 53.58007 L27.83959 53.58007 C30.84083 53.58007 33.56923 52.48871 35.75196 50.30599 C38.0711 48.12327 39.16246 45.39486 39.16246 42.39362 zM8.33151 0.9219 C6.69447 1.46758 5.19385 2.28611 3.82965 3.37747 C2.60187 4.60525 1.64693 5.96945 0.96483 7.33365 C0.28272 8.83427 0.00988 10.47131 0.00988 12.10835 C0.00988 15.65528 1.10125 18.92936 3.14755 21.9306 C5.46669 24.79543 8.87719 27.25099 13.37906 29.16087 C14.06116 29.43371 14.74326 29.70655 15.56178 29.97939 C16.3803 30.25223 17.33524 30.52507 18.29018 30.79791 L20.60932 31.34359 L18.56302 30.25223 C17.88092 29.97939 17.19882 29.57013 16.65314 29.29729 C15.97104 28.88803 15.28894 28.34235 14.47042 27.52383 C13.37906 26.43247 12.56054 24.65901 11.87843 22.20344 C11.19633 19.74788 10.92349 17.56516 10.92349 15.65528 C10.92349 14.29108 11.05991 12.65403 11.19633 10.74415 C11.46917 8.83427 11.87843 7.47007 12.56054 6.51513 C13.51548 4.74167 14.60684 3.51389 15.6982 2.69537 C16.78956 1.87685 17.88092 1.33116 18.97228 1.19474 L18.97228 0.64906 C18.97228 0.64906 18.83586 0.64906 18.69944 0.51264 C17.88092 0.37622 17.0624 0.2398 16.24388 0.10338 C15.42536 -0.03304 14.60684 -0.03304 13.78832 -0.03304 C11.74201 -0.03304 9.96855 0.37622 8.33151 0.9219 zM14.62221 41.28689 C13.53937 40.20404 11.90918 39.5288 10.37781 39.5288 C8.84645 39.5288 7.21626 40.20404 6.13342 41.28689 C5.05057 42.36973 4.37533 43.99992 4.37533 45.53128 C4.37533 47.06265 5.05057 48.69284 6.13342 49.77568 C7.21626 50.85852 8.84645 51.53377 10.37781 51.53377 C11.90918 51.53377 13.53937 50.85852 14.62221 49.77568 C15.70505 48.69284 16.3803 47.06265 16.3803 45.53128 C16.3803 43.99992 15.70505 42.36973 14.62221 41.28689 zM18.77258 60.30004 C17.68722 59.21468 16.05323 58.53786 14.5183 58.53786 C12.98337 58.53786 11.34939 59.21468 10.26402 60.30004 C9.17866 61.3854 8.50185 63.01939 8.50185 64.55432 C8.50185 66.08925 9.17866 67.72323 10.26402 68.80859 C11.34939 69.89395 12.98337 70.57077 14.5183 70.57077 C16.05323 70.57077 17.68722 69.89395 18.77258 68.80859 C19.85794 67.72323 20.53475 66.08925 20.53475 64.55432 C20.53475 63.01939 19.85794 61.3854 18.77258 60.30004 zM33.97558 60.09605 C32.89022 59.01069 31.25624 58.33387 29.72131 58.33387 C28.18638 58.33387 26.55239 59.01069 25.46703 60.09605 C24.38167 61.18141 23.70485 62.8154 23.70485 64.35033 C23.70485 65.88526 24.38167 67.51924 25.46703 68.6046 C26.55239 69.68996 28.18638 70.36678 29.72131 70.36678 C31.25624 70.36678 32.89022 69.68996 33.97558 68.6046 C35.06094 67.51924 35.73776 65.88526 35.73776 64.35033 C35.73776 62.8154 35.06094 61.18141 33.97558 60.09605 z" />
<glyph unicode="" horiz-adv-x="44.137064079724439" d="M34.76127 41.50063 C33.70057 40.43994 32.10373 39.77851 30.60368 39.77851 C29.10363 39.77851 27.50679 40.43994 26.44609 41.50063 C25.3854 42.56133 24.72396 44.15818 24.72396 45.65822 C24.72396 47.15827 25.3854 48.75512 26.44609 49.81581 C27.50679 50.8765 29.10363 51.53794 30.60368 51.53794 C32.10373 51.53794 33.70057 50.8765 34.76127 49.81581 C35.82196 48.75512 36.4834 47.15827 36.4834 45.65822 C36.4834 44.15818 35.82196 42.56133 34.76127 41.50063 zM22.12595 0.53482 L23.08311 -0.14887 L21.98921 -0.01213 C8.31545 1.49198 -2.0766 12.8412 -2.0766 26.6517 C-2.0766 40.46219 8.31545 51.94815 21.85247 53.31553 L22.94638 53.45226 L22.12595 53.04205 C16.51971 49.48687 12.69106 38.68461 12.69106 26.78844 C12.69106 14.75553 16.51971 3.95326 22.12595 0.53482 zM29.09957 -15.60022 C29.09957 -18.88192 27.86893 -21.75341 25.54439 -24.07795 C23.21985 -26.40249 20.34836 -27.49639 17.06666 -27.63313 C17.06666 -19.29213 17.06666 -33.78632 17.06666 -17.10433 C17.06666 -13.82263 18.2973 -10.95114 20.62184 -8.6266 C22.94638 -6.16532 25.81786 -5.07142 29.09957 -5.07142 C29.09957 -13.41242 29.09957 1.08177 29.09957 -15.60022 z" />
<glyph unicode="" horiz-adv-x="56" d="M40.50521 42.46019 L40.50521 40.23546 C40.50521 36.89835 39.39284 34.11743 37.02906 31.75365 C34.80432 29.52891 31.88435 28.41654 28.68629 28.41654 L28.4082 28.41654 L28.4082 28.69464 C28.4082 34.25648 28.4082 42.59924 28.54725 53.44483 L28.54725 53.72293 L29.38152 53.72293 C32.44054 53.72293 35.08241 52.61056 37.1681 50.38582 C39.39284 48.16108 40.50521 45.51921 40.50521 42.46019 zM23.81968 -0.0879 L22.70731 0.05115 C8.80271 1.44161 -1.76479 13.12148 -1.76479 27.16513 C-1.76479 41.20878 8.80271 52.88865 22.70731 54.27911 L23.81968 54.41816 L22.84636 53.86197 C17.14547 50.38582 13.25218 39.40118 13.25218 27.16513 C13.25218 14.92908 17.14547 3.94444 22.84636 0.46829 C23.1708 0.28289 23.49524 0.0975 23.81968 -0.0879 zM23.12445 58.72858 C19.78735 58.72858 16.86738 59.98 14.5036 62.34378 C12.27886 64.70756 11.02744 67.62753 11.02744 70.96464 C19.50925 70.96464 4.77037 70.96464 21.73399 70.96464 C25.0711 70.96464 27.99106 69.71322 30.35485 67.34944 C32.71863 64.84661 33.831 62.06569 33.831 58.72858 C25.34919 58.72858 40.08807 58.72858 23.12445 58.72858 z" />
<glyph unicode="" horiz-adv-x="51" d="M39.93289 42.42987 L39.93289 40.21145 C39.93289 36.88382 38.82367 34.11079 36.4666 31.75372 C34.24818 29.5353 31.3365 28.42609 28.14752 28.42609 L27.87022 28.42609 L27.87022 28.70339 C27.87022 34.24944 27.87022 42.56852 28.00887 53.38332 L28.00887 53.66063 L28.84078 53.66063 C31.89111 53.66063 34.52548 52.55142 36.60525 50.33299 C38.82367 48.11457 39.93289 45.4802 39.93289 42.42987 zM23.29473 0.00257 L22.18552 0.14122 C8.32039 1.52773 -2.21711 13.17444 -2.21711 27.17823 C-2.21711 41.18201 8.32039 52.82872 22.18552 54.21523 L23.29473 54.35388 L22.32417 53.79928 C16.63946 50.33299 12.75723 39.37954 12.75723 27.17823 C12.75723 14.97691 16.63946 4.02346 22.32417 0.55717 C22.64769 0.3723 22.97121 0.18744 23.29473 0.00257 zM12.61858 58.65207 C12.61858 61.97971 13.72779 64.75273 16.22351 67.24846 C18.58058 69.60553 21.49226 70.85339 24.81989 70.85339 C41.73535 70.85339 27.03831 70.85339 35.49604 70.85339 C35.35739 67.52576 34.24818 64.61408 31.89111 62.25701 C29.53404 59.89994 26.62236 58.65207 23.29473 58.65207 C6.37927 58.65207 21.07631 58.65207 12.61858 58.65207 z" />
<glyph unicode="" horiz-adv-x="56" d="M39.27056 42.31849 L39.27056 40.11112 C39.27056 36.80007 38.16688 34.04086 35.82155 31.69553 C33.61418 29.48816 30.71701 28.38448 27.54392 28.38448 L27.268 28.38448 L27.268 28.6604 C27.268 34.17882 27.268 42.45645 27.40596 53.21737 L27.40596 53.49329 L28.23372 53.49329 C31.26885 53.49329 33.8901 52.38961 35.95951 50.18224 C38.16688 47.97487 39.27056 45.35362 39.27056 42.31849 zM22.7153 0.10257 L21.61161 0.24053 C7.81556 1.62013 -2.66944 13.20882 -2.66944 27.14283 C-2.66944 41.07684 7.81556 52.66553 21.61161 54.04513 L22.7153 54.18309 L21.74958 53.63125 C16.09319 50.18224 12.2303 39.28336 12.2303 27.14283 C12.2303 15.0023 16.09319 4.10342 21.74958 0.65441 C22.07148 0.47046 22.39339 0.28651 22.7153 0.10257 zM21.88754 70.32448 L30.44109 61.35704 L12.36826 61.35704 L21.88754 70.32448 z" />
<glyph unicode="" horiz-adv-x="56" d="M40.03335 42.53761 L40.03335 40.31867 C40.03335 36.99024 38.92388 34.21656 36.56624 31.85893 C34.3473 29.63998 31.43493 28.53051 28.24519 28.53051 L27.96782 28.53051 L27.96782 28.80788 C27.96782 34.35524 27.96782 42.6763 28.10651 53.49367 L28.10651 53.77103 L28.93861 53.77103 C31.98967 53.77103 34.62467 52.66156 36.70493 50.44261 C38.92388 48.22367 40.03335 45.58867 40.03335 42.53761 zM23.39124 0.10024 L22.28177 0.10024 C8.41335 1.62577 -2.12665 13.27524 -2.12665 27.28235 C-2.12665 41.28946 8.41335 52.93893 22.28177 54.32577 L23.39124 54.46446 L22.42045 53.90972 C16.7344 50.44261 12.85124 39.48656 12.85124 27.28235 C12.85124 15.07814 16.7344 4.12209 22.42045 0.65498 C22.74405 0.47007 23.06765 0.28516 23.39124 0.10024 zM21.57698 62.74259 C20.49162 61.65722 18.85763 60.98041 17.3227 60.98041 C15.78777 60.98041 14.15379 61.65722 13.06843 62.74259 C11.98307 63.82795 11.30625 65.46193 11.30625 66.99686 C11.30625 68.53179 11.98307 70.16578 13.06843 71.25114 C14.15379 72.3365 15.78777 73.01331 17.3227 73.01331 C18.85763 73.01331 20.49162 72.3365 21.57698 71.25114 C22.66234 70.16578 23.33916 68.53179 23.33916 66.99686 C23.33916 65.46193 22.66234 63.82795 21.57698 62.74259 zM36.77998 62.53859 C35.69462 61.45323 34.06064 60.77642 32.52571 60.77642 C30.99078 60.77642 29.35679 61.45323 28.27143 62.53859 C27.18607 63.62396 26.50926 65.25794 26.50926 66.79287 C26.50926 68.3278 27.18607 69.96179 28.27143 71.04715 C29.35679 72.13251 30.99078 72.80932 32.52571 72.80932 C34.06064 72.80932 35.69462 72.13251 36.77998 71.04715 C37.86535 69.96179 38.54216 68.3278 38.54216 66.79287 C38.54216 65.25794 37.86535 63.62396 36.77998 62.53859 z" />
<glyph unicode="" horiz-adv-x="56" d="M5.08398 53.63014 C1.74688 53.63014 -1.17309 54.88155 -3.53687 57.24534 C-5.76161 59.60912 -7.01302 62.52909 -7.01302 65.86619 C1.46879 65.86619 -13.2701 65.86619 3.69352 65.86619 C7.03063 65.86619 9.9506 64.61478 12.31438 62.251 C14.67816 59.74817 15.79053 56.96725 15.79053 53.63014 C7.30872 53.63014 22.0476 53.63014 5.08398 53.63014 zM19.09477 6.11558 L19.09477 0.09912 L-0.18523 0.09912 L-0.09477 36.25917 C-0.09477 39.54087 0.99913 42.41236 3.32367 44.7369 C5.238 46.51449 7.4258 47.74513 10.02381 48.15534 C10.57076 48.29208 11.25445 48.29208 11.93814 48.29208 L12.21162 48.29208 L12.12115 6.11558 C14.44569 6.11558 16.77023 6.11558 19.09477 6.11558 z" />
<glyph unicode="" horiz-adv-x="56" d="M-1.16978 53.55704 C-1.16978 56.88468 -0.06057 59.6577 2.43515 62.15343 C4.79222 64.5105 7.7039 65.75836 11.03153 65.75836 C27.94699 65.75836 13.24995 65.75836 21.70768 65.75836 C21.56903 62.43073 20.45982 59.51905 18.10275 57.16198 C15.74568 54.80491 12.834 53.55704 9.50637 53.55704 C-7.40909 53.55704 7.28795 53.55704 -1.16978 53.55704 zM19.2757 6.02511 L19.2757 0.00866 L-0.0043 0.00866 L0.08616 36.1687 C0.08616 39.45041 1.18006 42.3219 3.5046 44.64643 C5.41893 46.42402 7.60673 47.65466 10.20474 48.06487 C10.75169 48.20161 11.43538 48.20161 12.11907 48.20161 L12.39254 48.20161 L12.30208 6.02511 C14.62662 6.02511 16.95116 6.02511 19.2757 6.02511 z" />
<glyph unicode="" horiz-adv-x="56" d="M7.94741 62.51306 L16.50096 53.54562 L-1.57187 53.54562 L7.94741 62.51306 zM19.2757 6.02511 L19.2757 0.00866 L-0.0043 0.00866 L0.08616 36.1687 C0.08616 39.45041 1.18006 42.3219 3.5046 44.64643 C5.41893 46.42402 7.60673 47.65466 10.20474 48.06487 C10.75169 48.20161 11.43538 48.20161 12.11907 48.20161 L12.39254 48.20161 L12.30208 6.02511 C14.62662 6.02511 16.95116 6.02511 19.2757 6.02511 z" />
<glyph unicode="" horiz-adv-x="56" d="M3.57205 55.42649 C2.48669 54.34113 0.85271 53.66431 -0.68223 53.66431 C-2.21716 53.66431 -3.85114 54.34113 -4.9365 55.42649 C-6.02186 56.51185 -6.69868 58.14583 -6.69868 59.68076 C-6.69868 61.21569 -6.02186 62.84968 -4.9365 63.93504 C-3.85114 65.0204 -2.21716 65.69722 -0.68223 65.69722 C0.85271 65.69722 2.48669 65.0204 3.57205 63.93504 C4.65741 62.84968 5.33423 61.21569 5.33423 59.68076 C5.33423 58.14583 4.65741 56.51185 3.57205 55.42649 zM18.77506 55.2225 C17.6897 54.13714 16.05571 53.46032 14.52078 53.46032 C12.98585 53.46032 11.35187 54.13714 10.26651 55.2225 C9.18115 56.30786 8.50433 57.94184 8.50433 59.47677 C8.50433 61.0117 9.18115 62.64569 10.26651 63.73105 C11.35187 64.81641 12.98585 65.49323 14.52078 65.49323 C16.05571 65.49323 17.6897 64.81641 18.77506 63.73105 C19.86042 62.64569 20.53724 61.0117 20.53724 59.47677 C20.53724 57.94184 19.86042 56.30786 18.77506 55.2225 zM19.2757 6.02511 L19.2757 0.00866 L-0.0043 0.00866 L0.08616 36.1687 C0.08616 39.45041 1.18006 42.3219 3.5046 44.64643 C5.41893 46.42402 7.60673 47.65466 10.20474 48.06487 C10.75169 48.20161 11.43538 48.20161 12.11907 48.20161 L12.39254 48.20161 L12.30208 6.02511 C14.62662 6.02511 16.95116 6.02511 19.2757 6.02511 z" />
<glyph unicode="" horiz-adv-x="56" d="M21.42144 61.72814 C18.12335 61.72814 15.23753 62.96492 12.90138 65.30107 C10.56524 67.63721 9.46587 70.52304 9.32845 73.82113 C17.71109 73.82113 3.14454 73.82113 19.90982 73.82113 C23.2079 73.82113 26.09373 72.58434 28.42987 70.2482 C30.76602 67.77463 32.0028 65.02623 32.0028 61.72814 C23.62016 61.72814 38.18672 61.72814 21.42144 61.72814 zM12.30474 53.93525 L12.30474 0.06649 L-7.07152 0.06649 L-7.07152 6.2504 L0.07434 6.2504 L0.07434 41.84226 C0.07434 45.14035 1.1737 48.02617 3.50985 50.36232 C5.84599 52.69846 8.73182 53.93525 12.0299 53.93525 C12.12152 53.93525 12.21313 53.93525 12.30474 53.93525 zM28.01778 44.39932 L15.22546 44.39932 L27.58168 52.39452 C27.72705 52.53989 27.87241 52.53989 28.01778 52.68525 C28.01778 52.68525 28.16315 52.68525 28.16315 52.68525 C32.96027 55.30186 39.06569 52.97599 40.51936 47.5974 C40.66473 46.87056 40.8101 46.14373 40.8101 45.41689 C40.8101 45.27152 40.8101 45.12616 40.8101 44.98079 C40.8101 44.83542 40.8101 44.54469 40.8101 44.39932 L40.95546 0.06232 L28.01778 0.06232 C28.01778 14.84132 28.01778 29.62032 28.01778 44.39932 z" />
<glyph unicode="" horiz-adv-x="56" d="M8.00062 26.81774 C8.00062 14.81774 11.8188 4.18137 17.40971 0.63592 L18.36426 0.09046 L17.27335 0.22683 C3.63699 1.59046 -6.72665 13.04501 -6.72665 26.81774 C-6.72665 40.59046 3.63699 52.04501 17.27335 53.40865 L18.36426 53.54501 L17.40971 52.99956 C11.8188 49.4541 8.00062 38.81774 8.00062 26.81774 zM23.27335 53.40865 C36.90971 52.04501 47.27335 40.59046 47.27335 26.81774 C47.27335 13.04501 36.90971 1.59046 23.27335 0.22683 L22.18244 0.09046 L23.13699 0.63592 C28.7279 4.18137 32.54608 14.81774 32.54608 26.81774 C32.54608 38.81774 28.7279 49.59046 23.13699 52.99956 L22.18244 53.54501 C22.54608 53.49956 22.90971 53.4541 23.27335 53.40865 zM18.90971 61.72683 C15.63699 61.72683 12.77335 62.9541 10.45517 65.27228 C8.27335 67.59046 7.04608 70.4541 7.04608 73.72683 C15.36426 73.72683 0.90971 73.72683 17.54608 73.72683 C20.8188 73.72683 23.68244 72.49956 26.00062 70.18137 C28.3188 67.72683 29.40971 64.99956 29.40971 61.72683 C21.09153 61.72683 35.54608 61.72683 18.90971 61.72683 z" />
<glyph unicode="" horiz-adv-x="56" d="M10.45135 26.83259 C10.45135 14.82592 14.27165 4.18365 19.86567 0.63622 L20.82074 0.09046 L19.72923 0.2269 C6.08529 1.5913 -4.28411 13.05221 -4.28411 26.83259 C-4.28411 40.61296 6.08529 52.07387 19.72923 53.43827 L20.82074 53.57471 L19.86567 53.02895 C14.27165 49.48153 10.45135 38.83925 10.45135 26.83259 zM25.73256 53.43827 C39.3765 52.07387 49.74589 40.61296 49.74589 26.83259 C49.74589 13.05221 39.3765 1.5913 25.73256 0.2269 L24.64104 0.09046 L25.59612 0.63622 C31.19013 4.18365 35.01044 14.82592 35.01044 26.83259 C35.01044 38.83925 31.19013 49.61796 25.59612 53.02895 L24.64104 53.57471 C25.00488 53.52923 25.36872 53.48375 25.73256 53.43827 zM12.49794 61.76107 C12.49794 65.03562 13.72589 67.7644 16.04536 70.22031 C18.36483 72.53978 21.23006 73.76774 24.5046 73.76774 C41.15021 73.76774 26.68763 73.76774 35.01044 73.76774 C34.874 70.49319 33.78248 67.62796 31.46301 65.30849 C29.14354 62.98903 26.27832 61.76107 23.00377 61.76107 C6.35817 61.76107 20.82074 61.76107 12.49794 61.76107 z" />
<glyph unicode="" horiz-adv-x="56" d="M11.07642 26.82727 C11.07642 14.82727 14.8946 4.05455 20.48551 0.64545 L21.44005 0.1 L20.34914 0.23636 C6.71278 1.6 -3.65086 13.05455 -3.65086 26.82727 C-3.65086 40.6 6.71278 51.91818 20.34914 53.41818 L21.44005 53.55455 L20.48551 53.00909 C14.8946 49.46364 11.07642 38.82727 11.07642 26.82727 zM26.34914 53.41818 C39.98551 51.91818 50.34914 40.6 50.34914 26.82727 C50.34914 13.05455 39.98551 1.6 26.34914 0.23636 L25.25824 0.1 L26.21278 0.64545 C31.80369 4.19091 35.62187 14.82727 35.62187 26.82727 C35.62187 38.82727 31.80369 49.6 26.21278 53.00909 L25.25824 53.55455 C25.62187 53.50909 25.98551 53.46364 26.34914 53.41818 zM23.62187 73.46364 L32.07642 64.6 L14.34914 64.6 L23.62187 73.46364 z" />
<glyph unicode="" horiz-adv-x="56" d="M11.90696 26.76418 C11.90696 14.75085 15.72939 3.96615 21.32651 0.55327 L22.28211 0.00721 L21.18999 0.14373 C7.53848 1.50888 -2.83667 12.97615 -2.83667 26.76418 C-2.83667 40.55221 7.53848 51.88297 21.18999 53.38464 L22.28211 53.52115 L21.32651 52.97509 C15.72939 49.4257 11.90696 38.77752 11.90696 26.76418 zM27.19666 53.38464 C40.84817 51.88297 51.22333 40.55221 51.22333 26.76418 C51.22333 12.97615 40.84817 1.50888 27.19666 0.14373 L26.10454 0.00721 L27.06014 0.55327 C32.65726 4.10267 36.47969 14.75085 36.47969 26.76418 C36.47969 38.77752 32.65726 49.56221 27.06014 52.97509 L26.10454 53.52115 C26.46858 53.47565 26.83262 53.43014 27.19666 53.38464 zM36.2372 59.91512 C35.15184 58.82976 33.51785 58.15294 31.98292 58.15294 C30.44799 58.15294 28.81401 58.82976 27.72865 59.91512 C26.64329 61.00048 25.96647 62.63447 25.96647 64.1694 C25.96647 65.70433 26.64329 67.33831 27.72865 68.42367 C28.81401 69.50903 30.44799 70.18585 31.98292 70.18585 C33.51785 70.18585 35.15184 69.50903 36.2372 68.42367 C37.32256 67.33831 37.99938 65.70433 37.99938 64.1694 C37.99938 62.63447 37.32256 61.00048 36.2372 59.91512 zM21.03419 60.11911 C19.94883 59.03375 18.31485 58.35693 16.77991 58.35693 C15.24498 58.35693 13.611 59.03375 12.52564 60.11911 C11.44028 61.20447 10.76346 62.83846 10.76346 64.37339 C10.76346 65.90832 11.44028 67.5423 12.52564 68.62766 C13.611 69.71302 15.24498 70.38984 16.77991 70.38984 C18.31485 70.38984 19.94883 69.71302 21.03419 68.62766 C22.11955 67.5423 22.79637 65.90832 22.79637 64.37339 C22.79637 62.83846 22.11955 61.20447 21.03419 60.11911 z" />
<glyph unicode="" horiz-adv-x="56" d="M-0.01528 12.04452 L-0.01528 53.65287 L12.30298 53.65287 L12.30298 0 L12.02924 0 C8.6075 0 5.73324 1.23183 3.40646 3.55861 C1.07968 5.88539 -0.01528 8.75965 -0.01528 12.04452 zM27.90611 0 L27.90611 53.516 L47.20472 53.516 L47.20472 47.49374 L40.0875 47.49374 L40.0875 11.90765 C40.0875 8.62278 38.99254 5.74852 36.66576 3.42174 C34.33898 1.09496 31.46472 0 28.17985 0 C28.0886 0 27.99736 0 27.90611 0 zM18.46211 61.86504 C15.17724 61.86504 12.30298 63.09687 9.9762 65.42365 C7.78628 67.75043 6.55446 70.6247 6.55446 73.90957 C14.9035 73.90957 0.39533 73.90957 17.09341 73.90957 C20.37828 73.90957 23.25254 72.67774 25.57933 70.35096 C27.76924 67.8873 29.00107 65.14991 29.00107 61.86504 C20.65202 61.86504 35.1602 61.86504 18.46211 61.86504 z" />
<glyph unicode="" horiz-adv-x="56" d="M-0.01528 12.08533 L-0.01528 53.83467 L12.34472 53.83467 L12.34472 0 L12.07005 0 C8.63672 0 5.75272 1.236 3.41805 3.57067 C1.08339 5.90533 -0.01528 8.78933 -0.01528 12.08533 zM28.00072 0 L28.00072 53.69733 L47.36472 53.69733 L47.36472 47.65467 L40.22339 47.65467 L40.22339 11.948 C40.22339 8.652 39.12472 5.768 36.79005 3.43333 C34.45539 1.09867 31.57139 0 28.27539 0 C28.18383 0 28.09227 0 28.00072 0 zM12.48205 62.07467 C12.48205 65.37067 13.58072 68.11733 16.05272 70.58933 C18.38739 72.924 21.27139 74.16 24.56739 74.16 C41.32205 74.16 26.76472 74.16 35.14205 74.16 C35.00472 70.864 33.90605 67.98 31.57139 65.64533 C29.23672 63.31067 26.35272 62.07467 23.05672 62.07467 C6.30205 62.07467 20.85939 62.07467 12.48205 62.07467 z" />
<glyph unicode="" horiz-adv-x="56" d="M-0.10575 11.89701 L-0.10575 53.57151 L12.05501 53.57151 L12.05501 0.00954 L11.78173 0.00954 C8.50243 0.00954 5.63304 1.10264 3.3102 3.42548 C0.98736 5.74832 -0.10575 8.61771 -0.10575 11.89701 zM27.76834 0.00954 L27.76834 53.57151 L47.03425 53.57151 L47.03425 47.55945 L39.92909 47.55945 L39.92909 11.89701 C39.92909 8.61771 38.83599 5.74832 36.51315 3.42548 C34.19031 1.10264 31.32092 0.00954 28.04162 0.00954 C27.95052 0.00954 27.85943 0.00954 27.76834 0.00954 zM20.11663 73.52061 L28.58817 64.63916 L10.82527 64.63916 L20.11663 73.52061 z" />
<glyph unicode="" horiz-adv-x="56" d="M-0.01528 11.98768 L-0.01528 53.67101 L12.14805 53.67101 L12.14805 0.09768 L11.87472 0.09768 C8.59472 0.09768 5.72472 1.19101 3.40139 3.51434 C1.07805 5.83768 -0.01528 8.70768 -0.01528 11.98768 zM27.86472 0.09768 L27.86472 53.53434 L47.13472 53.53434 L47.13472 47.52101 L40.02805 47.52101 L40.02805 11.98768 C40.02805 8.70768 38.93472 5.83768 36.61139 3.51434 C34.28805 1.19101 31.41805 0.09768 28.13805 0.09768 C28.04694 0.09768 27.95583 0.09768 27.86472 0.09768 zM32.25676 64.52882 C31.1714 63.44345 29.53741 62.76664 28.00248 62.76664 C26.46755 62.76664 24.83357 63.44345 23.74821 64.52882 C22.66285 65.61418 21.98603 67.24816 21.98603 68.78309 C21.98603 70.31802 22.66285 71.95201 23.74821 73.03737 C24.83357 74.12273 26.46755 74.79954 28.00248 74.79954 C29.53741 74.79954 31.1714 74.12273 32.25676 73.03737 C33.34212 71.95201 34.01894 70.31802 34.01894 68.78309 C34.01894 67.24816 33.34212 65.61418 32.25676 64.52882 zM17.05375 64.73281 C15.96839 63.64744 14.33441 62.97063 12.79947 62.97063 C11.26454 62.97063 9.63056 63.64744 8.5452 64.73281 C7.45984 65.81817 6.78302 67.45215 6.78302 68.98708 C6.78302 70.52201 7.45984 72.156 8.5452 73.24136 C9.63056 74.32672 11.26454 75.00353 12.79947 75.00353 C14.33441 75.00353 15.96839 74.32672 17.05375 73.24136 C18.13911 72.156 18.81593 70.52201 18.81593 68.98708 C18.81593 67.45215 18.13911 65.81817 17.05375 64.73281 z" />
<glyph unicode="" horiz-adv-x="56" d="" />
<glyph unicode="" horiz-adv-x="10.989010989010978" d="M0.00296 57.7021 L-5.32794 67.41619 C-5.68333 67.29773 -6.03873 67.29773 -6.39412 67.29773 C-9.94806 67.29773 -12.79121 70.14087 -12.79121 73.69481 C-12.79121 77.24875 -10.06652 80.21036 -6.51259 80.21036 C-2.95865 80.21036 0.00296 77.36721 0.00296 73.81328 C0.00296 68.44288 0.00296 63.07249 0.00296 57.7021 z" />
<glyph unicode="" horiz-adv-x="41.093406593406542" d="M0.09786 80.23765 L5.42876 70.52356 C5.78416 70.64202 6.13955 70.64202 6.49494 70.64202 C10.04888 70.64202 12.89203 67.79887 12.89203 64.24493 C12.89203 60.691 10.04888 57.72938 6.49494 57.72938 C2.94101 57.72938 0.09786 60.691 0.09786 64.24493 C0.09786 69.57584 0.09786 74.90674 0.09786 80.23765 zM17.39368 80.23765 L22.72459 70.52356 C23.07998 70.64202 23.43538 70.64202 23.79077 70.64202 C27.34471 70.64202 30.18786 67.79887 30.18786 64.24493 C30.18786 60.691 27.46317 57.72938 23.90924 57.72938 C20.3553 57.72938 17.39368 60.691 17.39368 64.24493 C17.39368 69.57584 17.39368 74.90674 17.39368 80.23765 z" />
<glyph unicode="" horiz-adv-x="38.269360269360277" d="M12.90302 57.72938 L7.57211 67.44348 C7.21672 67.32501 6.86133 67.32501 6.50593 67.32501 C2.952 67.32501 0.10885 70.16816 0.10885 73.7221 C0.10885 77.27604 2.83353 80.23765 6.38747 80.23765 C9.94141 80.23765 12.90302 77.3945 12.90302 73.84056 C12.90302 68.47017 12.90302 63.09978 12.90302 57.72938 zM30.19885 57.72938 L24.86794 67.44348 C24.51255 67.32501 24.15715 67.32501 23.80176 67.32501 C20.24782 67.32501 17.40467 70.16816 17.40467 73.7221 C17.40467 77.27604 20.24782 80.23765 23.68329 80.23765 C27.3557 80.23765 30.19885 77.3945 30.19885 73.84056 C30.19885 68.47017 30.19885 63.09978 30.19885 57.72938 z" />
</font>
</svg>
